<?xml version="1.0" standalone="no"?>
<!DOCTYPE svg PUBLIC "-//W3C//DTD SVG 20010904//EN"
 "http://www.w3.org/TR/2001/REC-SVG-20010904/DTD/svg10.dtd">
<svg version="1.0" xmlns="http://www.w3.org/2000/svg"
 width="2000.000000pt" height="2000.000000pt" viewBox="0 0 2000.000000 2000.000000"
 preserveAspectRatio="xMidYMid meet">

<g transform="translate(0.000000,2000.000000) scale(0.100000,-0.100000)"
fill="#000000" stroke="none">
<path d="M5501 19228 c-45 -22 -92 -78 -112 -133 l-12 -33 -41 22 c-72 37
-206 19 -257 -35 -38 -40 -47 -105 -24 -164 20 -55 94 -122 142 -131 35 -7
130 0 168 11 17 5 29 -10 82 -102 34 -59 138 -236 231 -392 l170 -283 -38 -50
c-44 -58 -60 -106 -60 -174 1 -161 161 -241 259 -129 29 33 34 49 46 137 l6
46 56 -29 c98 -51 181 -32 224 52 29 58 23 134 -14 182 -43 56 -106 82 -212
84 -49 1 -93 3 -96 3 -7 0 -318 593 -370 703 l-31 67 27 68 c38 95 43 166 16
220 -21 42 -71 82 -101 82 -8 0 -35 -10 -59 -22z"/>
<path d="M7645 19129 c-45 -40 -58 -86 -54 -187 2 -45 4 -82 3 -82 -1 0 -21 7
-45 15 -60 21 -104 58 -146 121 -20 30 -39 54 -44 54 -4 0 -15 -23 -24 -51
-17 -49 -17 -52 2 -77 28 -37 109 -79 183 -93 36 -7 67 -14 69 -15 2 -2 -11
-18 -29 -36 -92 -92 -76 -214 35 -268 67 -32 197 -26 278 14 76 37 155 111
207 193 23 38 60 94 81 125 57 84 55 87 -42 67 -107 -21 -140 -1 -321 199 -58
65 -97 70 -153 21z"/>
<path d="M10047 18765 c-51 -29 -137 -146 -197 -270 -90 -184 -147 -372 -195
-645 -13 -79 -26 -145 -28 -147 -2 -2 -14 25 -27 59 -34 93 -106 233 -163 316
-68 99 -142 163 -244 214 -84 42 -90 43 -182 43 -88 0 -102 -3 -167 -33 l-71
-33 -76 15 c-145 30 -227 18 -369 -56 -89 -46 -173 -128 -215 -211 -21 -42
-27 -70 -30 -142 -5 -100 7 -138 44 -143 25 -4 27 1 43 123 13 103 40 156 114
231 77 76 164 114 278 122 42 2 88 2 102 -2 l25 -6 -39 -61 c-52 -80 -74 -150
-73 -227 2 -119 80 -226 191 -258 91 -27 178 4 238 83 86 113 57 296 -67 424
-27 28 -49 52 -49 53 0 2 27 11 60 20 56 16 65 16 122 1 235 -60 405 -320 522
-796 19 -79 38 -152 42 -162 4 -12 -8 -7 -45 17 -112 75 -293 123 -433 114
-123 -8 -257 -75 -327 -163 l-34 -43 -48 52 c-57 63 -140 109 -246 138 -158
43 -408 21 -542 -46 -253 -129 -536 -490 -626 -801 -74 -255 -104 -666 -70
-945 35 -283 126 -655 211 -864 187 -458 493 -775 824 -853 121 -28 303 3 452
78 l56 28 46 -57 c65 -79 180 -176 251 -211 228 -112 449 -70 649 122 l71 68
24 -33 c84 -113 243 -233 364 -276 61 -22 90 -26 192 -26 111 -1 125 2 190 29
100 42 229 131 310 215 45 48 73 69 81 64 6 -5 30 -24 54 -42 60 -44 107 -55
225 -50 142 7 257 49 412 150 225 147 376 388 538 859 136 395 185 668 185
1019 0 386 -68 673 -245 1035 -167 343 -341 531 -551 596 -73 22 -94 24 -274
23 -170 0 -203 -3 -258 -21 -82 -28 -196 -96 -247 -149 l-41 -42 -55 46 c-94
79 -202 112 -368 112 -152 0 -271 -42 -386 -135 l-56 -46 6 63 c25 257 99 414
273 579 112 106 172 140 263 147 92 6 127 -12 267 -142 121 -113 179 -147 276
-165 119 -22 229 -6 344 51 78 39 193 143 244 223 22 33 47 63 56 67 9 4 46 7
82 7 75 1 189 30 262 67 151 77 268 276 268 456 0 65 -11 110 -24 98 -2 -3
-14 -45 -25 -93 -42 -179 -133 -317 -250 -381 -58 -31 -187 -66 -245 -66 l-41
0 0 132 c0 113 -4 143 -23 197 -28 78 -70 141 -119 178 -31 24 -46 28 -99 28
-74 0 -103 -21 -130 -91 -22 -58 -15 -188 15 -264 34 -89 115 -182 199 -229
15 -8 12 -16 -22 -66 -106 -154 -295 -242 -462 -215 -88 14 -144 44 -234 125
-154 139 -220 175 -322 175 -97 0 -159 -16 -225 -59 -124 -80 -234 -195 -309
-321 -38 -64 -43 -70 -38 -40 25 138 126 384 224 545 81 133 232 308 317 366
13 9 24 26 25 39 2 19 -7 30 -48 55 -79 48 -148 67 -254 72 -73 3 -101 0 -123
-12z m1442 -190 c64 -54 108 -204 95 -319 -10 -80 -15 -85 -63 -47 -83 66
-141 180 -141 277 0 105 45 142 109 89z m-2620 -469 c47 -43 91 -139 91 -199
0 -123 -109 -196 -201 -134 -42 28 -79 98 -79 152 0 48 44 147 90 198 36 41
33 42 99 -17z m553 -1432 c56 -29 90 -70 124 -154 21 -53 49 -208 39 -218 -2
-2 -24 13 -49 32 -141 107 -280 18 -302 -194 -16 -150 79 -272 198 -254 l43 7
-19 -21 c-27 -31 -97 -62 -139 -62 -81 0 -188 84 -241 189 -56 110 -70 245
-41 397 48 251 210 368 387 278z m1190 -55 c85 -43 148 -189 148 -341 0 -144
-44 -273 -127 -375 -43 -53 -142 -120 -189 -129 -46 -8 -117 12 -145 42 l-22
24 47 0 c65 0 118 31 160 94 94 138 84 302 -22 398 -69 62 -157 63 -236 3 -39
-30 -43 -31 -38 -12 14 59 75 171 118 217 96 102 204 130 306 79z m-1908
-1070 c192 -57 537 -117 771 -135 46 -4 88 -10 94 -13 7 -5 4 -28 -9 -71 -25
-83 -26 -117 -1 -125 31 -10 219 -24 242 -18 20 6 21 10 15 72 -4 36 -9 81
-12 99 l-6 32 71 0 c48 0 71 -4 71 -12 0 -6 -17 -69 -37 -140 -30 -102 -35
-130 -25 -140 9 -9 67 -14 197 -16 l185 -3 0 28 c0 25 -30 198 -45 261 -5 21
-3 22 77 22 120 0 358 18 468 36 100 15 310 68 343 85 10 6 21 8 24 5 7 -6
-110 -238 -167 -331 -112 -184 -234 -311 -408 -427 -248 -164 -523 -258 -762
-260 -233 -2 -494 103 -713 288 -177 149 -372 434 -476 697 -36 90 -39 112
-13 102 9 -3 61 -19 116 -36z"/>
<path d="M3749 18735 c-245 -60 -418 -261 -419 -486 0 -119 52 -230 201 -429
56 -74 118 -169 138 -210 33 -68 36 -83 36 -160 -1 -47 -6 -94 -12 -104 -9
-16 -12 -8 -22 50 -24 137 -94 256 -222 380 -93 89 -169 144 -274 196 -76 38
-215 88 -246 88 -11 0 -43 25 -72 56 -65 70 -114 99 -195 115 -136 26 -247 -9
-374 -118 -36 -32 -101 -89 -144 -126 -107 -93 -186 -131 -285 -135 -88 -5
-137 14 -202 77 -75 70 -93 140 -61 234 41 122 -29 147 -89 32 -33 -61 -30
-172 5 -247 69 -147 228 -228 394 -199 128 23 225 81 394 235 116 106 217 166
280 166 50 0 121 -23 161 -51 l33 -23 -63 -13 c-79 -16 -121 -36 -164 -78 -48
-46 -67 -93 -67 -162 0 -49 6 -68 33 -113 27 -46 43 -60 99 -89 134 -68 256
-30 324 101 22 43 34 133 25 184 -10 54 -8 54 86 16 209 -85 403 -244 477
-390 54 -107 73 -243 40 -290 -14 -20 -23 -22 -118 -22 -111 0 -203 14 -386
60 -312 78 -399 92 -647 97 -516 12 -738 -55 -933 -282 -167 -193 -305 -538
-355 -886 -19 -136 -19 -380 0 -512 62 -421 217 -744 476 -990 173 -165 303
-235 584 -312 205 -56 351 -67 552 -44 l96 12 20 -29 c42 -61 166 -171 238
-212 94 -53 248 -116 353 -145 68 -19 107 -22 246 -22 172 0 209 6 355 52 196
63 325 154 448 318 33 44 63 83 66 87 3 4 65 -4 136 -17 215 -40 316 -32 541
46 268 92 431 209 591 425 103 140 213 385 262 584 73 301 48 693 -64 995
-140 378 -360 615 -737 795 -222 105 -401 150 -600 150 -163 0 -251 -19 -513
-113 -38 -14 -96 -29 -127 -32 l-58 -7 44 65 c59 89 82 155 106 305 35 220 69
311 151 398 69 72 150 108 233 102 33 -2 83 -14 110 -26 l48 -22 -64 -68 c-88
-93 -112 -146 -113 -242 0 -91 20 -131 80 -160 69 -34 155 -23 222 26 78 58
114 217 74 329 -39 109 -44 98 40 93 88 -6 146 -32 232 -106 62 -53 100 -68
118 -46 24 29 -45 115 -144 178 -76 47 -195 70 -293 54 -55 -8 -68 -7 -82 6
-10 8 -44 27 -76 42 -107 49 -272 29 -381 -46 -143 -99 -220 -247 -250 -480
-22 -174 -46 -249 -95 -301 -22 -23 -42 -40 -45 -38 -2 3 2 27 10 54 40 132 3
267 -128 472 -129 202 -163 332 -117 455 40 109 119 168 221 168 72 0 165 -25
210 -55 19 -14 43 -25 52 -25 26 0 39 47 34 121 -3 51 -12 81 -42 138 -21 40
-48 79 -59 86 -51 33 -237 44 -337 20z m1024 -792 c8 -21 18 -50 21 -65 10
-45 -13 -126 -46 -164 -25 -29 -37 -34 -72 -34 -23 0 -47 5 -54 12 -17 17 -15
101 3 143 13 34 110 145 125 145 4 0 14 -17 23 -37z m-1915 -12 c25 -83 2
-176 -55 -221 -48 -38 -139 -23 -190 32 -96 103 0 225 178 227 l56 1 11 -39z
m-88 -1212 c75 -34 141 -92 317 -282 108 -117 223 -227 319 -307 167 -140 180
-160 149 -218 -24 -45 -77 -75 -170 -99 -58 -15 -111 -18 -315 -18 -255 0
-327 8 -447 47 -74 24 -143 80 -175 142 -84 162 33 634 181 733 42 28 82 29
141 2z m2111 -3 c70 -48 137 -175 181 -344 17 -68 22 -115 23 -217 0 -125 -1
-132 -29 -182 -48 -86 -141 -136 -307 -165 -117 -20 -536 -17 -622 5 -91 23
-144 51 -167 90 -41 67 -25 91 178 256 57 46 158 143 225 215 197 213 293 302
360 336 73 36 111 38 158 6z m-2791 -1086 c43 -42 96 -84 119 -94 39 -18 43
-18 79 -2 20 9 59 34 87 55 l49 38 127 -128 c146 -146 238 -219 279 -219 35 0
137 66 201 130 28 28 51 50 53 50 1 0 33 -38 70 -84 76 -96 148 -164 184 -173
26 -6 56 20 157 141 l40 48 56 -78 c31 -44 79 -103 107 -133 44 -46 52 -52 70
-42 21 11 112 118 172 203 22 32 37 45 44 39 6 -5 40 -46 76 -91 36 -44 75
-83 88 -86 42 -11 116 54 247 220 l31 38 58 -56 c78 -74 157 -126 194 -126 42
0 129 68 280 220 l127 127 50 -38 c27 -21 67 -46 87 -55 36 -16 40 -16 80 2
44 20 129 98 236 218 72 81 74 77 33 -79 -42 -159 -133 -409 -202 -554 l-60
-126 -56 63 c-30 34 -59 62 -63 62 -4 0 -63 -51 -129 -114 -67 -63 -156 -138
-197 -166 -88 -61 -81 -64 -145 68 -23 47 -46 82 -55 82 -8 0 -58 -36 -112
-81 -53 -44 -154 -119 -224 -166 -100 -68 -131 -84 -151 -79 -13 3 -72 51
-130 106 -59 55 -111 100 -115 100 -21 0 -61 -42 -112 -119 -30 -44 -59 -80
-65 -80 -5 -1 -35 36 -65 80 -51 75 -92 119 -111 119 -4 0 -56 -45 -116 -100
-59 -56 -118 -103 -129 -106 -12 -3 -35 1 -51 9 -47 25 -251 174 -340 248 -45
38 -89 69 -97 69 -10 0 -31 -31 -55 -82 -63 -134 -55 -130 -145 -68 -43 29
-126 99 -185 156 -140 132 -143 133 -178 92 -16 -17 -40 -45 -54 -62 l-27 -30
-41 81 c-82 164 -180 430 -227 618 -14 55 -28 109 -31 120 -3 11 21 -9 52 -45
32 -36 93 -99 135 -140z"/>
<path d="M17610 18722 c-71 -35 -88 -138 -39 -240 25 -52 103 -138 158 -177
23 -15 41 -33 41 -40 0 -23 -106 -111 -147 -123 -22 -7 -63 -12 -90 -12 -115
0 -204 62 -299 208 -68 104 -115 156 -169 185 -33 18 -57 22 -135 22 -86 0
-102 -3 -160 -31 -36 -17 -81 -45 -100 -61 -26 -23 -40 -28 -55 -22 -11 4 -55
8 -97 8 -178 2 -314 -98 -382 -281 -14 -37 -28 -90 -32 -118 -4 -28 -10 -48
-14 -43 -4 4 -21 50 -39 102 -60 175 -209 443 -306 550 -46 51 -67 52 -177 8
-46 -19 -112 -44 -148 -56 -85 -28 -179 -81 -204 -114 -25 -34 -17 -44 82 -98
118 -64 189 -118 282 -215 139 -145 218 -281 253 -436 14 -64 14 -68 -3 -68
-9 0 -33 14 -51 30 -135 121 -285 168 -494 157 -120 -6 -203 -31 -339 -99
-128 -63 -205 -118 -287 -205 -155 -165 -254 -372 -247 -520 l3 -62 -42 -30
c-41 -30 -88 -90 -112 -145 -7 -17 -19 -96 -26 -178 -16 -164 -37 -238 -86
-299 -41 -52 -61 -59 -168 -59 -97 0 -136 -15 -112 -43 21 -26 107 -49 181
-49 80 -1 120 19 174 85 72 89 92 153 111 347 13 142 26 182 73 233 34 36 45
34 65 -9 25 -51 102 -130 151 -154 23 -11 62 -20 87 -20 144 0 189 169 75 282
-43 44 -99 65 -188 73 l-78 7 0 49 c0 130 141 365 296 493 77 63 231 146 334
178 62 19 96 23 195 22 133 0 203 -17 285 -69 l44 -28 -94 -31 c-232 -77 -361
-188 -474 -406 -48 -93 -79 -186 -155 -475 -84 -321 -141 -451 -314 -721 -159
-249 -236 -416 -288 -624 -26 -106 -37 -402 -20 -558 31 -284 118 -525 276
-762 125 -189 237 -284 447 -385 295 -140 522 -183 913 -171 724 21 1244 106
1530 249 297 148 504 390 624 731 46 130 61 229 61 400 0 250 -39 426 -140
631 -117 238 -207 350 -457 566 -245 212 -323 288 -381 372 -91 132 -121 203
-206 483 -31 100 -69 217 -86 260 -65 164 -175 311 -293 395 -114 81 -144 91
-283 97 l-122 4 -6 30 c-3 17 -6 72 -6 122 0 295 104 466 291 482 87 7 92 2
67 -71 -45 -135 -32 -268 36 -357 140 -183 352 -24 292 219 -18 76 -43 119
-106 187 l-45 48 30 24 c42 34 149 66 194 58 75 -14 113 -47 182 -160 146
-242 323 -322 534 -243 58 21 141 92 177 149 l15 25 69 -22 c91 -28 149 -37
170 -25 16 9 15 12 -10 35 -15 14 -63 43 -107 65 l-80 40 -2 98 c-2 79 -8 110
-26 152 -39 88 -147 172 -221 172 -8 0 -31 -8 -50 -18z m112 -107 c54 -37 90
-116 86 -191 l-3 -59 -53 50 c-83 76 -130 176 -102 210 17 21 30 19 72 -10z
m-948 -462 c23 -67 21 -144 -5 -177 -11 -14 -28 -26 -38 -26 -22 0 -66 46 -81
85 -17 44 -14 137 6 201 l18 57 42 -46 c23 -26 49 -68 58 -94z m-1034 -1239
c69 -32 105 -66 137 -128 22 -43 23 -48 6 -41 -10 5 -38 10 -63 13 -62 5 -104
-25 -143 -103 -28 -55 -31 -69 -31 -160 -1 -114 11 -145 77 -198 31 -26 49
-32 101 -35 l64 -4 -20 -33 c-31 -53 -102 -113 -149 -125 -114 -31 -258 84
-316 253 -98 279 34 578 257 586 14 0 50 -11 80 -25z m754 2 c105 -44 156
-249 93 -377 -38 -78 -68 -104 -121 -104 -32 0 -52 8 -80 29 l-38 29 31 13
c47 20 71 67 71 143 0 58 -2 65 -34 97 -30 30 -40 34 -85 34 -28 0 -51 2 -51
4 0 2 8 24 19 48 37 88 111 119 195 84z m-1820 -30 c86 -36 104 -153 21 -132
-32 8 -111 80 -131 118 l-15 28 46 0 c25 0 60 -6 79 -14z m1990 -996 c145 -49
247 -134 350 -288 137 -207 211 -418 235 -670 24 -259 -49 -446 -203 -518 -61
-29 -151 -32 -241 -9 -61 16 -228 78 -255 94 -12 8 -8 31 28 149 23 76 42 154
42 172 l0 33 -134 -5 c-92 -3 -140 -9 -151 -18 -13 -11 -16 -36 -14 -159 0
-80 -3 -145 -7 -145 -5 1 -17 24 -27 50 -40 111 -59 144 -84 144 -51 0 -183
-85 -183 -118 0 -10 20 -50 45 -91 24 -41 42 -78 39 -82 -12 -20 -149 -102
-200 -119 -76 -27 -176 -26 -247 0 -138 52 -201 183 -200 410 2 345 124 731
297 941 57 69 160 153 221 180 60 27 151 23 192 -7 61 -46 68 -66 68 -187 -1
-110 -1 -114 -53 -250 -68 -179 -75 -236 -37 -312 67 -137 216 -163 309 -53
43 50 61 119 53 208 -4 53 -19 96 -67 205 -73 166 -82 223 -55 336 13 51 27
82 46 101 25 26 34 28 102 28 47 0 94 -7 131 -20z"/>
<path d="M14035 18303 c-79 -120 -101 -147 -118 -145 -11 2 -79 21 -151 42
-165 48 -186 52 -186 42 0 -5 50 -68 110 -141 61 -73 110 -137 110 -142 0 -5
-33 -60 -74 -122 -84 -129 -96 -150 -96 -171 0 -27 28 -18 177 59 79 41 150
75 158 75 19 0 19 0 80 -167 29 -81 59 -148 66 -148 8 0 26 69 51 195 22 107
43 199 48 204 5 5 74 40 152 76 84 39 143 73 143 81 0 11 -30 15 -147 19 -80
3 -150 9 -154 13 -7 7 -53 315 -54 360 0 9 -4 17 -9 17 -5 0 -52 -66 -106
-147z"/>
<path d="M7426 18124 c-142 -34 -277 -129 -341 -237 -21 -36 -29 -66 -33 -117
-4 -63 -3 -70 21 -94 21 -21 36 -26 77 -26 46 0 51 -2 45 -19 -9 -28 -25 -179
-25 -234 l0 -48 48 3 47 3 -1 40 c-6 141 -5 207 0 212 3 4 19 -5 34 -19 37
-35 64 -41 105 -24 51 21 66 51 88 178 11 62 31 136 44 165 28 63 96 138 148
164 31 16 36 23 27 34 -28 34 -181 44 -284 19z"/>
<path d="M12348 17799 c-40 -30 -35 -52 22 -94 75 -55 173 -167 214 -244 20
-38 36 -74 36 -79 0 -7 -18 -9 -49 -5 -67 8 -98 -2 -116 -37 -30 -58 -13 -104
85 -235 67 -90 96 -165 105 -270 8 -96 13 -115 29 -115 19 0 113 106 177 198
75 108 101 178 106 292 5 88 3 98 -19 130 -55 81 -154 107 -210 53 -26 -25
-28 -25 -34 -7 -23 65 -90 196 -131 252 -61 87 -152 182 -172 182 -9 0 -28
-10 -43 -21z"/>
<path d="M18010 17266 c0 -10 94 -245 136 -341 2 -6 -33 -26 -78 -44 -148 -61
-257 -113 -262 -127 -8 -20 54 -33 342 -70 l42 -5 0 -182 c0 -239 10 -255 77
-124 20 40 53 113 74 162 22 51 44 89 51 89 7 -1 88 -20 180 -43 91 -22 169
-41 172 -41 22 0 -9 43 -114 156 -66 71 -120 134 -120 139 0 6 36 52 80 103
74 86 89 110 75 124 -4 3 -79 -10 -168 -28 -89 -19 -163 -34 -166 -34 -2 0
-42 37 -90 83 -128 123 -211 197 -222 197 -5 0 -9 -6 -9 -14z"/>
<path d="M932 14604 c-49 -34 -68 -129 -37 -184 19 -33 18 -40 -1 -40 -28 0
-86 -32 -121 -67 -27 -28 -33 -41 -33 -76 0 -84 59 -141 145 -141 51 0 71 9
150 68 8 6 87 -38 236 -131 123 -76 274 -170 335 -207 l112 -67 -2 -77 c-1
-64 3 -84 22 -118 30 -52 68 -74 127 -74 42 0 52 5 81 35 39 41 49 84 40 166
l-6 59 42 0 c54 0 122 33 153 74 46 61 27 159 -37 192 -57 29 -168 11 -248
-41 -25 -17 -29 -15 -392 201 l-366 219 -5 56 c-7 79 -32 126 -78 149 -46 24
-87 25 -117 4z"/>
<path d="M3402 12954 c-51 -25 -92 -65 -92 -88 0 -7 25 -51 55 -99 72 -116
141 -241 192 -352 43 -93 116 -295 110 -302 -2 -2 -25 33 -51 77 -127 219
-297 320 -521 307 -111 -6 -174 -25 -253 -76 -84 -55 -137 -130 -206 -295 -68
-159 -114 -218 -207 -265 -68 -34 -161 -56 -184 -44 -12 7 -9 16 19 55 66 93
90 163 94 274 5 110 -9 177 -53 264 -69 136 -162 203 -281 202 -82 -1 -139
-32 -196 -107 -58 -76 -73 -131 -72 -260 1 -89 5 -121 23 -168 45 -115 119
-200 251 -289 l25 -16 -55 -24 c-86 -39 -143 -51 -217 -46 -99 6 -203 58 -294
149 -38 38 -76 69 -83 69 -26 0 -29 -39 -6 -84 56 -116 250 -225 400 -226 101
0 223 40 298 96 32 25 41 26 160 28 123 1 129 2 195 35 131 66 190 137 266
318 24 57 57 124 74 149 40 61 135 130 205 150 77 23 238 15 305 -14 83 -37
183 -147 246 -269 11 -23 21 -44 21 -46 0 -2 -30 -7 -67 -10 -250 -21 -368
-107 -439 -320 -30 -91 -20 -84 -229 -157 -363 -127 -442 -205 -675 -671 -173
-348 -318 -861 -399 -1416 -60 -406 -90 -863 -72 -1098 25 -321 127 -639 258
-799 101 -125 228 -184 418 -193 168 -8 288 28 437 130 l68 47 92 -93 c74 -74
109 -101 172 -131 74 -37 84 -39 165 -38 205 2 371 82 481 230 l25 33 45 -62
c63 -87 162 -173 247 -215 101 -49 233 -65 342 -41 110 25 196 71 268 144 l63
63 43 -33 c96 -73 216 -101 362 -85 134 15 257 87 340 199 110 150 213 433
271 744 37 206 28 718 -22 1220 -63 629 -127 923 -287 1312 -180 438 -366 640
-700 760 -163 58 -216 99 -307 233 -100 148 -139 180 -255 210 -40 10 -128 22
-195 26 -78 4 -123 11 -126 19 -7 17 41 146 93 250 112 225 251 378 414 459
277 137 473 113 670 -83 71 -71 139 -176 139 -214 0 -10 -17 -16 -52 -20 -62
-8 -186 -65 -245 -113 -98 -80 -145 -200 -123 -310 10 -50 19 -66 60 -106 38
-37 59 -48 102 -57 117 -25 244 36 321 152 45 69 66 135 74 230 3 42 9 77 12
77 18 0 73 -43 105 -83 61 -74 76 -130 91 -327 14 -176 26 -232 66 -297 22
-35 65 -63 87 -56 18 7 15 52 -8 125 -11 34 -25 115 -31 178 -26 287 -54 373
-153 472 -46 46 -120 93 -177 111 -8 3 -21 25 -28 48 -51 174 -216 348 -404
427 -52 22 -81 27 -185 30 -112 4 -130 2 -210 -23 -279 -87 -464 -253 -618
-555 l-38 -75 -9 60 c-38 271 -106 533 -147 570 -31 28 -92 44 -171 45 -61 0
-85 -5 -127 -26z m-1307 -443 c81 -37 163 -162 185 -284 20 -106 -24 -251
-104 -342 l-34 -40 -48 25 c-134 70 -233 214 -242 353 -8 127 45 248 128 289
44 22 65 22 115 -1z m3145 -221 c0 -167 -106 -310 -231 -310 -137 0 -155 160
-30 273 59 54 171 105 234 106 27 1 27 1 27 -69z m-778 -1486 c69 -23 122 -75
164 -159 46 -92 54 -170 30 -279 -54 -240 -173 -379 -345 -402 -40 -5 -52 -4
-47 5 4 6 13 11 20 11 27 0 102 69 129 119 20 35 30 71 34 119 11 127 -40 234
-139 292 -49 29 -58 31 -126 26 -44 -3 -83 -11 -99 -21 -33 -22 -36 -16 -19
32 23 65 45 102 89 150 53 58 86 81 150 103 64 24 100 25 159 4z m-1187 -15
c121 -45 233 -188 254 -324 8 -54 5 -88 -6 -58 -10 27 -49 67 -92 94 -62 40
-149 41 -203 4 -81 -55 -128 -164 -128 -294 1 -120 42 -189 142 -237 l53 -26
-65 5 c-79 5 -118 24 -181 87 -102 102 -151 276 -127 450 19 145 80 249 170
294 63 31 109 33 183 5z m686 -1349 c307 -31 583 -101 909 -230 80 -31 162
-63 183 -69 20 -7 37 -16 37 -21 0 -16 -150 -149 -246 -217 -112 -80 -265
-173 -382 -232 -78 -39 -199 -91 -213 -91 -3 0 4 37 18 83 47 160 73 281 63
291 -11 11 -304 30 -327 21 -14 -5 -15 -35 -11 -231 6 -259 15 -235 -98 -248
l-60 -7 -18 142 -19 142 -104 -7 c-141 -9 -163 -14 -163 -38 0 -10 22 -66 49
-123 l50 -105 -30 0 c-97 0 -309 68 -464 149 -170 88 -576 377 -583 413 -5 27
360 204 550 266 154 51 359 98 448 104 54 3 53 21 14 -205 -25 -147 -27 -169
-14 -177 31 -20 308 -3 353 22 14 7 16 16 11 46 -7 43 -70 290 -80 315 -7 20
-9 20 127 7z"/>
<path d="M14316 12815 c-115 -20 -121 -22 -134 -50 -29 -62 -192 -733 -192
-786 0 -31 0 -32 43 -25 23 4 80 18 126 32 45 14 85 23 88 20 3 -2 -16 -91
-41 -197 -45 -183 -56 -252 -43 -265 8 -9 71 74 228 305 145 213 329 500 329
514 0 16 -92 5 -238 -29 -84 -19 -156 -33 -158 -31 -3 3 24 85 59 183 91 252
110 313 103 329 -7 18 -60 18 -170 0z"/>
<path d="M8551 12717 c-68 -34 -144 -113 -176 -184 l-28 -61 -56 45 c-83 68
-171 107 -227 100 -85 -9 -125 -79 -101 -174 25 -96 173 -266 309 -353 49 -32
192 -90 221 -90 14 0 106 206 147 328 64 191 73 309 29 381 -23 38 -55 40
-118 8z"/>
<path d="M9590 12708 c-17 -13 -39 -35 -48 -51 -16 -27 -16 -29 25 -105 58
-108 109 -243 149 -396 18 -72 32 -131 31 -132 -1 -1 -22 23 -47 54 -53 65
-129 120 -220 159 -57 24 -78 27 -175 28 -104 0 -114 -2 -175 -32 -83 -41
-171 -111 -215 -171 -35 -47 -52 -79 -184 -356 -107 -224 -170 -304 -276 -352
-50 -23 -73 -27 -145 -27 -88 0 -160 16 -160 36 0 7 7 34 15 61 23 74 20 190
-6 243 -31 64 -61 83 -128 83 -104 0 -161 -59 -161 -165 0 -74 29 -140 92
-210 l45 -50 -114 -95 c-279 -232 -393 -415 -393 -631 0 -88 11 -127 53 -186
l30 -42 -17 -105 c-20 -131 -21 -269 -3 -285 32 -26 67 62 92 228 9 58 18 107
21 110 2 3 24 4 47 2 59 -3 146 31 191 76 109 109 30 261 -116 223 -59 -16
-112 -52 -148 -101 l-30 -41 -12 28 c-7 16 -12 63 -12 104 1 85 24 161 76 249
39 65 196 226 328 337 l95 79 55 -19 c82 -28 236 -27 311 2 164 65 261 191
397 519 33 78 71 162 85 186 37 63 150 165 221 198 136 65 329 19 491 -116
l30 -25 -55 0 c-208 -1 -362 -72 -540 -250 -153 -153 -270 -349 -464 -775
-136 -298 -222 -447 -501 -865 -447 -670 -599 -946 -673 -1219 -23 -86 -26
-115 -26 -276 0 -155 2 -191 21 -260 79 -289 264 -524 509 -648 82 -41 348
-145 441 -172 46 -14 137 -29 201 -35 64 -6 194 -18 288 -26 144 -14 191 -15
290 -4 323 32 505 98 648 231 126 118 185 231 222 427 14 72 15 127 10 327 -6
272 -10 303 -71 690 -80 504 -89 587 -90 835 0 374 28 517 180 900 117 294
128 338 129 510 1 125 -2 155 -22 220 -48 151 -122 269 -203 321 -27 18 -49
33 -49 35 0 1 31 12 69 23 94 29 207 105 262 178 24 32 44 59 45 61 1 1 30
-11 64 -27 93 -44 156 -55 241 -42 98 16 169 43 240 91 l60 41 98 -66 c55 -36
118 -83 142 -104 l44 -39 -43 -46 c-53 -58 -72 -101 -72 -164 0 -131 165 -180
260 -77 21 23 25 36 25 94 0 44 -6 81 -19 110 -17 35 -17 44 -6 51 30 19 107
21 180 6 127 -27 198 -18 174 21 -30 48 -243 80 -361 54 l-54 -13 -52 49 c-29
27 -98 82 -155 122 -80 57 -102 77 -96 89 37 89 44 168 20 226 -39 92 -155 86
-186 -10 -17 -52 -8 -135 22 -192 l26 -50 -26 -25 c-64 -60 -199 -102 -298
-94 -43 3 -80 14 -123 37 -33 18 -61 36 -61 40 0 4 6 26 14 48 56 157 11 302
-93 302 -78 0 -121 -61 -121 -170 0 -83 14 -123 65 -179 37 -41 37 -41 20 -68
-31 -46 -118 -124 -167 -149 -61 -31 -154 -55 -183 -48 -21 5 -23 11 -28 147
-8 214 -58 442 -107 495 -29 31 -114 31 -160 0z m707 -139 c21 -39 11 -185
-12 -183 -17 1 -55 86 -55 122 0 40 26 95 43 89 7 -2 18 -14 24 -28z m634 4
c10 -28 3 -99 -11 -108 -19 -12 -41 111 -23 128 13 13 24 7 34 -20z m339 -584
c42 -82 4 -158 -67 -133 -46 16 -44 62 7 132 16 23 32 42 35 42 2 0 14 -18 25
-41z m-3197 -369 c20 -39 19 -130 -3 -185 l-12 -30 -30 35 c-68 80 -87 161
-47 201 31 31 70 22 92 -21z m967 -839 c52 -27 82 -103 77 -198 -3 -62 -11
-86 -52 -170 -39 -78 -49 -93 -52 -73 -6 42 -24 68 -59 85 -43 20 -100 7 -149
-36 -70 -61 -114 -205 -82 -268 17 -35 8 -42 -37 -30 -129 37 -140 230 -28
459 50 102 157 212 227 233 68 21 114 21 155 -2z m551 -247 c33 -29 49 -77 49
-143 0 -74 -23 -199 -45 -242 l-17 -32 -18 41 c-40 89 -115 95 -187 17 -81
-88 -96 -222 -29 -253 20 -9 20 -10 -8 -17 -51 -14 -97 19 -124 88 -28 71 -31
194 -6 277 38 131 125 241 217 274 56 20 140 16 168 -10z m-1721 -27 c0 -42
-65 -87 -124 -87 -42 0 -44 7 -14 45 29 37 77 65 111 65 22 0 27 -5 27 -23z
m863 -866 c45 -23 113 -50 151 -61 96 -27 256 -43 350 -35 l78 7 -7 -23 c-16
-54 -98 -210 -157 -299 -151 -226 -335 -351 -523 -353 -84 -1 -131 18 -191 79
-66 66 -88 135 -88 274 1 149 29 246 148 513 l26 58 65 -59 c38 -35 100 -77
148 -101z"/>
<path d="M16620 12680 c-53 -27 -210 -170 -291 -263 -177 -205 -275 -396 -316
-622 l-17 -90 -12 69 c-50 264 -182 467 -383 586 -131 78 -252 97 -404 65
-142 -30 -238 -96 -295 -203 -89 -166 -51 -353 87 -424 94 -49 187 -34 230 35
32 52 25 137 -11 137 -4 0 -16 -17 -27 -37 -29 -59 -54 -77 -96 -70 -80 13
-128 78 -127 173 1 118 94 235 217 273 156 49 260 33 399 -60 172 -115 272
-291 311 -549 19 -120 19 -190 3 -190 -7 1 -42 7 -78 15 -227 51 -623 17 -905
-78 -370 -125 -635 -377 -837 -797 -122 -253 -208 -531 -253 -820 -22 -142
-31 -514 -16 -650 63 -553 296 -1084 576 -1309 216 -173 404 -237 730 -248
158 -5 208 -2 415 23 194 23 268 28 423 25 250 -3 434 -3 657 1 154 2 225 -2
425 -26 526 -62 831 -11 1096 186 165 121 277 267 393 509 102 213 155 381
212 674 26 130 28 159 28 400 1 337 -26 535 -110 811 -172 570 -452 962 -820
1147 -265 133 -689 204 -998 166 -72 -9 -90 -8 -97 3 -23 36 4 185 56 308 139
332 478 563 708 484 26 -9 47 -19 47 -22 0 -4 -9 -22 -20 -40 -69 -112 -93
-318 -49 -409 37 -77 149 -132 241 -120 53 7 102 55 124 120 12 38 15 73 12
142 -6 101 -34 180 -99 270 l-33 45 29 30 c35 37 142 93 219 115 118 34 264 1
355 -81 46 -42 101 -132 101 -167 0 -31 71 -157 89 -157 44 0 53 60 26 165
-47 184 -171 308 -346 350 -172 40 -341 -2 -504 -125 l-65 -49 -48 24 c-233
117 -581 -33 -791 -343 -47 -70 -104 -183 -121 -239 -7 -24 -17 -43 -21 -43
-13 0 -22 129 -16 239 9 173 79 373 183 518 39 55 45 68 36 87 -24 53 -152 74
-222 36z m1044 -483 c60 -79 89 -201 67 -284 -14 -53 -39 -68 -85 -53 -97 32
-114 159 -44 322 11 27 24 48 29 48 4 0 19 -15 33 -33z m-2084 -1472 c36 -19
106 -102 160 -190 52 -84 242 -456 237 -461 -2 -3 -30 8 -63 22 -115 51 -316
124 -412 149 -51 14 -57 13 -225 -30 -94 -24 -201 -53 -237 -64 -35 -11 -66
-18 -68 -16 -23 23 418 503 532 579 46 31 40 30 76 11z m1458 -5 c43 -26 254
-231 360 -350 79 -88 186 -229 179 -236 -2 -2 -31 6 -66 16 -133 42 -379 100
-420 100 -48 0 -178 -42 -384 -125 -73 -29 -134 -51 -136 -49 -5 4 217 432
252 484 50 74 109 142 142 161 37 23 33 23 73 -1z m-2212 -1043 c115 -46 221
-90 236 -98 14 -8 72 -75 128 -149 57 -74 120 -156 142 -182 l40 -48 106 0
c131 0 491 16 705 31 135 9 161 9 180 -4 12 -8 95 -78 184 -156 89 -77 168
-141 176 -141 23 0 221 101 428 218 263 148 239 138 467 208 l203 63 72 65
c82 74 281 235 285 231 1 -1 -43 -140 -98 -309 -78 -237 -106 -309 -123 -321
-28 -18 -413 -186 -495 -215 -61 -22 -65 -27 -170 -159 -60 -75 -133 -168
-163 -207 -30 -39 -77 -96 -106 -127 l-52 -57 -385 0 -385 0 -16 23 c-8 12
-55 83 -104 157 -49 74 -100 145 -113 157 -18 16 -49 25 -138 38 -303 44 -757
146 -786 177 -13 15 -19 37 -69 273 -20 93 -41 177 -46 187 -5 9 -60 82 -122
160 -176 223 -209 268 -200 268 5 0 103 -37 219 -83z"/>
<path d="M6077 12579 c-43 -25 -60 -106 -32 -159 28 -55 137 -62 165 -10 13
25 13 103 -1 133 -19 41 -89 61 -132 36z"/>
<path d="M6364 11861 c-58 -35 -66 -119 -17 -173 31 -35 134 -13 168 36 8 11
15 38 15 59 0 81 -91 124 -166 78z"/>
<path d="M13603 11733 c-7 -2 -20 -28 -28 -57 -18 -60 -150 -716 -160 -794 -7
-52 -7 -53 17 -48 12 3 54 12 91 21 37 8 81 22 97 30 17 9 30 14 30 11 0 -2
-18 -71 -40 -151 -73 -264 -116 -470 -100 -480 12 -7 43 40 217 330 258 430
384 649 380 665 -4 23 -28 17 -206 -49 -90 -34 -170 -61 -177 -61 -11 0 -11 6
-3 28 14 37 169 544 169 554 0 9 -267 10 -287 1z"/>
<path d="M10693 11692 c-17 -11 -28 -46 -53 -167 -20 -96 -22 -131 -17 -275 2
-91 8 -172 11 -181 5 -12 -3 -18 -32 -27 -22 -7 -73 -34 -114 -61 -85 -55
-146 -136 -199 -263 -49 -119 -58 -176 -69 -458 -6 -146 -21 -359 -35 -475
-96 -822 -99 -852 -99 -1080 -1 -240 8 -303 65 -478 61 -188 149 -324 280
-435 134 -115 419 -237 668 -287 66 -14 121 -16 274 -12 228 5 318 26 483 108
356 178 522 440 541 855 14 305 -77 615 -264 899 -78 119 -147 201 -371 439
-103 109 -215 233 -250 275 -75 89 -140 218 -207 406 -82 232 -107 293 -145
352 -86 131 -162 189 -296 228 l-74 21 31 47 c95 143 292 221 437 173 48 -16
142 -87 142 -107 0 -5 -12 -9 -26 -9 -72 0 -134 -63 -134 -136 0 -75 60 -124
152 -124 68 0 113 27 136 81 17 40 18 40 36 20 35 -38 45 -91 46 -236 2 -264
13 -364 48 -438 63 -135 175 -216 310 -225 l75 -5 153 -119 c84 -66 165 -138
181 -160 25 -37 29 -52 33 -142 5 -93 7 -101 26 -104 32 -5 56 54 56 140 0 59
-5 81 -32 135 -33 67 -40 74 -243 233 l-78 61 36 42 c42 49 69 131 60 180 -25
130 -152 152 -214 37 -19 -34 -26 -64 -29 -127 -5 -93 -9 -97 -80 -68 -91 38
-161 114 -189 203 -9 31 -17 127 -23 277 -12 304 -27 353 -133 426 -31 21 -62
53 -80 84 -42 73 -84 112 -155 147 -52 26 -80 33 -146 36 -150 8 -274 -45
-387 -166 -67 -71 -69 -73 -63 -40 25 149 71 303 120 400 32 63 30 76 -11 94
-36 15 -132 19 -152 6z m755 -604 c17 -17 15 -54 -4 -72 -21 -22 -67 -20 -95
3 -20 16 -22 23 -13 38 22 37 88 55 112 31z m702 -698 c7 -14 8 -32 1 -55 -10
-38 -47 -95 -62 -95 -15 0 -10 86 7 130 18 44 37 51 54 20z m-961 -409 c93
-48 161 -182 147 -294 -14 -112 -94 -197 -171 -183 -54 10 -110 59 -139 120
-33 70 -33 77 2 67 38 -11 91 8 116 42 16 21 21 43 21 87 0 71 -21 105 -85
136 -39 19 -41 22 -24 32 30 17 91 14 133 -7z m-473 -93 c78 -72 124 -190 124
-317 0 -90 -20 -142 -73 -188 -19 -17 -51 -36 -70 -42 -31 -10 -41 -9 -74 7
-21 11 -48 31 -60 44 -36 38 -75 135 -80 199 l-6 60 38 -25 c43 -30 83 -33
125 -11 40 21 60 63 60 128 0 67 -28 114 -85 141 l-39 20 29 12 c47 21 63 17
111 -28z m789 -798 c20 -39 50 -112 67 -163 29 -84 32 -103 32 -212 0 -153
-20 -209 -98 -283 -42 -40 -63 -52 -107 -61 -114 -23 -269 32 -373 134 -43 43
-69 82 -116 177 -33 67 -60 127 -60 134 0 13 54 24 121 24 135 0 330 114 445
260 26 33 48 60 50 60 2 0 20 -32 39 -70z"/>
<path d="M12055 11576 c-40 -17 -81 -67 -96 -114 -6 -20 -14 -82 -16 -138 -4
-82 -1 -117 16 -185 36 -143 99 -249 148 -249 41 0 275 159 372 253 79 76 111
130 111 189 0 39 -5 54 -26 74 -24 24 -30 26 -108 23 -73 -4 -89 -8 -135 -36
-35 -22 -53 -29 -56 -20 -2 6 -11 35 -19 62 -20 62 -68 123 -112 141 -40 17
-41 17 -79 0z"/>
<path d="M1060 11478 c-84 -43 -114 -133 -70 -206 25 -41 73 -62 143 -62 63 0
95 20 121 74 36 76 12 162 -56 197 -49 25 -84 24 -138 -3z"/>
<path d="M6005 11081 c-94 -23 -149 -89 -150 -180 0 -132 95 -206 222 -172 86
23 133 88 133 181 0 117 -96 197 -205 171z"/>
<path d="M1290 10962 c-19 -10 -48 -38 -64 -60 -25 -35 -30 -52 -30 -104 -1
-110 57 -171 163 -171 58 0 103 17 133 50 24 26 48 87 48 120 0 44 -44 128
-80 153 -45 32 -123 38 -170 12z"/>
<path d="M1075 10168 c-31 -18 -44 -40 -45 -75 0 -59 22 -87 83 -107 10 -3 34
1 53 9 34 14 34 14 34 79 0 58 -3 67 -26 85 -29 23 -68 27 -99 9z"/>
<path d="M16053 6661 c-76 -28 -158 -86 -198 -141 -62 -84 -65 -207 -9 -309
16 -31 73 -93 149 -165 126 -119 157 -162 170 -241 7 -37 4 -35 -44 44 -142
234 -298 353 -591 449 -513 170 -994 60 -1227 -281 -28 -41 -37 -47 -67 -47
-47 0 -152 -39 -216 -80 -109 -70 -209 -216 -247 -360 -10 -40 -17 -104 -17
-165 0 -162 35 -254 210 -547 164 -273 212 -403 201 -547 -7 -92 -50 -186
-105 -229 -41 -31 -113 -75 -117 -70 -1 2 -10 28 -18 58 -36 123 -155 257
-255 286 -98 29 -196 -7 -257 -96 -41 -59 -48 -158 -16 -224 55 -113 202 -185
379 -186 34 0 62 -2 62 -3 0 -2 -9 -30 -20 -62 -27 -77 -57 -127 -124 -204
-56 -64 -70 -101 -41 -101 29 0 70 28 118 79 77 82 127 174 156 286 10 37 17
43 96 84 228 119 307 344 218 626 -32 101 -62 160 -181 360 -149 250 -202 378
-202 490 0 68 28 177 65 251 46 93 148 192 229 223 31 12 63 21 70 21 10 0 15
-24 18 -87 7 -104 32 -176 82 -238 85 -103 190 -121 278 -47 71 60 90 184 43
279 -33 65 -110 138 -180 169 -30 13 -55 28 -55 33 0 21 98 115 167 161 244
160 563 182 928 64 195 -64 355 -169 453 -300 40 -54 140 -225 160 -275 2 -4
-23 3 -55 16 -145 59 -288 36 -425 -68 l-46 -35 -43 29 c-79 52 -161 74 -279
74 -127 0 -172 -17 -256 -97 -143 -135 -202 -310 -284 -848 -88 -573 -158
-779 -441 -1290 -225 -408 -344 -726 -410 -1095 -30 -170 -31 -407 0 -520 44
-168 142 -318 274 -423 86 -69 217 -137 297 -156 94 -23 243 -21 314 4 88 30
169 77 216 125 l43 44 79 -73 c90 -83 174 -136 302 -191 119 -50 177 -65 263
-65 99 0 164 15 258 60 118 57 167 102 313 289 l18 24 52 -71 c158 -212 349
-313 565 -299 178 11 441 144 571 288 l38 41 52 -50 c51 -51 129 -96 219 -126
72 -24 236 -22 323 5 146 44 294 143 395 263 207 245 238 570 103 1084 -72
276 -163 493 -366 865 -274 503 -335 684 -429 1270 -60 381 -102 557 -159 673
-53 106 -140 203 -218 241 -52 25 -67 28 -162 28 -120 0 -190 -18 -272 -70
l-51 -33 -46 36 c-25 19 -74 48 -109 65 -56 26 -75 30 -155 30 -70 0 -105 -5
-144 -20 -29 -12 -53 -20 -53 -19 0 2 9 29 20 61 61 177 242 360 465 470 160
79 317 115 501 115 138 0 351 -55 514 -133 70 -34 101 -57 176 -132 79 -79 98
-105 143 -195 49 -101 80 -207 81 -277 0 -31 -1 -32 -32 -25 -18 4 -76 7 -128
6 -76 -1 -103 -5 -136 -22 -145 -74 -139 -241 12 -324 119 -66 256 -15 339
127 15 25 32 45 39 45 22 0 142 -107 175 -156 44 -67 64 -142 56 -207 -11 -77
-34 -130 -139 -320 -53 -95 -110 -210 -127 -257 -29 -77 -32 -96 -33 -200 -1
-135 22 -225 78 -304 97 -136 315 -197 459 -127 66 32 144 105 173 162 40 81
32 246 -16 297 -25 26 -33 27 -56 5 -14 -15 -16 -30 -10 -111 6 -84 4 -99 -15
-139 -25 -52 -95 -108 -153 -124 -89 -24 -211 14 -273 85 -68 76 -98 231 -69
345 20 79 75 197 165 354 84 148 109 210 120 296 23 186 -66 356 -248 471
l-70 45 -1 65 c-1 192 -114 437 -268 581 -81 76 -149 118 -275 170 -169 69
-272 91 -450 97 -189 5 -285 -7 -424 -53 -210 -70 -401 -194 -527 -343 l-45
-52 -24 49 c-14 26 -54 87 -90 133 -35 47 -74 111 -86 142 -40 107 -21 231 49
318 17 21 30 46 28 56 -9 50 -164 77 -255 43z m-1580 -858 c79 -55 111 -160
66 -217 -42 -54 -118 -19 -157 71 -23 54 -37 150 -27 182 6 20 8 20 43 5 20
-8 54 -27 75 -41z m3803 -405 c18 -19 -46 -107 -97 -134 -38 -19 -66 -18 -103
6 -67 41 -68 96 -3 126 32 14 189 15 203 2z m-1570 -655 c101 -34 283 -251
390 -466 72 -142 107 -258 107 -352 0 -122 -39 -194 -140 -261 -89 -59 -151
-76 -301 -83 -91 -4 -128 -3 -116 4 88 52 110 73 144 139 31 61 35 80 39 158
3 84 1 94 -28 153 -62 126 -172 190 -316 183 -97 -4 -151 -28 -232 -101 l-56
-52 7 99 c12 168 53 286 144 424 60 91 186 170 273 172 19 0 58 -8 85 -17z
m-893 -327 c42 -17 113 -96 137 -151 16 -37 40 -164 40 -211 0 -11 -9 -10 -42
8 -65 33 -159 31 -221 -5 -164 -96 -145 -332 33 -423 l35 -17 -35 -10 c-53
-14 -287 -2 -340 17 -93 35 -139 118 -120 219 12 59 74 194 122 264 80 117
225 259 310 306 39 21 40 21 81 3z m-2144 -216 c68 -34 155 -150 175 -233 5
-23 3 -29 -19 -37 -90 -34 -267 24 -315 103 -38 62 -15 137 51 170 44 22 62
21 108 -3z m3851 -816 c49 -44 101 -149 125 -251 27 -112 17 -262 -24 -373
-77 -208 -230 -349 -471 -432 -87 -30 -105 -33 -220 -33 -103 0 -138 4 -200
23 -100 32 -163 67 -210 118 -62 67 -84 119 -85 196 0 80 18 111 91 148 47 24
56 25 234 25 124 0 192 4 206 12 29 17 67 75 109 168 112 243 133 282 191 344
67 73 99 90 166 91 41 0 54 -5 88 -36z"/>
<path d="M1252 6483 c-31 -279 -90 -378 -256 -428 -58 -17 -55 -32 11 -45 76
-16 126 -42 157 -83 38 -50 72 -149 90 -267 15 -94 28 -132 40 -119 2 2 9 40
15 84 6 44 23 115 37 157 43 132 103 193 218 223 80 20 88 31 35 45 -82 21
-107 31 -152 60 -87 58 -135 166 -143 325 -7 122 -13 155 -28 155 -9 0 -16
-32 -24 -107z"/>
<path d="M2786 6545 c-67 -27 -153 -83 -161 -104 -7 -18 5 -35 109 -156 55
-64 102 -131 131 -189 25 -49 44 -91 41 -93 -2 -2 -28 3 -57 11 -169 48 -432
59 -624 26 -388 -66 -654 -255 -814 -577 -92 -186 -126 -334 -118 -518 6 -140
29 -232 87 -350 37 -75 40 -87 40 -169 0 -48 14 -185 31 -304 51 -362 37 -481
-71 -587 -48 -47 -52 -49 -162 -72 -111 -23 -160 -45 -166 -76 -8 -40 167 -48
285 -12 101 30 206 155 239 285 22 85 14 262 -20 495 -14 94 -26 185 -26 203
l0 33 29 -21 c17 -11 56 -33 88 -48 51 -24 70 -27 163 -27 116 0 164 15 240
75 53 42 100 138 100 204 0 101 -70 200 -179 254 -50 24 -67 27 -161 27 -99 0
-110 -2 -172 -33 -62 -30 -111 -73 -150 -132 -21 -33 -31 -22 -57 64 -64 208
-38 433 75 658 163 325 415 488 839 544 170 23 449 2 552 -41 l35 -15 -92 -60
c-189 -125 -310 -281 -361 -467 -27 -96 -28 -255 -5 -473 26 -248 28 -300 16
-480 -23 -369 -69 -574 -180 -816 -45 -97 -85 -161 -200 -319 -230 -314 -344
-559 -411 -885 -21 -99 -24 -142 -24 -310 1 -168 4 -206 22 -272 64 -225 223
-430 432 -553 130 -77 427 -169 634 -197 93 -12 323 1 414 24 44 11 47 10 202
-66 172 -83 282 -117 456 -137 117 -14 323 -7 470 16 120 18 324 84 389 125
39 25 57 30 109 30 35 0 90 7 122 15 149 37 400 198 533 339 109 117 190 278
245 486 28 107 30 130 35 337 4 194 1 239 -18 360 -61 385 -148 679 -282 948
-66 132 -122 225 -299 496 -193 295 -222 348 -399 704 -82 165 -178 346 -214
403 -157 248 -348 470 -494 575 -257 185 -501 277 -735 277 -113 0 -112 -1
-33 80 90 91 217 140 366 140 230 0 379 -95 616 -392 206 -258 312 -356 462
-426 52 -24 68 -27 172 -27 98 0 125 4 187 27 39 14 101 46 138 72 l66 46 92
0 c106 0 270 23 322 44 39 17 55 43 34 57 -19 12 -167 11 -268 -1 -107 -14
-115 -11 -96 33 21 51 29 154 16 222 -16 83 -54 157 -115 219 -61 63 -115 93
-194 107 -86 16 -153 -2 -207 -55 -53 -54 -68 -98 -63 -190 7 -146 108 -284
265 -361 45 -22 82 -44 82 -48 1 -4 -29 -22 -66 -40 -59 -27 -81 -32 -168 -35
-100 -4 -100 -4 -180 37 -109 54 -214 154 -379 359 -147 183 -228 266 -324
331 -141 95 -251 125 -427 118 -156 -6 -263 -43 -362 -124 -44 -35 -63 -36
-63 -3 0 66 -102 300 -152 351 -27 27 -35 29 -101 29 -53 0 -88 -7 -131 -25z
m2331 -464 c51 -26 119 -100 145 -159 31 -68 31 -191 0 -249 l-22 -42 -41 14
c-72 26 -161 78 -203 120 -120 120 -136 278 -35 333 31 17 106 9 156 -17z
m-3197 -1352 c79 -36 120 -88 120 -154 0 -64 -50 -129 -122 -159 -52 -22 -156
-20 -218 3 -53 20 -133 79 -149 110 -12 22 15 85 60 136 72 81 209 110 309 64z
m1453 -137 c108 -47 206 -177 261 -347 41 -126 71 -335 49 -335 -5 0 -20 26
-35 58 -53 113 -149 185 -248 186 -70 0 -122 -27 -182 -93 -65 -72 -93 -163
-93 -301 0 -94 3 -111 28 -165 37 -78 69 -111 142 -147 l60 -29 -60 6 c-165
16 -275 132 -354 372 -82 253 -29 594 116 738 96 97 188 113 316 57z m1082
-236 c195 -90 256 -420 115 -615 -50 -69 -146 -118 -201 -104 -17 5 -12 10 28
33 36 21 57 42 78 81 26 47 30 64 30 134 0 70 -4 87 -30 134 -38 69 -84 101
-148 101 -57 0 -112 -32 -153 -91 -39 -57 -48 -50 -40 31 16 174 125 319 241
320 17 0 53 -11 80 -24z m569 -1191 c-7 -63 -22 -177 -33 -252 -11 -76 -30
-214 -41 -308 -27 -225 -28 -235 -45 -235 -8 0 -51 25 -95 55 -44 30 -84 55
-89 55 -23 0 -40 -100 -56 -330 -9 -133 -16 -180 -26 -174 -5 3 -41 43 -79 90
-39 46 -77 84 -84 84 -18 0 -39 -55 -81 -212 -19 -72 -36 -132 -38 -134 -5 -5
-83 103 -146 204 -29 45 -56 82 -60 82 -24 0 -51 -40 -136 -201 l-53 -101
-127 182 c-71 100 -135 185 -144 188 -10 4 -30 -12 -61 -48 -25 -30 -67 -77
-93 -105 l-48 -50 -63 67 c-110 117 -225 299 -301 478 -41 95 -117 321 -111
327 2 2 32 -28 66 -66 78 -88 159 -151 193 -151 22 0 28 8 53 73 55 146 70
181 81 184 6 2 36 -32 67 -76 31 -43 76 -101 100 -128 61 -66 71 -58 121 100
22 70 43 127 46 127 3 0 36 -39 74 -86 71 -87 136 -144 166 -144 17 0 41 49
93 190 13 36 28 65 34 65 5 0 43 -42 83 -94 41 -52 82 -99 92 -105 32 -19 60
28 101 175 21 74 40 138 43 142 3 4 32 -18 66 -49 34 -32 79 -70 101 -86 36
-26 41 -27 57 -12 10 9 30 68 49 145 l32 129 40 -33 c80 -66 111 -87 130 -87
18 0 54 65 112 204 8 20 17 36 19 36 2 0 -2 -52 -9 -115z"/>
<path d="M18340 6493 c-62 -23 -81 -103 -35 -148 33 -34 97 -35 119 -3 22 31
21 110 -1 131 -21 18 -62 28 -83 20z"/>
<path d="M18775 6387 c-54 -31 -85 -79 -85 -134 0 -96 79 -179 170 -177 58 1
132 41 161 87 43 68 7 178 -75 228 -44 27 -120 25 -171 -4z"/>
<path d="M9662 6349 c-77 -12 -251 -66 -273 -86 -15 -13 -10 -24 58 -126 41
-62 90 -142 109 -180 l34 -67 -62 46 c-125 92 -284 154 -443 174 -111 14 -313
-2 -365 -29 -46 -24 -49 -46 -11 -66 25 -13 63 -15 199 -14 142 2 180 -1 257
-20 141 -34 261 -98 357 -189 70 -66 158 -179 158 -202 0 -5 -36 10 -80 33
-75 38 -85 41 -187 45 -92 4 -118 1 -173 -18 -123 -41 -224 -116 -291 -215
l-24 -35 -171 0 c-192 0 -290 -14 -416 -60 -471 -172 -829 -628 -962 -1223
-58 -257 -68 -364 -73 -757 -9 -633 32 -910 192 -1325 117 -303 210 -417 430
-527 101 -51 197 -78 302 -85 l92 -6 50 -81 c112 -182 220 -276 383 -331 74
-26 100 -29 243 -33 178 -4 233 5 359 60 55 24 71 27 77 17 49 -88 136 -164
249 -218 73 -35 78 -36 190 -36 94 1 125 5 170 23 96 38 222 145 268 229 8 13
18 11 79 -16 120 -52 188 -63 363 -59 132 4 166 8 232 30 94 31 211 102 265
161 41 45 128 169 156 223 16 30 18 31 109 38 104 7 165 21 254 59 107 45 187
98 260 171 109 110 172 232 269 521 94 281 127 472 147 866 26 511 -33 1023
-158 1356 -183 489 -542 849 -965 969 -84 24 -117 27 -299 32 l-205 5 -60 75
c-162 203 -463 255 -665 116 l-53 -36 7 52 c4 29 18 89 32 133 71 225 202 370
402 445 91 34 239 35 324 3 32 -12 60 -26 62 -29 3 -4 -12 -40 -31 -80 -28
-56 -37 -87 -41 -144 -7 -124 25 -197 113 -256 46 -31 55 -34 115 -30 75 4
107 22 142 83 20 34 23 54 23 135 0 113 -18 159 -96 244 l-49 54 32 20 c56 33
110 46 194 46 75 0 87 -3 167 -43 98 -49 150 -53 155 -13 5 30 -38 69 -124
112 -68 34 -71 35 -194 35 -138 0 -191 -13 -273 -65 l-47 -29 -32 19 c-113 65
-312 83 -453 40 -188 -58 -334 -178 -422 -346 -15 -30 -30 -54 -33 -54 -3 0
-12 44 -19 97 -17 127 -56 281 -79 313 -11 14 -30 30 -43 36 -36 17 -135 23
-207 13z m1362 -315 c43 -55 66 -109 66 -155 0 -46 -21 -99 -46 -115 -30 -20
-67 -8 -110 37 -27 28 -29 36 -29 112 0 67 4 91 24 130 14 26 30 47 38 47 7 0
32 -25 57 -56z m-1555 -1388 c24 -25 30 -97 31 -381 l0 -279 -42 41 c-68 65
-100 78 -198 78 -99 0 -148 -20 -199 -82 -91 -111 -113 -303 -46 -404 30 -46
101 -95 163 -112 23 -6 42 -14 42 -18 0 -3 -38 -11 -84 -17 -139 -18 -276 12
-383 83 -78 52 -107 101 -111 190 -5 89 14 159 71 269 133 256 484 605 652
647 38 10 86 3 104 -15z m991 -22 c71 -37 267 -208 356 -311 171 -196 256
-347 284 -504 32 -175 -102 -304 -354 -340 -57 -8 -195 3 -218 17 -5 4 13 14
40 23 115 39 176 105 193 209 25 159 -49 319 -173 372 -43 18 -65 22 -123 18
-80 -5 -119 -22 -183 -81 l-45 -42 5 310 c4 216 9 318 17 333 27 51 98 50 201
-4z m431 -1552 c-24 -124 -80 -307 -122 -401 -50 -111 -132 -222 -243 -329
-110 -105 -146 -133 -146 -110 0 7 16 82 35 167 40 178 41 191 18 191 -33 0
-238 -32 -253 -40 -12 -6 -16 -44 -20 -220 l-5 -214 -50 -14 c-27 -7 -106 -16
-175 -19 -108 -5 -136 -3 -203 16 -157 43 -301 133 -426 267 -155 166 -268
395 -320 649 -11 54 -18 101 -16 103 3 3 84 0 182 -7 98 -6 233 -11 301 -11
91 0 122 -3 122 -12 0 -7 -9 -55 -21 -106 -12 -51 -19 -95 -16 -99 12 -12 96
-23 226 -29 l134 -7 -5 125 -4 126 36 6 c81 13 76 20 83 -114 3 -66 9 -125 12
-130 12 -20 317 -2 338 19 8 8 7 37 -2 99 -8 48 -16 101 -18 117 l-5 31 199
17 c109 10 239 26 288 35 50 10 91 14 93 10 2 -4 -6 -56 -17 -116z"/>
<path d="M12182 6177 c-6 -7 -19 -42 -28 -77 -10 -36 -19 -67 -21 -69 -2 -3
-13 5 -26 17 -33 31 -72 43 -102 32 -32 -12 -42 -53 -21 -83 53 -73 52 -63 13
-106 -45 -50 -53 -75 -33 -106 25 -38 65 -33 122 15 27 22 52 40 56 40 3 0 12
-17 18 -37 20 -61 56 -103 89 -103 47 0 57 22 42 91 -6 33 -15 67 -18 75 -5
13 1 15 41 9 38 -6 51 -4 66 10 47 43 11 90 -79 104 -35 6 -65 12 -67 13 -1 2
2 38 8 80 9 61 8 81 -2 93 -15 18 -44 20 -58 2z"/>
<path d="M7385 6166 c-108 -34 -182 -95 -222 -183 -23 -49 -25 -65 -21 -151 3
-81 9 -107 33 -156 34 -72 93 -134 160 -167 45 -22 62 -24 170 -23 131 1 199
14 215 44 21 38 -4 57 -105 81 -124 29 -185 91 -185 186 0 123 79 207 263 282
43 17 33 50 -23 78 -38 19 -61 23 -145 22 -55 0 -118 -6 -140 -13z"/>
<path d="M18785 5730 c-104 -51 -103 -185 1 -235 70 -33 167 10 180 81 15 82
-17 145 -85 164 -48 13 -50 13 -96 -10z"/>
<path d="M12560 5335 c-7 -8 -15 -35 -18 -60 -2 -25 -8 -48 -12 -50 -4 -3 -24
2 -44 10 -74 31 -116 14 -116 -49 0 -24 35 -56 74 -69 6 -2 0 -19 -12 -39 -26
-42 -28 -61 -6 -82 26 -27 61 -19 108 24 l43 39 31 -44 c37 -52 73 -66 102
-40 24 22 25 53 5 101 -18 43 -14 50 25 59 29 6 60 38 60 62 0 29 -33 45 -89
41 l-56 -3 -3 45 c-2 24 -8 50 -14 57 -14 18 -63 16 -78 -2z"/>
<path d="M7096 5187 c-19 -14 -19 -59 -1 -114 7 -22 5 -23 -38 -23 -37 0 -49
-5 -66 -26 -39 -49 -4 -84 85 -84 l62 0 4 -55 c5 -60 28 -95 63 -95 39 0 57
23 63 78 2 29 7 52 11 52 3 0 20 -9 36 -20 39 -26 91 -26 105 -1 19 36 10 61
-35 110 l-45 48 25 23 c27 26 34 77 13 98 -20 20 -67 14 -117 -14 l-47 -27
-31 32 c-34 33 -59 39 -87 18z"/>
<path d="M5945 4943 c-12 -96 -35 -183 -61 -235 -56 -113 -99 -147 -208 -167
-33 -6 -62 -14 -65 -17 -9 -9 30 -34 53 -34 31 -1 107 -38 139 -68 57 -54 96
-161 112 -310 5 -41 12 -65 21 -69 8 -3 17 -3 19 -1 3 2 16 47 29 100 25 97
60 179 102 235 29 38 135 93 180 93 36 0 51 13 31 27 -6 5 -41 20 -77 34 -49
18 -80 39 -126 84 -72 71 -89 114 -107 266 -14 113 -32 140 -42 62z"/>
<path d="M13172 3570 c-127 -78 -71 -270 79 -270 75 0 115 62 106 163 -5 55
-10 65 -41 94 -43 39 -93 44 -144 13z"/>
<path d="M13790 3268 c-40 -44 -14 -108 45 -108 58 0 86 69 45 110 -26 26 -64
25 -90 -2z"/>
<path d="M13473 3095 c-73 -31 -83 -134 -19 -192 71 -66 149 -24 170 89 16 91
-60 143 -151 103z"/>
<path d="M1286 3003 c-14 -142 -40 -180 -137 -191 -39 -5 -55 -12 -57 -24 -2
-12 5 -19 25 -23 56 -12 113 -45 133 -77 17 -29 25 -56 46 -166 3 -15 11 -22
22 -20 13 3 19 19 24 71 11 92 36 140 91 166 24 12 51 21 60 21 25 0 32 22 11
37 -10 7 -35 18 -56 23 -61 17 -95 53 -107 113 -6 29 -12 72 -13 97 -2 32 -8
46 -19 48 -13 2 -18 -11 -23 -75z"/>
</g>
</svg>
