<svg xmlns="http://www.w3.org/2000/svg" version="1.0" preserveAspectRatio="xMidYMid meet" viewBox="90.27 780.81 368.57 447.08">

<g transform="translate(0.000000,2000.000000) scale(0.100000,-0.100000)" fill="#000000" stroke="none">
<path d="M2133 12158 c-71 -113 -165 -389 -197 -578 -23 -139 -39 -399 -33 -520 11 -183 55 -375 130 -566 l44 -111 -45 -122 -44 -122 -57 88 c-177 272 -324 323 -454 158 -126 -160 -211 -401 -358 -1010 -121 -499 -246 -1235 -210 -1235 7 0 48 38 92 84 91 96 147 135 236 165 90 30 126 27 219 -18 105 -51 183 -132 248 -258 27 -51 52 -93 57 -93 4 0 33 49 64 109 45 87 69 121 116 166 93 86 228 145 329 145 l47 0 23 -132 c49 -285 107 -458 179 -541 38 -43 74 -48 114 -17 37 29 92 147 122 259 13 51 26 95 28 98 2 2 11 1 19 -2 11 -4 18 -27 23 -72 15 -143 65 -272 115 -298 41 -21 64 -19 99 11 65 55 91 117 182 443 33 118 64 220 70 227 8 10 21 9 62 -3 153 -45 238 -134 318 -334 17 -44 37 -78 42 -76 6 2 27 35 46 73 68 134 146 220 243 271 48 25 63 28 154 28 96 0 103 -2 176 -38 59 -29 91 -53 137 -105 l61 -67 21 21 c33 33 41 144 36 464 -5 294 -14 387 -62 655 -70 384 -205 850 -302 1038 -76 148 -144 200 -237 183 -57 -11 -178 -98 -300 -216 l-115 -112 -17 59 c-9 32 -17 69 -17 83 0 14 23 75 51 135 60 131 93 241 124 413 20 112 23 158 23 387 -1 245 -2 267 -28 388 -15 71 -41 164 -58 207 -36 93 -140 264 -164 268 -63 13 -304 -347 -371 -553 -18 -55 -26 -70 -41 -68 -10 1 -54 7 -98 14 -88 12 -205 6 -329 -17 -43 -8 -79 -14 -80 -12 -1 2 -12 39 -25 83 -55 194 -165 402 -280 526 -89 97 -94 99 -128 47z m375 -932 c68 -36 141 -146 158 -239 l6 -38 -37 25 c-64 44 -125 31 -151 -29 -29 -70 -10 -177 41 -230 36 -39 27 -49 -28 -34 -50 14 -114 81 -151 158 -28 61 -31 74 -31 171 0 97 2 109 28 152 42 72 104 96 165 64z m763 -36 c24 -13 54 -73 62 -123 22 -139 -95 -355 -209 -386 -21 -6 -40 -8 -42 -6 -3 2 7 20 22 40 41 53 56 98 56 164 0 80 -28 116 -89 115 -22 -1 -48 -7 -56 -14 -23 -19 -19 3 10 60 30 59 79 116 120 142 33 20 96 24 126 8z m-416 -550 c34 -13 43 -39 20 -56 -38 -28 -136 -9 -143 27 -6 31 70 49 123 29z"/>
</g>
</svg>
