<svg xmlns="http://www.w3.org/2000/svg" version="1.0" preserveAspectRatio="xMidYMid meet" viewBox="575.44 653.09 873.78 675.92">

<g transform="translate(0.000000,2000.000000) scale(0.100000,-0.100000)" fill="#000000" stroke="none">
<path d="M7745 13450 c-305 -82 -616 -247 -920 -490 -154 -124 -401 -367 -507 -500 -207 -261 -409 -604 -501 -851 -41 -109 -70 -256 -61 -306 l6 -33 73 0 c91 0 180 -26 300 -88 73 -38 110 -66 197 -152 89 -87 113 -118 142 -180 57 -120 70 -186 63 -321 -8 -153 -37 -293 -98 -469 -28 -80 -53 -154 -56 -166 -5 -20 0 -21 100 -27 123 -7 191 -23 324 -77 149 -61 245 -123 348 -225 153 -151 230 -290 276 -501 18 -82 22 -142 26 -356 4 -216 8 -258 20 -262 9 -4 50 18 102 56 107 77 227 141 306 164 71 20 209 22 287 4 188 -45 330 -185 403 -400 46 -135 60 -231 105 -735 48 -535 62 -601 140 -653 50 -33 90 -29 147 17 109 86 179 195 243 381 19 52 35 97 37 99 2 3 28 -3 59 -13 45 -14 54 -21 49 -35 -13 -42 -36 -196 -47 -316 -10 -116 -9 -136 6 -189 46 -157 152 -155 302 7 79 85 138 167 353 485 101 150 220 315 263 368 282 337 554 390 864 169 97 -69 206 -207 274 -347 l59 -118 18 28 c11 15 36 66 57 114 56 127 169 331 234 421 97 135 254 269 396 338 112 55 205 73 335 66 183 -10 288 -50 475 -182 58 -42 110 -74 115 -71 4 3 11 52 14 108 15 244 84 488 189 666 48 82 189 221 268 264 117 64 186 81 313 76 126 -5 204 -27 297 -83 64 -39 172 -131 181 -153 8 -23 13 -10 53 134 134 486 154 961 60 1384 -107 479 -341 961 -639 1319 -135 162 -294 299 -367 317 l-28 6 0 -60 c0 -233 -83 -690 -165 -907 -175 -463 -600 -912 -1078 -1140 -414 -197 -853 -259 -1262 -179 -44 9 -83 18 -87 20 -4 3 20 41 52 87 113 156 229 408 296 640 66 229 102 535 83 703 -11 98 -49 253 -79 320 -24 56 -39 56 -121 3 -150 -97 -317 -263 -422 -419 -27 -41 -53 -79 -58 -84 -4 -5 -47 7 -96 27 -110 44 -217 67 -354 74 l-106 6 -6 117 c-8 142 -36 294 -78 421 -51 152 -131 299 -164 299 -19 0 -116 -110 -184 -210 -80 -117 -174 -283 -215 -378 -79 -184 -158 -452 -181 -612 -18 -130 -19 -401 -1 -535 7 -55 12 -101 11 -103 -5 -5 -204 97 -315 161 -217 127 -459 331 -621 526 -245 293 -453 719 -519 1061 -71 368 -68 580 11 945 43 196 105 353 186 476 37 56 27 69 -49 68 -35 0 -94 -9 -133 -19z m2093 -2469 c49 -25 66 -45 98 -115 21 -46 28 -79 31 -150 l5 -91 -32 37 c-65 77 -148 71 -189 -15 -32 -65 -30 -181 4 -231 l24 -36 -22 0 c-43 0 -94 46 -129 117 -32 65 -33 73 -33 183 0 105 2 120 28 175 32 69 69 112 112 131 41 18 60 17 103 -5z m792 -236 c107 -55 74 -265 -64 -409 -60 -62 -141 -106 -197 -106 -20 0 -38 3 -42 6 -3 4 16 23 42 44 92 73 129 200 77 265 -21 26 -30 30 -75 30 -28 0 -51 3 -51 6 0 21 123 131 170 153 63 30 99 32 140 11z m-551 -492 c14 -11 26 -29 26 -39 0 -43 -130 -20 -159 29 -28 46 74 53 133 10z"/>
</g>
</svg>
