<svg xmlns="http://www.w3.org/2000/svg" version="1.0" preserveAspectRatio="xMidYMid meet" viewBox="1532.03 745.65 391.97 577.17">

<g transform="translate(0.000000,2000.000000) scale(0.100000,-0.100000)" fill="#000000" stroke="none">
<path d="M16971 12524 c-50 -42 -121 -212 -121 -291 0 -28 14 -28 -286 -8 -440 30 -990 84 -1117 111 -96 20 -103 19 -116 -17 -15 -45 -14 -201 2 -223 14 -20 -15 -17 865 -80 326 -24 594 -45 597 -47 2 -3 -25 -108 -60 -234 -71 -257 -216 -655 -482 -1325 -255 -642 -283 -739 -283 -990 0 -159 14 -231 61 -320 92 -172 260 -332 474 -450 33 -19 61 -34 63 -35 1 -1 -17 -51 -42 -111 -109 -267 -140 -426 -140 -709 0 -304 25 -471 110 -726 38 -116 121 -291 141 -297 21 -6 132 108 191 198 80 121 136 237 180 373 21 65 41 118 43 119 2 0 48 -7 102 -17 76 -14 129 -16 235 -12 75 3 146 8 157 12 18 5 24 -4 49 -77 37 -107 109 -245 185 -355 63 -92 156 -193 177 -193 18 0 52 48 112 155 98 173 141 361 149 652 11 350 -42 637 -163 892 -24 52 -43 95 -42 96 2 1 52 27 111 58 268 139 400 275 473 487 27 78 27 407 0 560 -46 266 -116 531 -221 839 -118 344 -236 621 -464 1081 -104 209 -128 266 -116 268 9 2 92 -1 185 -7 92 -6 291 -11 442 -11 224 0 295 4 393 20 133 21 329 69 388 94 37 16 37 17 37 74 0 61 -20 145 -43 175 -12 18 -20 17 -162 -23 -83 -22 -184 -46 -225 -53 -95 -15 -1044 -17 -1059 -2 -6 6 -22 51 -36 100 -31 106 -77 197 -117 231 -65 54 -162 16 -211 -82 -16 -31 -40 -124 -52 -196 l-6 -38 -62 0 -62 0 -22 93 c-51 208 -136 305 -212 241z m329 -591 c-1 -5 -7 -19 -14 -32 l-13 -24 -17 24 c-23 33 -20 39 14 39 17 0 30 -3 30 -7z m55 -3557 c26 -19 13 -43 -31 -55 -43 -12 -88 -5 -106 16 -31 38 91 73 137 39z m-345 -264 c49 -37 74 -98 78 -197 5 -103 -4 -104 -37 -3 -27 80 -57 128 -93 146 -59 28 -102 -27 -135 -168 -14 -62 -18 -71 -24 -50 -12 42 -9 153 5 193 35 96 132 133 206 79z m710 0 c44 -32 70 -97 69 -177 -1 -103 -13 -125 -29 -50 -28 138 -78 202 -137 173 -39 -19 -61 -55 -93 -149 -33 -97 -46 -90 -38 22 7 95 39 157 98 187 50 26 88 24 130 -6z"/>
</g>
</svg>
