<svg xmlns="http://www.w3.org/2000/svg" version="1.0" preserveAspectRatio="xMidYMid meet" viewBox="712.28 747 544.35 524.76">

    <g transform="translate(0.000000,2000.000000) scale(0.100000,-0.100000)" fill="#000000" stroke="none">
        <path d="M9667 12510 c-87 -10 -161 -21 -165 -24 -3 -4 11 -180 31 -393 21 -212 35 -388 33 -391 -3 -3 -159 -35 -347 -73 -187 -37 -343 -70 -347 -73 -5 -6 71 -261 90 -299 7 -13 17 -16 41 -13 314 50 590 87 596 80 10 -11 58 -595 107 -1307 32 -452 35 -530 23 -538 -8 -5 -39 -9 -70 -9 -118 0 -315 -49 -439 -108 -41 -20 -79 -36 -85 -36 -8 -1 -53 319 -54 390 -1 31 2 33 132 90 72 32 136 61 140 65 10 7 -31 109 -43 109 -5 0 -63 -24 -129 -54 l-120 -54 -6 31 c-3 18 -12 88 -20 157 -9 69 -17 130 -19 136 -4 11 -100 4 -112 -9 -4 -3 3 -86 16 -183 12 -97 18 -180 13 -184 -4 -4 -66 -33 -138 -65 -71 -31 -131 -58 -132 -59 -6 -6 42 -106 50 -106 5 0 61 23 124 51 63 28 116 49 118 47 3 -2 17 -107 33 -233 l29 -230 -61 -65 c-91 -97 -173 -201 -265 -336 -155 -228 -254 -326 -364 -359 -57 -17 -147 -20 -147 -5 0 8 -68 720 -113 1180 -8 80 -12 148 -8 152 3 4 78 15 166 24 88 9 161 17 162 18 5 4 35 198 31 202 -3 2 -90 -5 -193 -16 -104 -11 -190 -19 -191 -17 -2 1 -17 128 -33 281 -17 154 -33 282 -36 285 -3 2 -46 -15 -95 -39 -78 -38 -90 -47 -90 -70 0 -14 11 -126 24 -250 14 -124 21 -228 18 -231 -4 -4 -112 -20 -241 -38 -129 -17 -236 -32 -238 -35 -5 -5 36 -159 48 -177 6 -11 48 -9 230 14 122 15 224 26 225 24 4 -4 36 -320 89 -877 19 -206 36 -386 38 -400 2 -25 1 -25 -92 -32 -116 -9 -183 -28 -284 -80 -182 -95 -307 -235 -361 -408 -31 -96 -92 -372 -108 -479 -12 -87 -4 -123 31 -136 19 -8 796 -20 2426 -40 693 -8 1626 -20 2073 -26 641 -9 816 -9 827 1 23 19 19 149 -9 286 -66 321 -95 395 -211 549 -85 112 -278 254 -414 305 -35 13 -61 28 -61 36 0 8 30 189 66 402 36 213 94 568 129 790 35 222 65 405 67 407 2 2 102 -25 222 -61 121 -35 223 -61 226 -57 12 13 71 176 66 180 -3 3 -94 31 -203 63 -283 84 -278 82 -276 105 2 11 21 146 43 300 22 154 41 307 42 340 l3 60 -85 22 c-47 11 -90 22 -96 22 -7 1 -16 -40 -23 -101 -26 -220 -81 -582 -90 -591 -5 -5 -76 9 -177 37 -249 67 -384 99 -390 94 -2 -3 3 -51 12 -107 l17 -101 51 -14 c28 -8 139 -38 246 -66 107 -29 199 -56 203 -59 9 -9 -18 -195 -108 -751 -81 -496 -142 -850 -148 -856 -7 -7 -222 45 -280 67 -27 11 -73 35 -104 55 -60 38 -222 191 -334 315 l-69 77 66 423 c36 233 68 426 70 428 2 2 90 -1 196 -7 105 -6 195 -9 200 -6 4 3 8 36 8 73 l0 68 -112 7 c-222 13 -268 18 -268 31 0 6 16 112 35 234 19 122 35 227 35 234 0 9 -24 17 -70 23 -60 8 -71 7 -74 -6 -3 -8 -21 -121 -41 -250 -20 -129 -37 -236 -39 -238 -2 -2 -75 2 -162 7 -87 6 -179 11 -205 11 l-46 0 -6 -67 c-4 -37 -4 -69 -2 -72 3 -2 90 -9 195 -16 104 -6 193 -14 196 -18 6 -5 -79 -593 -102 -709 l-5 -27 -62 50 c-102 82 -298 172 -474 218 l-41 11 -6 58 c-3 31 -10 176 -16 322 -23 593 -32 793 -55 1170 -13 217 -20 398 -17 402 4 4 141 30 305 59 l297 53 0 92 c0 50 3 133 7 184 l6 93 -64 -7 c-35 -3 -177 -25 -316 -48 -138 -24 -254 -40 -256 -38 -3 3 -12 151 -21 330 -9 179 -19 346 -22 373 l-6 47 -51 -1 c-29 -1 -123 -9 -210 -19z"/>
    </g>
</svg>
