<svg xmlns="http://www.w3.org/2000/svg" version="1.0" preserveAspectRatio="xMidYMid meet" viewBox="777 1413.43 390.55 515.78">

    <g transform="translate(0.000000,2000.000000) scale(0.100000,-0.100000)" fill="#000000" stroke="none">
        <path d="M9533 5861 c-92 -12 -93 -13 -93 -156 0 -107 -4 -135 -31 -226 -45 -155 -98 -256 -183 -346 -80 -86 -145 -132 -244 -171 -63 -25 -80 -27 -267 -32 l-200 -5 -18 -100 c-14 -83 -17 -140 -13 -335 3 -151 9 -253 18 -285 l13 -50 96 -3 97 -3 7 -92 c10 -135 34 -313 51 -382 38 -152 134 -332 207 -388 28 -21 54 -35 135 -73 1 -1 12 -34 23 -74 59 -213 163 -339 314 -381 l60 -16 0 -179 c-1 -177 -1 -181 -37 -299 -89 -292 -216 -548 -356 -713 -35 -42 -65 -63 -144 -103 -55 -28 -104 -49 -110 -47 -26 9 -98 234 -98 307 0 31 11 48 66 111 92 105 97 117 89 210 -7 76 -6 78 24 112 40 46 40 79 1 112 -58 49 -137 46 -197 -7 l-35 -31 3 -105 4 -105 -43 -24 c-37 -21 -47 -22 -71 -12 -44 18 -73 54 -82 105 -12 65 -14 264 -2 276 5 5 38 14 74 20 81 14 109 31 109 67 0 38 -45 100 -78 109 -15 3 -74 -1 -132 -11 -120 -20 -136 -31 -177 -115 -37 -74 -35 -140 12 -381 l5 -25 -14 25 c-8 14 -31 72 -52 130 -35 98 -38 112 -37 213 l1 108 -26 10 c-15 6 -47 8 -71 4 -55 -8 -97 -48 -107 -101 -11 -61 30 -209 97 -344 31 -64 60 -127 64 -140 7 -25 7 -25 -25 5 -18 17 -65 67 -106 113 l-73 83 2 99 c2 116 -6 131 -86 152 -44 11 -49 11 -68 -9 -21 -20 -59 -151 -59 -201 0 -40 61 -180 97 -221 19 -22 71 -67 116 -100 45 -32 91 -68 101 -80 19 -21 19 -21 -5 -21 -13 0 -53 15 -89 33 -49 24 -70 41 -85 70 -21 39 -64 61 -107 55 -29 -4 -34 -40 -18 -122 14 -72 56 -134 110 -165 21 -11 95 -39 164 -61 72 -23 137 -51 155 -65 38 -33 86 -106 171 -261 l69 -126 -71 -82 c-82 -94 -188 -250 -188 -277 0 -10 4 -20 9 -23 11 -7 3469 -12 3476 -4 9 9 -104 193 -172 277 -81 102 -207 220 -324 304 -129 92 -356 205 -522 258 l-136 44 -32 70 c-91 199 -125 280 -170 414 l-50 146 -6 299 -6 299 34 -25 c61 -46 95 -58 162 -58 197 0 345 215 426 619 41 203 75 509 84 751 l2 65 135 5 135 5 13 28 c34 71 23 493 -17 661 -10 42 -20 78 -22 80 -2 2 -65 8 -139 13 -125 9 -141 12 -214 46 -233 109 -470 316 -598 522 -42 69 -43 72 -48 177 -3 59 -10 112 -15 117 -6 6 -33 16 -60 22 -61 13 -516 20 -602 10z m720 -378 c105 -170 330 -366 551 -481 l71 -37 -168 -3 c-155 -2 -172 -1 -201 18 -85 52 -174 181 -246 354 -36 84 -64 206 -48 206 3 0 21 -26 41 -57z m-841 -173 c-42 -164 -85 -269 -133 -324 l-41 -46 -106 0 -107 0 62 35 c80 46 162 121 220 203 45 62 121 226 124 267 l2 20 4 -20 c2 -11 -9 -72 -25 -135z m920 -191 c19 -30 57 -77 85 -106 l50 -51 -113 -7 c-62 -4 -118 -4 -123 0 -7 4 -11 72 -11 193 l1 187 38 -81 c21 -44 54 -105 73 -135z m-877 -166 c-3 -9 -30 -13 -86 -13 l-81 0 16 23 c34 46 96 187 118 268 l23 84 8 -175 c4 -96 5 -181 2 -187z m1475 -880 c-1 -225 -55 -627 -115 -853 -57 -211 -176 -396 -281 -436 -90 -34 -198 -1 -258 79 -19 25 -21 45 -24 225 l-4 197 36 19 c83 44 155 147 195 282 19 60 26 72 57 89 37 20 88 82 123 152 26 51 67 194 81 276 5 33 15 64 22 69 7 4 48 8 91 8 l77 0 0 -107z m-430 -40 c0 -161 -21 -341 -41 -354 -31 -20 -138 18 -191 69 l-28 26 0 198 0 198 130 0 130 0 0 -137z m216 100 c-19 -105 -60 -243 -88 -295 -35 -66 -102 -147 -113 -136 -4 4 -2 58 4 120 6 63 11 167 11 231 l0 117 96 0 96 0 -6 -37z m-1242 5 c3 -13 6 -52 6 -87 0 -60 -2 -65 -38 -101 -47 -48 -132 -75 -200 -65 -59 8 -143 34 -159 49 -6 6 -14 57 -18 113 -6 93 -6 102 11 106 11 3 103 5 205 6 186 1 187 1 193 -21z m-585 -54 c20 -38 60 -91 96 -127 l63 -62 12 -200 c6 -110 18 -252 25 -315 7 -63 11 -117 8 -120 -10 -10 -97 47 -133 87 -52 60 -124 201 -153 304 -25 86 -51 256 -63 412 l-7 87 59 0 59 0 34 -66z m146 -25 c4 -49 4 -93 0 -97 -10 -10 -89 83 -120 141 l-26 47 69 0 70 0 7 -91z m448 -296 c4 -87 7 -203 7 -258 l0 -100 -44 -50 c-54 -62 -127 -103 -205 -116 -94 -15 -106 -6 -120 87 -15 100 -46 553 -38 560 3 3 30 -2 59 -12 98 -32 234 -20 298 27 14 10 28 19 31 19 3 0 9 -71 12 -157z m911 -112 c31 -4 59 -10 62 -14 8 -8 -22 -99 -53 -161 -28 -54 -114 -146 -138 -146 -12 0 -15 12 -15 58 0 33 -3 121 -7 196 l-6 137 50 -31 c32 -20 71 -34 107 -39z m-894 -583 c4 -150 4 -277 -1 -282 -4 -5 -33 0 -64 10 -63 19 -150 90 -191 156 -27 42 -78 166 -88 214 l-7 31 80 10 c95 13 153 38 212 96 24 23 46 41 47 40 2 -1 7 -124 12 -275z m-16 -923 c-32 -150 -98 -351 -156 -476 l-45 -95 -71 -26 c-40 -14 -72 -24 -72 -22 0 1 27 40 60 86 82 112 208 369 261 528 23 71 44 129 45 127 2 -1 -9 -56 -22 -122z m45 -377 c1 -122 -1 -137 -16 -142 -49 -13 -175 -38 -178 -34 -3 2 9 33 26 69 39 83 111 291 135 394 l19 80 6 -115 c4 -63 7 -177 8 -252z m889 -26 c33 -73 56 -132 50 -132 -6 0 -49 7 -98 16 l-87 16 -6 112 c-4 61 -7 167 -6 236 l0 125 44 -121 c23 -66 70 -180 103 -252z"/>
    </g>
</svg>
