<svg xmlns="http://www.w3.org/2000/svg" version="1.0" preserveAspectRatio="xMidYMid meet" viewBox="193.9 761.98 301.1 525.22">

    <g transform="translate(0.000000,2000.000000) scale(0.100000,-0.100000)" fill="#000000" stroke="none">
        <path d="M3056 12371 c-7 -11 14 -71 48 -139 24 -47 26 -61 26 -176 l0 -125 -107 6 c-60 3 -147 16 -196 28 -48 12 -90 19 -92 14 -11 -17 32 -429 46 -443 5 -6 35 1 76 17 61 24 77 26 153 21 129 -8 128 -8 134 -57 3 -23 7 -185 8 -360 l3 -318 -322 7 -323 7 0 -39 c1 -21 9 -111 19 -199 10 -88 16 -162 14 -165 -2 -2 -69 -7 -148 -10 -99 -3 -148 -9 -157 -18 -14 -14 -14 -272 2 -1977 4 -473 5 -862 3 -865 -3 -3 -72 -7 -154 -8 l-150 -4 7 -201 c4 -111 8 -204 10 -206 2 -3 374 -8 827 -12 452 -4 1122 -10 1488 -14 l666 -7 6 69 c4 37 7 137 7 221 l0 152 -154 0 -154 0 -6 233 c-3 127 -8 540 -11 917 -11 1449 -17 1760 -33 1776 -13 13 -44 14 -215 8 l-200 -7 7 160 7 160 -303 8 c-167 4 -304 8 -305 9 -1 1 -7 134 -12 296 -6 162 -13 321 -16 353 l-5 57 98 0 c66 0 123 -6 173 -20 41 -11 87 -20 103 -20 l28 0 -6 68 c-3 37 -8 121 -11 187 -8 175 -12 195 -38 195 -12 0 -46 -9 -75 -20 -54 -21 -146 -26 -235 -14 l-45 6 -7 132 -7 131 36 87 c20 48 36 92 36 97 0 14 -536 15 -544 2z m75 -1792 c20 -10 69 -91 69 -113 0 -8 -16 -27 -35 -42 l-35 -27 35 -42 c19 -24 35 -48 35 -53 0 -7 -42 -32 -55 -32 -2 0 -16 23 -31 50 -18 34 -34 50 -47 50 -18 0 -19 -5 -14 -45 6 -42 5 -45 -18 -51 -44 -11 -58 2 -51 44 3 20 6 90 6 154 l0 118 63 -2 c34 0 69 -5 78 -9z m274 -149 l0 -160 -37 0 -38 0 0 160 0 160 38 0 38 0 -1 -160z m323 125 c83 -70 52 -181 -56 -198 -41 -7 -42 -8 -42 -47 0 -39 -1 -40 -35 -40 l-35 0 0 94 c0 51 -3 121 -6 155 l-7 61 76 0 c66 0 79 -3 105 -25z m-443 -255 c0 -30 -35 -40 -55 -15 -10 12 -10 18 0 30 20 25 55 15 55 -15z m224 12 c12 -22 -3 -42 -31 -42 -21 0 -33 22 -24 45 8 21 43 19 55 -3z m351 3 c10 -12 10 -18 0 -30 -27 -32 -71 -8 -56 30 3 8 14 15 24 15 11 0 25 -7 32 -15z m-213 -318 c369 -7 673 -14 676 -17 6 -6 45 -2162 39 -2172 -2 -5 -407 -8 -901 -8 l-899 0 -6 178 c-4 97 -15 546 -26 997 -11 451 -21 868 -24 928 l-4 107 237 -1 c130 0 538 -6 908 -12z m453 -2376 l395 -6 3 -29 4 -28 -639 6 c-1244 12 -1474 17 -1480 32 -16 43 -31 43 664 37 362 -3 836 -8 1053 -12z"/>
        <path d="M3066 10538 c-10 -32 -15 -108 -7 -112 17 -11 61 35 61 63 0 39 -45 79 -54 49z"/>
        <path d="M3630 10470 c0 -79 8 -85 52 -43 34 33 35 52 3 87 -42 46 -55 36 -55 -44z"/>
        <path d="M2550 9949 c0 -13 11 -456 25 -984 14 -528 25 -995 25 -1037 l0 -78 860 0 860 0 0 48 c-2 238 -39 2034 -42 2037 -2 2 -273 8 -603 14 -330 6 -718 13 -862 17 l-263 6 0 -23z"/>
    </g>
</svg>
