<svg xmlns="http://www.w3.org/2000/svg" version="1.0" preserveAspectRatio="xMidYMid meet" viewBox="1468.02 87.39 331.87 555.56">

    <g transform="translate(0.000000,2000.000000) scale(0.100000,-0.100000)" fill="#000000" stroke="none">

        <path d="M16175 19114 c-302 -8 -573 -16 -601 -20 l-52 -5 -163 -357 c-89 -196 -274 -602 -412 -902 -137 -300 -256 -562 -263 -584 -15 -42 -15 -42 602 -2111 57 -192 184 -620 282 -949 134 -449 184 -603 198 -612 15 -10 161 0 774 52 415 35 766 67 780 72 21 6 27 17 38 72 19 97 566 3074 607 3304 36 206 41 255 26 272 -5 5 -192 335 -416 734 -225 399 -450 797 -500 885 l-92 160 -129 1 c-71 1 -376 -5 -679 -12z m682 -286 c12 -13 211 -372 444 -798 l423 -775 -23 -135 c-12 -74 -80 -452 -151 -840 -316 -1732 -421 -2304 -426 -2327 -4 -13 -16 -28 -28 -33 -40 -15 -1081 -76 -1123 -66 -12 4 -29 16 -37 29 -8 12 -118 382 -245 822 -126 440 -317 1104 -424 1475 -247 856 -285 990 -293 1037 -5 32 3 56 49 153 130 274 574 1195 628 1301 58 113 60 117 97 122 37 7 459 30 797 46 300 13 289 14 312 -11z"/>
        <path d="M16580 18770 c-63 -4 -261 -13 -440 -19 -179 -7 -339 -14 -356 -17 -28 -4 -35 -13 -74 -97 -24 -50 -169 -355 -323 -677 -154 -322 -295 -618 -312 -658 l-33 -73 30 -97 c16 -53 177 -612 358 -1242 181 -630 382 -1329 448 -1555 l118 -410 65 1 c77 1 789 42 909 52 l85 7 7 40 c32 180 552 3023 567 3100 13 68 16 107 10 124 -5 13 -194 363 -420 777 l-411 754 -56 -2 c-32 0 -109 -4 -172 -8z m-160 -782 c4 -33 40 -520 40 -535 l0 -23 255 0 255 0 0 -59 0 -58 -52 -7 c-29 -3 -139 -6 -245 -6 -105 0 -194 -3 -196 -7 -3 -5 15 -280 39 -613 24 -333 42 -611 39 -617 -5 -15 -111 -18 -119 -4 -3 4 -24 260 -46 567 -22 308 -42 583 -46 611 l-5 53 -257 2 -257 3 -3 57 -3 57 33 5 c18 3 131 7 250 8 119 2 219 6 223 10 6 5 -17 384 -30 500 -5 42 -4 47 17 51 26 5 108 8 108 5z"/>
    </g>
</svg>
