<svg xmlns="http://www.w3.org/2000/svg" version="1.0" preserveAspectRatio="xMidYMid meet" viewBox="721.19 68 528.81 562">

    <g transform="translate(0.000000,2000.000000) scale(0.100000,-0.100000)" fill="#000000" stroke="none">
        <path d="M11290 19306 c-14 -8 -74 -31 -135 -51 -99 -34 -121 -38 -220 -39 -87 -1 -128 4 -198 23 -48 13 -91 21 -95 17 -3 -4 2 -22 12 -39 119 -199 144 -291 110 -406 -8 -30 -12 -57 -7 -61 4 -5 44 -10 89 -12 96 -4 143 -29 192 -103 41 -61 50 -122 28 -190 -9 -28 -16 -54 -16 -57 0 -3 23 -8 50 -12 62 -8 110 -48 147 -120 26 -51 27 -64 11 -216 -4 -31 6 -30 92 6 157 67 258 34 346 -112 11 -18 14 -18 62 9 39 21 63 27 108 27 99 -1 166 -45 225 -149 24 -43 42 -50 73 -26 27 21 82 19 159 -5 54 -17 73 -29 110 -70 46 -51 67 -62 67 -35 0 9 -12 82 -26 163 -29 166 -28 236 7 406 11 54 16 103 11 108 -4 4 -46 -2 -92 -13 -172 -44 -341 -10 -429 86 -53 58 -79 111 -106 219 l-22 91 -95 -4 c-145 -5 -194 12 -283 102 -55 55 -77 86 -94 131 -36 97 -39 242 -6 329 6 14 2 17 -21 17 -16 -1 -40 -7 -54 -14z"/>
        <path d="M9496 16973 c-3 -16 -8 -58 -12 -95 -7 -78 3 -86 54 -43 45 37 57 76 38 114 -28 53 -71 66 -80 24z"/>
        <path d="M10350 16880 c0 -103 1 -110 20 -110 26 0 99 66 106 96 11 44 -57 124 -106 124 -19 0 -20 -6 -20 -110z"/>
        <path d="M9630 18184 c-295 -37 -578 -161 -710 -311 -101 -115 -176 -278 -214 -463 -41 -205 -67 -583 -91 -1355 -9 -269 -22 -691 -30 -937 -8 -247 -15 -482 -15 -523 l0 -75 -125 0 c-147 0 -145 1 -145 -112 0 -40 -3 -110 -7 -155 l-6 -83 -173 0 c-96 0 -175 -1 -176 -2 -1 -2 -4 -105 -7 -229 l-6 -227 50 -6 c28 -3 967 -6 2087 -6 l2038 0 6 26 c4 14 5 109 2 210 -4 160 -7 186 -23 204 -17 19 -30 20 -206 20 l-188 0 -5 33 c-3 17 -7 100 -9 184 -3 83 -8 156 -11 162 -5 7 -60 11 -161 11 l-153 0 -6 93 c-3 50 -10 391 -16 757 -13 818 -30 1189 -70 1507 -59 463 -185 796 -356 939 -204 170 -426 277 -664 319 -92 16 -523 30 -610 19z m-24 -1138 c33 -23 94 -131 94 -165 0 -25 -9 -38 -49 -68 -28 -21 -50 -40 -50 -43 0 -3 24 -36 55 -73 30 -37 53 -71 50 -75 -10 -16 -76 -44 -90 -39 -8 3 -24 27 -35 52 -33 74 -58 104 -82 98 -20 -6 -21 -11 -16 -74 l6 -68 -35 -7 c-18 -3 -44 -4 -57 0 l-23 5 4 223 c2 123 5 229 7 236 6 18 194 17 221 -2z m414 -56 c-3 -36 -5 -117 -5 -180 0 -63 2 -140 5 -170 l5 -55 -60 0 -59 0 -3 212 c-1 117 -4 217 -7 222 -4 5 -3 17 0 26 5 13 18 15 68 13 l61 -3 -5 -65z m465 43 c53 -30 95 -102 95 -164 0 -81 -72 -149 -172 -163 l-47 -7 -3 -57 -3 -57 -52 0 -53 0 -5 197 c-2 108 -7 209 -11 223 -12 48 -5 50 117 45 63 -3 123 -11 134 -17z m-655 -383 c25 -25 25 -35 -1 -61 -22 -22 -55 -19 -76 9 -17 21 -16 37 3 56 21 22 50 20 74 -4z m334 4 c22 -21 20 -47 -5 -70 -19 -17 -23 -17 -47 -3 -33 18 -41 58 -16 76 24 17 49 16 68 -3z m536 -4 c11 -11 20 -24 20 -30 0 -14 -38 -50 -53 -50 -22 0 -57 30 -57 50 0 24 26 50 51 50 10 0 28 -9 39 -20z m382 -2094 l3 -54 -310 -7 c-539 -12 -1960 -23 -1968 -15 -5 4 -7 27 -5 51 l3 44 230 7 c240 8 1276 23 1762 26 l281 2 4 -54z m378 -395 l0 -49 -792 -7 c-436 -3 -1101 -3 -1478 2 l-685 8 -3 42 -3 43 288 3 c158 1 825 3 1481 5 l1192 2 0 -49z"/>
        <path d="M8186 18832 c-2 -4 13 -45 35 -91 32 -69 39 -94 39 -145 0 -167 -152 -314 -335 -324 -72 -5 -85 -12 -85 -48 0 -11 -14 -48 -30 -82 -39 -77 -127 -160 -196 -185 -69 -24 -194 -23 -269 3 -65 22 -95 25 -95 9 0 -6 7 -39 16 -73 31 -116 8 -324 -52 -480 -11 -29 23 -17 71 24 78 67 118 70 237 16 63 -28 63 -28 92 41 10 22 35 57 55 76 64 63 123 72 209 32 30 -14 58 -25 62 -25 4 0 25 18 47 39 79 80 217 77 331 -5 22 -16 23 -16 29 5 3 12 16 27 29 32 29 10 30 24 4 84 -25 59 -25 105 -1 153 24 47 56 77 105 97 32 14 37 20 31 38 -3 12 -9 52 -12 89 -7 81 5 115 57 162 31 28 49 35 99 41 33 4 63 10 65 13 2 4 -3 43 -12 86 -13 67 -13 89 -3 140 16 79 33 111 88 168 70 72 53 79 -87 36 -121 -37 -283 -22 -420 39 -85 38 -99 43 -104 35z"/>
    </g>
</svg>
