<svg xmlns="http://www.w3.org/2000/svg" version="1.0" preserveAspectRatio="xMidYMid meet" viewBox="88.42 1454.12 516.3 479.88">

    <g transform="translate(0.000000,2000.000000) scale(0.100000,-0.100000)" fill="#000000" stroke="none">
        <path d="M3100 5445 c-376 -60 -639 -247 -755 -537 -47 -118 -99 -320 -120 -471 -15 -100 -17 -169 -12 -430 3 -178 12 -377 22 -462 32 -297 74 -608 83 -617 6 -6 49 -25 97 -43 l86 -32 -67 -48 c-102 -73 -106 -79 -100 -131 4 -24 8 -63 11 -87 l6 -43 75 -29 76 -29 -28 -24 c-103 -87 -104 -88 -104 -139 0 -26 11 -149 25 -272 14 -124 25 -235 25 -248 0 -22 -1 -22 -93 -16 -103 6 -201 -7 -271 -36 l-44 -19 -125 371 c-69 205 -127 378 -129 386 -2 9 48 51 126 107 70 51 133 97 138 102 13 13 -31 202 -48 202 -6 0 -66 -38 -134 -85 -146 -102 -157 -108 -165 -96 -3 6 -30 76 -59 158 -79 217 -117 313 -124 313 -14 0 -162 -105 -162 -115 0 -5 38 -115 85 -243 47 -128 85 -237 85 -242 0 -5 -78 -61 -172 -126 -95 -64 -175 -118 -177 -120 -5 -4 52 -88 92 -138 l23 -29 139 93 c76 51 146 95 155 97 21 6 7 42 156 -401 l124 -369 -36 -54 c-37 -56 -124 -232 -124 -251 0 -14 -21 -19 -110 -27 -160 -14 -276 -57 -422 -155 -102 -67 -172 -145 -213 -234 -31 -67 -60 -184 -48 -196 6 -6 2204 -17 3810 -19 l1213 -1 -6 48 c-21 161 -128 354 -281 505 -95 93 -160 144 -235 183 -30 15 -48 31 -48 42 1 9 22 112 49 227 l48 210 59 6 c99 10 202 52 267 109 41 36 42 36 98 10 66 -29 77 -26 100 26 32 71 90 245 86 257 -2 6 -25 18 -53 27 l-49 17 -6 74 c-11 128 -57 226 -147 312 l-40 39 34 84 c19 47 32 89 29 94 -6 9 -242 103 -286 114 -36 8 -44 -4 -66 -98 -10 -45 -24 -82 -33 -86 -8 -4 -42 -13 -75 -19 -84 -15 -152 -52 -229 -123 l-68 -61 -44 21 c-25 12 -51 22 -58 22 -15 0 -51 -92 -86 -215 -29 -101 -29 -102 35 -115 60 -12 58 -10 70 -103 10 -76 77 -197 141 -256 l56 -51 -17 -43 c-9 -23 -48 -115 -87 -205 l-70 -162 -30 47 c-44 69 -154 179 -228 228 -98 64 -268 124 -354 125 l-29 0 8 82 c4 46 24 220 46 388 35 273 141 1110 153 1217 l5 42 -57 31 c-31 17 -79 50 -106 74 l-50 43 81 31 c148 57 151 60 159 121 12 97 -3 417 -25 525 -68 330 -202 556 -419 704 -111 76 -197 124 -205 115 -12 -11 -8 -51 15 -140 l21 -86 -39 -31 c-104 -83 -99 -75 -96 -170 2 -47 0 -86 -3 -86 -7 0 -95 180 -95 195 0 7 24 30 52 51 75 56 78 70 43 213 l-28 119 -86 25 c-47 14 -113 31 -145 36 -82 15 -382 12 -486 -4z m-35 -1211 c21 -8 84 -107 91 -144 6 -28 -10 -49 -72 -94 -18 -13 -16 -17 29 -75 26 -34 47 -65 47 -71 0 -11 -52 -40 -72 -40 -7 0 -29 31 -49 68 -26 49 -41 68 -58 70 -23 4 -23 2 -20 -65 l4 -68 -50 0 -50 0 4 205 c1 113 5 208 8 213 5 9 165 10 188 1z m379 -44 c-5 -157 -4 -303 2 -339 l7 -42 -57 3 -57 3 0 205 c0 113 0 209 0 213 1 4 25 7 54 5 l52 -3 -1 -45z m433 14 c92 -69 88 -210 -8 -259 -16 -9 -49 -18 -73 -21 l-45 -7 -3 -51 -3 -51 -47 0 -47 0 -5 182 c-3 100 -8 193 -12 208 l-7 27 111 -4 c94 -2 115 -6 139 -24z m-605 -331 c22 -20 23 -31 1 -55 -21 -23 -38 -23 -63 2 -24 24 -25 34 -4 54 20 21 43 20 66 -1z m300 0 c23 -21 23 -36 -1 -57 -39 -36 -100 16 -65 55 21 23 42 24 66 2z m480 0 c22 -20 23 -31 1 -55 -21 -23 -38 -23 -63 2 -24 24 -25 34 -4 54 20 21 43 20 66 -1z m1358 -1192 c0 -23 -32 -177 -38 -183 -8 -7 -154 74 -159 89 -5 14 64 60 123 83 55 21 74 24 74 11z m338 -179 c23 -54 38 -132 25 -132 -26 0 -173 34 -173 40 0 4 18 47 41 95 l41 87 23 -22 c13 -12 32 -43 43 -68z m-2333 -97 c248 -8 473 -17 501 -21 86 -9 88 -12 82 -232 -3 -110 -10 -197 -16 -209 -7 -12 -25 -23 -44 -26 -18 -3 -265 -1 -548 4 l-515 9 -23 23 c-19 19 -24 39 -32 127 -5 58 -9 154 -10 213 0 102 1 108 23 117 31 12 73 12 582 -5z m1823 -99 c35 -8 65 -15 66 -17 2 -2 -13 -40 -33 -83 l-36 -79 -29 34 c-27 32 -53 83 -70 137 -9 27 7 28 102 8z m349 -153 c34 -20 63 -40 63 -44 0 -11 -99 -56 -139 -64 l-34 -7 6 38 c10 55 27 114 34 114 3 0 35 -17 70 -37z"/>
        <path d="M2976 4173 c-2 -10 -8 -48 -12 -85 -6 -63 -5 -68 13 -68 11 0 31 13 46 28 35 37 36 84 2 117 -29 29 -42 31 -49 8z"/>
        <path d="M3740 4080 c0 -115 8 -123 73 -69 51 42 51 84 2 134 -20 19 -45 35 -55 35 -19 0 -20 -7 -20 -100z"/>
        <path d="M2883 2283 c4 -37 9 -114 13 -169 l6 -102 192 -6 c105 -3 333 -7 507 -9 l316 -3 7 105 c3 57 6 128 6 158 l0 53 -53 0 c-65 0 -744 27 -891 36 l-109 6 6 -69z m114 -9 c8 -21 -13 -42 -28 -27 -13 13 -5 43 11 43 6 0 13 -7 17 -16z m883 -19 c13 -16 6 -35 -15 -35 -18 0 -28 17 -21 35 7 19 20 19 36 0z m-872 -178 c-4 -26 -39 -35 -56 -14 -9 10 -8 19 4 35 12 18 19 20 35 11 13 -6 19 -18 17 -32z m879 -3 c3 -8 -2 -23 -11 -32 -15 -15 -17 -15 -33 0 -13 14 -14 20 -3 32 16 20 39 20 47 0z"/>
    </g>
</svg>
