<svg xmlns="http://www.w3.org/2000/svg" version="1.0" preserveAspectRatio="xMidYMid meet" viewBox="69 1427 644.61 470.52">

<g transform="translate(0.000000,2000.000000) scale(0.100000,-0.100000)" fill="#000000" stroke="none">
<path d="M4499 5688 c-76 -50 -304 -275 -374 -370 -70 -94 -168 -252 -236 -383 -105 -199 -172 -449 -185 -683 -4 -64 -10 -125 -14 -135 -6 -20 -50 119 -141 453 -26 96 -56 195 -67 220 -74 171 -274 413 -455 549 -81 62 -306 173 -407 202 -79 22 -101 24 -325 24 -235 0 -242 -1 -340 -29 -229 -67 -539 -203 -847 -372 -195 -106 -418 -263 -418 -293 0 -11 30 -31 92 -61 108 -52 205 -138 299 -263 119 -158 144 -236 143 -442 0 -146 -8 -186 -61 -348 -14 -43 -23 -81 -20 -83 3 -3 40 0 82 7 103 16 288 6 385 -21 41 -12 111 -39 156 -61 222 -108 364 -378 364 -691 0 -31 4 -68 10 -82 9 -25 13 -26 89 -26 186 0 336 -55 444 -163 51 -51 77 -88 122 -178 61 -123 61 -123 25 -223 -39 -108 -48 -326 -18 -461 29 -133 124 -203 192 -142 14 12 71 101 127 197 56 96 103 177 105 179 4 4 74 -39 74 -46 0 -3 -45 -91 -100 -196 -55 -105 -103 -200 -106 -212 -10 -38 24 -65 99 -77 184 -30 437 85 554 252 75 109 71 106 163 120 108 17 204 8 279 -25 69 -31 172 -132 264 -258 32 -42 63 -77 70 -77 6 0 52 18 102 39 122 54 191 71 320 78 98 5 120 3 207 -20 172 -46 292 -120 424 -259 50 -54 85 -104 128 -185 32 -62 65 -114 73 -118 9 -3 64 26 137 72 217 138 384 203 578 225 173 19 326 -16 485 -112 36 -21 71 -36 78 -34 16 6 35 88 62 254 26 162 25 641 0 814 -62 415 -250 856 -455 1068 -112 117 -257 205 -412 251 -128 39 -190 47 -353 47 -238 0 -424 -35 -672 -125 -131 -48 -350 -108 -369 -102 -5 2 28 28 75 58 115 76 222 164 302 249 234 248 445 648 511 972 25 119 18 409 -9 437 -12 11 -156 -44 -245 -94 -129 -73 -228 -143 -315 -227 l-74 -70 -65 46 c-79 57 -182 105 -301 141 -49 16 -94 31 -98 35 -5 4 -1 47 8 96 25 132 17 468 -14 573 -24 81 -47 131 -60 131 -5 0 -37 -19 -72 -42z m-81 -948 c51 -31 82 -107 82 -200 0 -41 -5 -93 -11 -115 l-11 -40 -19 37 c-24 47 -54 68 -98 68 -71 0 -141 -125 -126 -226 3 -24 10 -46 16 -49 24 -15 6 -24 -21 -10 -155 80 -108 441 69 535 47 25 78 25 119 0z m686 -390 c112 -110 -112 -403 -310 -404 -70 -1 -90 17 -41 37 43 18 113 81 133 118 18 37 18 99 -1 126 -9 13 -34 28 -55 34 -45 14 -43 20 21 65 99 68 199 78 253 24z m-627 -298 c11 -6 27 -21 35 -34 45 -70 -66 -61 -122 9 -19 25 -20 28 -5 39 17 12 52 7 92 -14z"/>
</g>
</svg>
