<svg xmlns="http://www.w3.org/2000/svg" version="1.0" preserveAspectRatio="xMidYMid meet" viewBox="1450.5 1449 436.17 456">

<g transform="translate(0.000000,2000.000000) scale(0.100000,-0.100000)" fill="#000000" stroke="none">
<path d="M16020 5480 c-67 -94 -179 -411 -210 -595 -78 -465 -38 -807 143 -1217 l26 -58 -62 32 c-175 88 -244 133 -340 227 -120 116 -164 182 -267 393 -78 161 -186 462 -241 671 -30 117 -57 127 -107 41 -70 -122 -109 -399 -83 -589 6 -47 3 -58 -65 -200 -129 -272 -199 -480 -254 -755 -48 -239 -55 -329 -55 -675 0 -258 4 -342 18 -433 34 -215 92 -395 187 -584 62 -122 164 -291 180 -296 8 -3 10 31 5 134 -4 77 -8 145 -11 152 -6 19 15 251 24 268 5 10 27 -25 69 -113 88 -183 224 -381 256 -370 8 2 12 68 13 203 0 143 5 214 16 254 l15 55 12 -45 c37 -131 119 -278 204 -367 90 -94 92 -92 101 97 8 182 42 285 122 370 53 57 82 63 119 26 29 -29 71 -112 118 -236 50 -130 115 -214 215 -280 42 -27 82 -54 88 -59 5 -4 20 -89 33 -187 38 -303 40 -312 68 -334 31 -24 116 -27 168 -6 61 26 67 52 63 277 l-3 199 96 0 97 0 6 -208 c10 -287 24 -322 135 -322 69 0 136 31 157 72 13 24 18 84 24 277 4 135 10 253 14 261 4 8 25 27 46 42 56 39 118 128 202 289 54 105 84 151 121 186 42 40 52 44 80 39 45 -9 94 -61 118 -125 19 -51 21 -71 17 -239 -3 -101 -1 -185 4 -188 17 -11 58 27 129 118 74 97 140 217 179 328 13 36 26 68 30 73 11 13 59 -94 71 -158 11 -57 8 -205 -7 -348 -6 -51 -4 -57 12 -57 39 0 203 208 252 322 11 25 28 72 37 104 l17 59 15 -35 c31 -75 64 -229 69 -325 7 -131 8 -134 40 -104 53 49 185 370 243 589 69 261 89 469 72 740 -18 273 -52 465 -132 750 -57 202 -99 312 -188 485 l-76 150 -1 170 c-1 189 -14 291 -51 404 -49 152 -109 251 -152 251 -24 0 -25 -6 -41 -209 -13 -164 -40 -282 -101 -434 -51 -129 -89 -200 -194 -357 -99 -149 -197 -257 -307 -340 -76 -58 -235 -146 -244 -137 -3 2 18 48 45 100 134 262 191 525 191 884 0 286 -31 469 -106 632 -50 109 -122 221 -142 221 -25 0 -129 -114 -197 -215 -69 -104 -158 -275 -182 -353 -17 -54 -17 -54 -53 -48 -105 17 -269 18 -374 1 -112 -17 -125 -15 -126 22 0 7 -14 57 -31 110 -58 181 -177 389 -285 497 -31 31 -60 56 -64 56 -5 0 -18 -13 -30 -30z m353 -944 c69 -29 142 -140 164 -250 l6 -30 -29 22 c-95 67 -174 22 -174 -98 0 -76 15 -124 52 -160 17 -17 28 -33 25 -36 -3 -3 -22 -2 -43 2 -55 10 -134 92 -164 169 -44 116 -36 277 18 340 45 54 87 66 145 41z m773 -51 c56 -35 72 -174 34 -283 -42 -118 -141 -222 -213 -222 l-29 0 28 33 c43 51 64 106 64 170 0 51 -4 62 -29 88 -31 31 -67 37 -103 18 -32 -17 -32 -4 2 59 38 72 94 129 146 147 41 15 65 12 100 -10z m-405 -554 c19 -15 21 -21 11 -34 -26 -31 -124 -25 -153 9 -11 14 -10 18 6 30 28 21 108 18 136 -5z"/>
</g>
</svg>
