<svg xmlns="http://www.w3.org/2000/svg" version="1.0" preserveAspectRatio="xMidYMid meet" viewBox="65 150 716.64 418.87">

<g transform="translate(0.000000,2000.000000) scale(0.100000,-0.100000)" fill="#000000" stroke="none">
<path d="M4745 18388 c-129 -151 -235 -312 -327 -493 -179 -353 -254 -590 -274 -857 l-7 -97 -76 -8 c-156 -17 -301 3 -525 71 -119 37 -385 173 -486 250 -109 82 -345 324 -436 446 -131 177 -190 295 -245 494 l-31 115 -52 27 c-45 24 -62 28 -141 28 -142 -1 -455 -69 -685 -150 -141 -49 -331 -140 -432 -207 -173 -113 -378 -326 -378 -391 0 -35 34 -51 182 -81 163 -35 231 -67 312 -150 167 -169 219 -426 136 -680 -18 -55 -52 -142 -76 -194 -24 -52 -44 -100 -44 -107 0 -10 46 -12 233 -7 201 5 241 3 301 -12 163 -41 302 -120 404 -229 107 -115 145 -229 146 -436 1 -121 -2 -143 -26 -218 -16 -46 -28 -90 -28 -98 0 -28 35 -13 129 59 178 134 345 204 550 227 154 18 338 -8 473 -68 97 -42 173 -142 185 -240 12 -103 -111 -382 -297 -672 -158 -247 -175 -291 -114 -306 51 -13 214 36 357 107 158 78 270 160 401 293 78 80 116 113 111 96 -12 -40 -69 -148 -128 -246 -121 -198 -156 -293 -122 -327 24 -25 55 -21 174 18 180 61 479 220 648 347 135 100 250 208 453 424 294 312 420 419 585 499 133 65 232 87 363 83 97 -3 114 -6 177 -36 38 -18 78 -41 88 -50 23 -20 24 -17 68 93 90 226 236 470 325 543 118 98 308 96 504 -3 27 -14 56 -25 63 -25 11 0 17 29 24 115 9 93 17 127 41 180 60 126 176 218 277 219 50 0 136 -34 238 -95 58 -35 65 -19 39 88 -66 268 -295 559 -572 726 -173 104 -355 159 -533 161 l-118 1 -47 -110 c-105 -243 -189 -374 -336 -520 -151 -150 -274 -219 -412 -232 l-66 -6 36 56 c64 100 125 265 161 432 27 123 25 379 -3 512 -43 202 -122 394 -197 480 -31 35 -35 37 -50 22 -15 -15 -95 -311 -95 -351 0 -21 0 -21 -37 -7 -97 37 -236 63 -363 68 l-134 6 -13 104 c-29 230 -107 431 -168 431 -8 0 -57 -51 -110 -112z m339 -728 c45 -17 66 -65 66 -151 0 -69 -4 -84 -40 -156 -46 -92 -117 -166 -176 -182 -50 -14 -53 -8 -10 18 46 29 86 109 86 173 0 122 -72 177 -177 133 -20 -8 -38 -13 -40 -11 -11 10 113 126 164 154 62 34 86 38 127 22z m524 -215 c29 -51 26 -118 -10 -197 -40 -86 -133 -178 -180 -178 -7 0 5 11 27 24 42 25 78 79 90 133 9 42 -11 109 -38 128 -25 17 -99 20 -129 4 -36 -19 -31 -2 13 46 57 62 102 85 159 82 40 -2 47 -6 68 -42z m-454 -365 c44 -16 28 -50 -23 -50 -9 0 -26 7 -37 15 -19 15 -19 15 0 30 23 18 27 18 60 5z"/>
</g>
</svg>
