<svg xmlns="http://www.w3.org/2000/svg" version="1.0" preserveAspectRatio="xMidYMid meet" viewBox="842 1445 399 464.06">

<g transform="translate(0.000000,2000.000000) scale(0.100000,-0.100000)" fill="#000000" stroke="none">
<path d="M9323 5498 c-55 -90 -99 -197 -146 -348 -70 -224 -97 -424 -97 -705 0 -291 65 -549 214 -855 28 -58 52 -108 54 -112 2 -3 -26 -21 -61 -38 -179 -88 -376 -309 -556 -623 -198 -343 -295 -734 -308 -1233 -7 -249 -4 -274 31 -274 17 0 29 12 51 53 39 72 92 127 126 127 49 0 129 -89 143 -160 13 -61 17 -69 37 -75 31 -10 55 19 80 92 33 101 103 164 163 149 19 -5 26 -17 40 -73 26 -101 51 -153 75 -153 31 0 55 33 69 95 7 31 22 77 33 102 22 52 86 143 100 143 5 0 18 -15 30 -32 19 -31 20 -47 17 -273 -3 -236 -3 -241 21 -288 33 -68 89 -107 153 -107 113 0 186 88 238 285 l27 100 131 11 c72 7 147 15 167 18 l35 7 0 -94 c0 -53 6 -115 15 -143 19 -66 73 -127 140 -160 74 -36 164 -32 218 9 76 58 95 141 104 472 l6 230 34 47 c19 26 61 67 93 92 150 112 341 108 450 -10 49 -54 77 -57 84 -11 74 450 136 637 255 760 102 106 219 99 482 -27 102 -49 148 -57 170 -29 15 18 16 38 10 478 -5 389 20 630 110 1052 27 128 49 258 49 289 0 49 -4 59 -30 86 -26 25 -36 29 -63 24 -50 -10 -100 -51 -207 -170 -103 -114 -274 -274 -370 -346 -115 -86 -359 -212 -513 -264 -43 -15 -119 -35 -170 -46 -97 -20 -323 -37 -352 -26 -15 5 -15 8 3 33 29 41 121 228 149 302 37 99 80 287 98 432 22 167 16 505 -10 649 -22 122 -65 253 -116 349 -43 83 -104 171 -118 171 -20 0 -138 -133 -202 -229 -92 -137 -153 -259 -203 -407 -3 -7 -26 -7 -78 2 -118 21 -270 15 -452 -19 -5 -1 -14 14 -19 33 -54 197 -124 353 -229 509 -46 68 -150 181 -167 181 -4 0 -21 -24 -38 -52z m392 -963 c68 -39 119 -125 149 -248 l7 -28 -38 25 c-92 63 -173 13 -173 -106 0 -75 16 -122 54 -163 l33 -35 -36 0 c-71 0 -144 76 -193 199 -16 42 -22 78 -22 142 0 74 4 93 28 143 46 95 111 119 191 71z m785 -53 c94 -95 49 -328 -87 -453 -72 -65 -174 -87 -110 -24 39 40 61 94 65 166 4 59 2 68 -24 98 -24 29 -32 32 -68 29 -23 -3 -49 -8 -59 -13 -16 -6 -14 2 12 53 76 151 198 216 271 144z m-426 -562 c30 -30 6 -50 -59 -50 -84 0 -123 45 -61 71 30 13 98 1 120 -21z"/>
</g>
</svg>
