<svg xmlns="http://www.w3.org/2000/svg" version="1.0" preserveAspectRatio="xMidYMid meet" viewBox="807.23 120 422.71 479">

<g transform="translate(0.000000,2000.000000) scale(0.100000,-0.100000)" fill="#000000" stroke="none">
<path d="M9380 18686 l-54 -114 -45 -7 c-25 -4 -297 -5 -604 -4 l-558 4 -20 -32 c-41 -64 -33 -213 12 -213 9 0 136 13 281 30 373 42 868 71 868 52 0 -6 -33 -104 -74 -219 -88 -247 -116 -341 -195 -658 -101 -404 -160 -699 -196 -985 -33 -259 -30 -682 7 -852 8 -39 14 -48 31 -48 41 0 142 58 287 164 164 121 231 157 344 186 134 34 132 36 75 -79 -103 -209 -166 -394 -201 -596 -18 -104 -20 -147 -15 -325 6 -247 25 -385 77 -569 57 -200 151 -411 184 -411 22 0 125 110 182 196 79 119 137 239 180 371 20 65 39 120 40 122 2 2 51 -4 110 -14 105 -17 314 -17 384 0 24 6 27 3 44 -52 24 -79 113 -254 179 -356 60 -92 171 -217 193 -217 20 0 121 158 159 249 74 175 99 337 99 631 0 209 -3 251 -27 380 -40 227 -119 436 -226 606 -17 26 -29 49 -28 51 6 6 142 -44 202 -75 33 -16 127 -78 209 -136 82 -58 157 -106 167 -106 24 0 34 40 54 220 23 208 30 525 16 730 -38 571 -161 1185 -327 1618 -31 81 -58 156 -61 166 -6 18 -1 19 113 12 202 -12 398 -35 659 -78 138 -22 276 -43 308 -45 l57 -5 15 35 c19 45 19 165 1 190 -12 15 -39 17 -292 18 -153 0 -425 6 -604 12 l-325 12 -35 70 c-42 84 -67 125 -79 125 -4 0 -36 -38 -71 -85 l-63 -85 -227 0 c-214 0 -228 1 -245 20 -10 11 -23 20 -30 20 -7 0 -20 -9 -30 -20 -16 -17 -31 -20 -114 -20 -84 0 -99 3 -114 20 -9 11 -23 20 -30 20 -8 0 -22 -9 -32 -20 -17 -18 -31 -20 -176 -20 l-157 0 -65 83 c-70 89 -129 147 -151 147 -7 0 -37 -51 -66 -114z m540 -264 c0 -35 -84 -44 -121 -12 l-24 19 73 1 c39 0 72 -4 72 -8z m267 -13 c-14 -8 -22 -8 -30 0 -8 8 -3 11 19 11 25 -1 27 -2 11 -11z m453 -4 c0 -2 -17 -16 -37 -30 -55 -37 -120 -35 -158 5 l-29 30 112 0 c62 0 112 -2 112 -5z m-340 -2791 c22 -25 -17 -56 -71 -56 -78 -2 -110 34 -56 60 35 17 112 14 127 -4z m-350 -191 c65 -45 92 -116 88 -224 l-3 -74 -28 82 c-34 98 -63 144 -99 157 -59 21 -103 -31 -128 -149 -20 -90 -27 -97 -35 -31 -14 108 17 210 73 240 37 21 102 20 132 -1z m732 -9 c39 -35 58 -93 58 -179 0 -91 -13 -129 -24 -68 -31 176 -100 248 -168 176 -33 -36 -47 -63 -74 -148 l-22 -70 -7 38 c-18 93 22 213 85 255 28 19 44 23 83 19 27 -2 56 -12 69 -23z"/>
</g>
</svg>
