<svg xmlns="http://www.w3.org/2000/svg" version="1.0" preserveAspectRatio="xMidYMid meet" viewBox="1305.08 98.59 633.2 492.54">

<g transform="translate(0.000000,2000.000000) scale(0.100000,-0.100000)" fill="#000000" stroke="none">
<path d="M17450 19009 c-120 -12 -277 -44 -332 -68 -27 -11 -48 -22 -48 -25 0 -3 22 -27 49 -55 129 -132 273 -423 317 -643 24 -117 15 -318 -20 -451 -80 -308 -272 -545 -551 -679 -46 -22 -88 -37 -93 -34 -5 3 -12 83 -15 178 -4 134 -11 197 -30 278 -96 408 -357 858 -604 1044 -82 62 -208 136 -231 136 -14 0 -36 -60 -58 -155 -15 -63 -19 -121 -19 -280 0 -110 4 -225 8 -255 l9 -55 -87 -29 c-94 -32 -205 -96 -301 -174 l-62 -50 -94 91 c-146 143 -361 278 -511 322 -91 26 -91 28 -84 -138 14 -368 171 -809 398 -1117 79 -107 245 -271 377 -374 56 -44 102 -83 102 -87 0 -11 -131 -72 -210 -97 -89 -29 -142 -40 -255 -52 -226 -26 -514 50 -738 194 -75 47 -212 180 -281 270 -96 125 -182 310 -221 474 -10 39 -21 72 -25 72 -22 0 -149 -107 -261 -219 -289 -290 -463 -648 -520 -1073 -18 -132 -5 -417 25 -563 47 -225 110 -384 212 -537 62 -93 104 -138 129 -138 6 0 31 39 55 88 57 116 174 236 276 284 63 30 77 33 164 33 88 0 101 -3 162 -33 170 -84 300 -312 379 -664 12 -54 25 -98 30 -98 4 0 30 39 56 86 90 162 228 310 358 384 140 79 285 104 444 76 170 -30 275 -86 432 -234 42 -40 80 -72 83 -72 3 0 6 24 6 54 0 65 40 227 70 286 29 57 116 149 157 166 18 8 63 14 100 14 85 0 137 -24 197 -91 92 -102 155 -248 220 -509 50 -202 75 -272 115 -327 83 -115 252 -93 324 42 21 38 22 53 22 280 l0 240 28 9 c25 9 30 6 59 -29 91 -115 216 -212 322 -251 114 -41 184 -27 240 49 18 25 21 42 21 130 0 90 -4 110 -29 167 -34 79 -93 170 -193 302 -137 182 -227 344 -239 432 -8 56 17 134 54 169 51 49 108 67 213 67 142 0 215 -26 387 -137 46 -30 86 -52 89 -50 2 3 -6 38 -18 78 -15 54 -23 113 -26 218 -7 170 2 222 59 341 33 68 57 101 122 166 89 88 145 124 251 159 152 50 289 41 497 -32 71 -25 132 -43 135 -40 3 3 -15 41 -40 84 -191 332 -286 636 -257 819 41 253 245 373 551 322 49 -8 73 -8 80 -1 14 14 -57 193 -119 302 -193 336 -532 652 -877 820 -124 61 -268 114 -388 146 -155 40 -394 59 -547 44z m-1224 -1310 c53 -51 87 -140 92 -239 6 -123 -23 -207 -87 -249 l-23 -15 7 34 c40 178 -83 331 -184 228 l-31 -32 0 75 c0 121 33 198 98 231 42 21 83 10 128 -33z m-661 -308 c35 -17 82 -52 113 -83 l53 -55 -53 5 c-60 5 -101 -18 -112 -63 -21 -81 84 -224 164 -225 l25 -1 -25 -20 c-21 -18 -34 -20 -76 -16 -68 7 -126 38 -194 103 -71 67 -112 147 -118 226 -5 71 11 114 52 139 44 27 101 24 171 -10z m510 -335 c19 -14 19 -15 0 -36 -36 -41 -124 -65 -140 -39 -9 14 32 58 70 75 39 17 47 17 70 0z"/>
</g>
</svg>
