<svg xmlns="http://www.w3.org/2000/svg" version="1.0" preserveAspectRatio="xMidYMid meet" viewBox="652.11 1036.18 697.78 656.82">

    <g transform="translate(0.000000,2000.000000) scale(0.100000,-0.100000)" fill="#000000" stroke="none">
        <path d="M8597 9620 c-91 -23 -202 -73 -284 -126 -77 -51 -231 -201 -294 -285 -174 -235 -299 -561 -354 -925 l-6 -41 -82 55 c-347 234 -759 249 -972 37 -65 -65 -89 -123 -83 -199 8 -101 78 -167 243 -230 477 -181 749 -441 933 -889 28 -67 80 -219 116 -337 283 -932 710 -1664 1331 -2285 245 -246 456 -420 730 -602 660 -441 1487 -724 2110 -723 353 1 485 68 485 246 0 100 -27 165 -165 395 -106 177 -128 234 -123 315 5 78 34 118 115 161 134 71 312 108 693 143 255 23 342 39 417 75 73 36 97 77 91 158 -8 130 -113 279 -342 488 -170 155 -217 212 -224 275 -4 42 -2 47 36 83 28 27 68 49 124 70 250 93 334 175 299 291 -29 97 -175 223 -365 315 -61 30 -219 93 -351 140 -494 177 -681 255 -885 370 -200 113 -441 285 -590 422 l-54 50 63 7 c79 9 212 47 295 85 181 82 329 235 376 390 62 198 -24 345 -200 344 -36 0 -111 -12 -170 -28 -87 -22 -135 -28 -275 -32 -242 -8 -460 21 -742 98 l-112 31 -134 202 c-152 228 -254 392 -425 685 -131 223 -204 328 -307 439 -137 148 -320 268 -490 322 -102 33 -319 38 -428 10z m24 -760 c38 -21 63 -88 63 -177 1 -71 -2 -85 -21 -104 -35 -36 -69 -20 -100 47 -21 47 -25 67 -21 129 2 54 8 79 22 94 22 24 29 25 57 11z m-413 -30 c19 -36 10 -145 -15 -195 -63 -123 -146 -83 -129 62 7 57 46 147 68 156 28 12 63 1 76 -23z m290 -502 c68 -32 153 -120 190 -199 72 -151 82 -329 25 -450 -52 -111 -121 -161 -224 -160 -79 0 -138 29 -209 101 -203 206 -195 616 14 711 58 26 144 25 204 -3z"/>
    </g>
</svg>
