<svg xmlns="http://www.w3.org/2000/svg" version="1.0" preserveAspectRatio="xMidYMid meet" viewBox="1441.59 1041.35 404.28 650.49">

    <g transform="translate(0.000000,2000.000000) scale(0.100000,-0.100000)" fill="#000000" stroke="none">
        <path d="M15950 9576 c-270 -39 -499 -126 -710 -270 -108 -74 -293 -262 -369 -376 -155 -233 -251 -495 -291 -795 -16 -123 -14 -416 4 -550 51 -381 188 -754 401 -1095 87 -140 127 -259 129 -385 0 -74 -4 -99 -22 -140 -30 -65 -84 -120 -152 -154 -90 -46 -142 -55 -310 -56 -172 0 -192 -6 -209 -58 -35 -104 115 -281 274 -326 22 -6 121 -18 220 -26 201 -17 276 -28 350 -52 211 -67 325 -219 325 -433 0 -282 -76 -641 -205 -970 -89 -225 -257 -532 -390 -713 -36 -48 -65 -89 -65 -92 0 -18 342 40 569 96 589 144 1083 384 1550 750 144 114 447 417 567 569 443 559 717 1210 815 1934 26 197 36 599 20 798 -84 989 -551 1783 -1257 2136 -186 93 -413 162 -644 197 -153 23 -473 29 -600 11z m-203 -1236 c156 -94 183 -430 56 -673 -64 -121 -151 -189 -243 -189 -237 0 -307 451 -114 743 39 59 77 94 139 128 34 18 126 13 162 -9z m623 -71 c167 -94 189 -503 33 -639 -92 -81 -199 -48 -263 83 -94 192 -50 459 90 555 41 28 91 28 140 1z m-25 -978 c73 -33 105 -86 105 -169 0 -61 -34 -120 -85 -150 -52 -30 -149 -27 -192 4 -115 85 -106 249 17 312 54 27 101 28 155 3z m1061 -1138 c-28 -54 -104 -150 -147 -185 -89 -72 -192 -108 -309 -108 -183 0 -410 -90 -446 -176 -16 -39 -11 -55 33 -95 54 -51 122 -77 376 -145 194 -52 252 -73 314 -115 41 -29 83 -81 83 -104 0 -5 -8 4 -19 20 -45 75 -112 107 -341 161 -316 74 -404 107 -461 171 -57 66 -32 153 61 213 99 63 224 96 420 108 109 7 134 12 190 38 76 36 162 111 215 189 42 60 54 71 31 28z"/>
    </g>
</svg>
