<svg xmlns="http://www.w3.org/2000/svg" version="1.0" preserveAspectRatio="xMidYMid meet" viewBox="185.07 275.06 399.88 567.69">

    <g transform="translate(0.000000,2000.000000) scale(0.100000,-0.100000)" fill="#000000" stroke="none">
        <path d="M2965 17230 c-95 -25 -138 -44 -217 -96 -201 -134 -359 -413 -442 -784 -64 -289 -81 -504 -72 -955 8 -396 2 -466 -60 -717 -39 -161 -64 -244 -171 -573 -107 -331 -143 -472 -150 -586 -5 -86 -3 -102 16 -142 31 -63 72 -81 165 -74 89 7 150 29 461 162 454 194 476 200 765 200 195 -1 209 -2 294 -28 230 -71 423 -215 592 -439 223 -299 401 -755 499 -1287 29 -156 48 -203 105 -265 74 -80 156 -94 254 -45 94 46 240 226 329 404 162 325 190 715 82 1153 -44 181 -90 318 -223 668 -130 341 -163 456 -165 570 -1 68 3 89 24 130 30 59 103 107 188 125 298 61 542 181 595 293 22 46 20 108 -3 155 -45 87 -212 198 -400 265 -90 32 -273 79 -396 101 -546 99 -845 283 -960 590 -34 89 -51 175 -75 369 -25 201 -35 252 -66 348 -33 100 -84 178 -168 255 -186 170 -564 266 -801 203z m243 -670 c51 -31 76 -97 77 -200 0 -139 -55 -259 -139 -299 -55 -27 -96 -19 -136 25 -37 42 -50 90 -50 180 0 130 53 245 134 295 40 24 73 24 114 -1z m395 -57 c40 -43 57 -94 57 -174 0 -91 -16 -143 -56 -185 -37 -40 -78 -45 -118 -13 -90 71 -100 279 -17 368 39 42 95 44 134 4z m-24 -577 c49 -26 65 -94 34 -146 -34 -58 -113 -68 -165 -21 -28 25 -33 36 -33 76 0 40 5 51 33 76 37 33 85 38 131 15z"/>
    </g>
</svg>
