<svg xmlns="http://www.w3.org/2000/svg" version="1.0" preserveAspectRatio="xMidYMid meet" viewBox="1400.14 258.43 422.71 588.22">

    <g transform="translate(0.000000,2000.000000) scale(0.100000,-0.100000)" fill="#000000" stroke="none">

        <path d="M16390 17410 c-638 -89 -1122 -465 -1455 -1130 -31 -63 -58 -116 -59 -117 -2 -2 -94 89 -207 201 -210 209 -329 308 -433 357 -122 58 -190 47 -221 -36 -23 -59 -16 -239 15 -380 65 -300 230 -792 429 -1284 l51 -123 -25 -162 c-78 -517 -113 -1176 -95 -1783 14 -478 35 -735 70 -861 107 -383 333 -429 663 -134 90 82 129 102 190 102 67 0 124 -45 259 -206 140 -165 201 -222 288 -268 121 -63 217 -69 370 -20 115 36 199 94 293 203 146 168 187 195 297 194 84 0 151 -20 336 -99 202 -85 295 -108 449 -107 133 0 212 15 333 64 211 84 304 187 289 320 -8 64 -23 91 -131 233 -171 225 -321 468 -427 691 -59 125 -159 378 -179 453 -6 24 -14 50 -17 59 -5 14 0 15 42 9 90 -14 236 -8 318 13 164 43 296 142 332 251 35 105 1 171 -150 293 -99 79 -403 349 -609 540 l-79 73 12 180 c14 220 28 351 86 799 66 515 77 688 55 880 -23 199 -85 358 -189 487 -121 149 -284 249 -478 293 -81 19 -332 27 -423 15z m-689 -920 c37 -21 52 -67 47 -156 -3 -66 -10 -94 -36 -146 -80 -163 -208 -232 -283 -152 -35 37 -40 154 -10 239 56 160 191 263 282 215z m582 -280 c80 -63 45 -239 -74 -365 -81 -85 -155 -113 -218 -80 -40 20 -55 63 -49 138 10 116 99 251 200 301 62 31 106 33 141 6z m-759 -519 c58 -54 89 -74 141 -92 37 -13 75 -32 86 -42 17 -16 18 -21 5 -45 -31 -60 -111 -101 -196 -102 -71 0 -119 30 -151 97 -44 89 -27 253 26 253 9 0 49 -31 89 -69z"/>
    </g>
</svg>
