<svg xmlns="http://www.w3.org/2000/svg" version="1.0" preserveAspectRatio="xMidYMid meet" viewBox="139.19 1056.53 524.11 625.67">

    <g transform="translate(0.000000,2000.000000) scale(0.100000,-0.100000)" fill="#000000" stroke="none">

        <path d="M3795 9430 c-181 -15 -414 -64 -551 -115 -636 -239 -1052 -921 -1135 -1859 -7 -79 -10 -229 -7 -378 l5 -248 -26 7 c-14 4 -66 7 -116 6 -158 -2 -358 -78 -485 -184 -122 -101 -117 -180 13 -203 21 -4 52 -16 70 -26 22 -13 68 -23 137 -30 75 -8 116 -18 154 -37 149 -75 314 -239 441 -438 21 -33 60 -114 87 -180 379 -921 1100 -1648 2053 -2070 155 -69 408 -163 625 -233 431 -139 908 -223 1464 -257 l109 -7 -80 93 c-368 432 -681 977 -862 1504 -56 161 -116 374 -108 382 3 2 40 -1 82 -8 138 -22 338 2 436 52 41 20 69 53 69 80 0 29 -41 69 -104 101 -394 198 -577 668 -526 1354 18 242 17 658 -4 859 -84 850 -378 1415 -861 1657 -102 51 -386 145 -490 162 -121 20 -268 26 -390 16z m-78 -1061 c50 -24 95 -81 125 -159 30 -79 37 -268 13 -377 -37 -167 -136 -321 -240 -369 -161 -75 -293 41 -326 287 -34 252 99 559 273 629 40 16 110 11 155 -11z m700 -95 c46 -38 88 -112 109 -194 23 -90 15 -263 -15 -341 -77 -200 -225 -239 -338 -91 -104 136 -104 438 0 574 52 69 92 91 155 86 39 -4 61 -12 89 -34z m-378 -940 c61 -36 131 -182 146 -306 13 -100 -9 -117 -105 -83 -67 24 -117 19 -187 -17 -83 -43 -93 -35 -93 76 0 124 47 257 112 318 35 33 84 37 127 12z"/>
    </g>
</svg>
