<svg xmlns="http://www.w3.org/2000/svg" version="1.0" preserveAspectRatio="xMidYMid meet" viewBox="721.19 275.25 578.81 541.82">

    <g transform="translate(0.000000,2000.000000) scale(0.100000,-0.100000)" fill="#000000" stroke="none">

        <path d="M9315 17232 c-209 -63 -413 -254 -543 -509 -60 -117 -93 -212 -124 -353 -21 -98 -23 -127 -22 -420 0 -286 2 -325 23 -425 60 -291 28 -448 -103 -514 -45 -22 -57 -24 -264 -25 -205 -2 -222 -4 -307 -29 -315 -96 -545 -296 -667 -580 -69 -158 -89 -264 -95 -487 -8 -279 26 -492 128 -807 98 -302 162 -419 308 -564 176 -175 316 -198 378 -63 22 48 26 76 34 222 9 175 17 230 49 350 52 191 165 354 300 437 185 112 434 82 601 -72 76 -71 118 -130 262 -370 142 -236 196 -316 296 -441 276 -342 665 -590 1091 -697 298 -75 650 -74 990 1 105 24 406 117 472 147 l28 12 -78 60 c-101 79 -370 347 -456 455 -218 275 -364 559 -421 820 -25 117 -31 336 -11 450 44 250 180 523 346 691 82 83 156 131 257 165 71 24 88 26 188 22 140 -7 230 -36 485 -157 218 -105 265 -121 340 -121 140 0 199 124 200 415 0 374 -102 796 -280 1160 -88 181 -154 279 -259 388 -99 103 -194 169 -294 206 -66 24 -85 26 -217 26 -119 -1 -159 -5 -223 -23 -159 -45 -258 -102 -475 -274 -170 -134 -233 -168 -316 -168 -87 0 -152 34 -246 129 -42 42 -112 128 -157 191 -109 155 -219 284 -349 410 -176 170 -318 265 -482 323 -76 27 -103 31 -207 34 -93 2 -134 -2 -180 -15z m511 -794 c42 -33 52 -46 87 -118 27 -55 32 -79 35 -158 3 -70 0 -103 -12 -136 -79 -206 -296 -39 -296 228 0 92 13 138 51 176 38 38 92 41 135 8z m-589 -220 c44 -30 98 -109 124 -182 26 -76 28 -189 3 -241 -54 -115 -196 -62 -276 104 -27 56 -33 80 -36 157 -3 72 -1 99 13 128 33 68 101 82 172 34z m563 -692 c83 -54 125 -209 81 -299 -28 -58 -71 -82 -134 -75 -99 11 -167 106 -167 233 0 58 4 79 23 106 47 70 122 84 197 35z"/>
    </g>
</svg>
