<svg xmlns="http://www.w3.org/2000/svg" version="1.0" preserveAspectRatio="xMidYMid meet" viewBox="730.18 1364.61 514.62 555.89">

    <g transform="translate(0.000000,2000.000000) scale(0.100000,-0.100000)" fill="#000000" stroke="none">
        <path d="M9662 6349 c-77 -12 -251 -66 -273 -86 -15 -13 -10 -24 58 -126 41 -62 90 -142 109 -180 l34 -67 -62 46 c-125 92 -284 154 -443 174 -111 14 -313 -2 -365 -29 -46 -24 -49 -46 -11 -66 25 -13 63 -15 199 -14 142 2 180 -1 257 -20 141 -34 261 -98 357 -189 70 -66 158 -179 158 -202 0 -5 -36 10 -80 33 -75 38 -85 41 -187 45 -92 4 -118 1 -173 -18 -123 -41 -224 -116 -291 -215 l-24 -35 -171 0 c-192 0 -290 -14 -416 -60 -471 -172 -829 -628 -962 -1223 -58 -257 -68 -364 -73 -757 -9 -633 32 -910 192 -1325 117 -303 210 -417 430 -527 101 -51 197 -78 302 -85 l92 -6 50 -81 c112 -182 220 -276 383 -331 74 -26 100 -29 243 -33 178 -4 233 5 359 60 55 24 71 27 77 17 49 -88 136 -164 249 -218 73 -35 78 -36 190 -36 94 1 125 5 170 23 96 38 222 145 268 229 8 13 18 11 79 -16 120 -52 188 -63 363 -59 132 4 166 8 232 30 94 31 211 102 265 161 41 45 128 169 156 223 16 30 18 31 109 38 104 7 165 21 254 59 107 45 187 98 260 171 109 110 172 232 269 521 94 281 127 472 147 866 26 511 -33 1023 -158 1356 -183 489 -542 849 -965 969 -84 24 -117 27 -299 32 l-205 5 -60 75 c-162 203 -463 255 -665 116 l-53 -36 7 52 c4 29 18 89 32 133 71 225 202 370 402 445 91 34 239 35 324 3 32 -12 60 -26 62 -29 3 -4 -12 -40 -31 -80 -28 -56 -37 -87 -41 -144 -7 -124 25 -197 113 -256 46 -31 55 -34 115 -30 75 4 107 22 142 83 20 34 23 54 23 135 0 113 -18 159 -96 244 l-49 54 32 20 c56 33 110 46 194 46 75 0 87 -3 167 -43 98 -49 150 -53 155 -13 5 30 -38 69 -124 112 -68 34 -71 35 -194 35 -138 0 -191 -13 -273 -65 l-47 -29 -32 19 c-113 65 -312 83 -453 40 -188 -58 -334 -178 -422 -346 -15 -30 -30 -54 -33 -54 -3 0 -12 44 -19 97 -17 127 -56 281 -79 313 -11 14 -30 30 -43 36 -36 17 -135 23 -207 13z m1362 -315 c43 -55 66 -109 66 -155 0 -46 -21 -99 -46 -115 -30 -20 -67 -8 -110 37 -27 28 -29 36 -29 112 0 67 4 91 24 130 14 26 30 47 38 47 7 0 32 -25 57 -56z m-1555 -1388 c24 -25 30 -97 31 -381 l0 -279 -42 41 c-68 65 -100 78 -198 78 -99 0 -148 -20 -199 -82 -91 -111 -113 -303 -46 -404 30 -46 101 -95 163 -112 23 -6 42 -14 42 -18 0 -3 -38 -11 -84 -17 -139 -18 -276 12 -383 83 -78 52 -107 101 -111 190 -5 89 14 159 71 269 133 256 484 605 652 647 38 10 86 3 104 -15z m991 -22 c71 -37 267 -208 356 -311 171 -196 256 -347 284 -504 32 -175 -102 -304 -354 -340 -57 -8 -195 3 -218 17 -5 4 13 14 40 23 115 39 176 105 193 209 25 159 -49 319 -173 372 -43 18 -65 22 -123 18 -80 -5 -119 -22 -183 -81 l-45 -42 5 310 c4 216 9 318 17 333 27 51 98 50 201 -4z m431 -1552 c-24 -124 -80 -307 -122 -401 -50 -111 -132 -222 -243 -329 -110 -105 -146 -133 -146 -110 0 7 16 82 35 167 40 178 41 191 18 191 -33 0 -238 -32 -253 -40 -12 -6 -16 -44 -20 -220 l-5 -214 -50 -14 c-27 -7 -106 -16 -175 -19 -108 -5 -136 -3 -203 16 -157 43 -301 133 -426 267 -155 166 -268 395 -320 649 -11 54 -18 101 -16 103 3 3 84 0 182 -7 98 -6 233 -11 301 -11 91 0 122 -3 122 -12 0 -7 -9 -55 -21 -106 -12 -51 -19 -95 -16 -99 12 -12 96 -23 226 -29 l134 -7 -5 125 -4 126 36 6 c81 13 76 20 83 -114 3 -66 9 -125 12 -130 12 -20 317 -2 338 19 8 8 7 37 -2 99 -8 48 -16 101 -18 117 l-5 31 199 17 c109 10 239 26 288 35 50 10 91 14 93 10 2 -4 -6 -56 -17 -116z"/>
    </g>
</svg>
