<svg xmlns="http://www.w3.org/2000/svg" version="1.0" preserveAspectRatio="xMidYMid meet" viewBox="1337.89 1332.38 569.27 562.62">

    <g transform="translate(0.000000,2000.000000) scale(0.100000,-0.100000)" fill="#000000" stroke="none">
        <path d="M16053 6661 c-76 -28 -158 -86 -198 -141 -62 -84 -65 -207 -9 -309 16 -31 73 -93 149 -165 126 -119 157 -162 170 -241 7 -37 4 -35 -44 44 -142 234 -298 353 -591 449 -513 170 -994 60 -1227 -281 -28 -41 -37 -47 -67 -47 -47 0 -152 -39 -216 -80 -109 -70 -209 -216 -247 -360 -10 -40 -17 -104 -17 -165 0 -162 35 -254 210 -547 164 -273 212 -403 201 -547 -7 -92 -50 -186 -105 -229 -41 -31 -113 -75 -117 -70 -1 2 -10 28 -18 58 -36 123 -155 257 -255 286 -98 29 -196 -7 -257 -96 -41 -59 -48 -158 -16 -224 55 -113 202 -185 379 -186 34 0 62 -2 62 -3 0 -2 -9 -30 -20 -62 -27 -77 -57 -127 -124 -204 -56 -64 -70 -101 -41 -101 29 0 70 28 118 79 77 82 127 174 156 286 10 37 17 43 96 84 228 119 307 344 218 626 -32 101 -62 160 -181 360 -149 250 -202 378 -202 490 0 68 28 177 65 251 46 93 148 192 229 223 31 12 63 21 70 21 10 0 15 -24 18 -87 7 -104 32 -176 82 -238 85 -103 190 -121 278 -47 71 60 90 184 43 279 -33 65 -110 138 -180 169 -30 13 -55 28 -55 33 0 21 98 115 167 161 244 160 563 182 928 64 195 -64 355 -169 453 -300 40 -54 140 -225 160 -275 2 -4 -23 3 -55 16 -145 59 -288 36 -425 -68 l-46 -35 -43 29 c-79 52 -161 74 -279 74 -127 0 -172 -17 -256 -97 -143 -135 -202 -310 -284 -848 -88 -573 -158 -779 -441 -1290 -225 -408 -344 -726 -410 -1095 -30 -170 -31 -407 0 -520 44 -168 142 -318 274 -423 86 -69 217 -137 297 -156 94 -23 243 -21 314 4 88 30 169 77 216 125 l43 44 79 -73 c90 -83 174 -136 302 -191 119 -50 177 -65 263 -65 99 0 164 15 258 60 118 57 167 102 313 289 l18 24 52 -71 c158 -212 349 -313 565 -299 178 11 441 144 571 288 l38 41 52 -50 c51 -51 129 -96 219 -126 72 -24 236 -22 323 5 146 44 294 143 395 263 207 245 238 570 103 1084 -72 276 -163 493 -366 865 -274 503 -335 684 -429 1270 -60 381 -102 557 -159 673 -53 106 -140 203 -218 241 -52 25 -67 28 -162 28 -120 0 -190 -18 -272 -70 l-51 -33 -46 36 c-25 19 -74 48 -109 65 -56 26 -75 30 -155 30 -70 0 -105 -5 -144 -20 -29 -12 -53 -20 -53 -19 0 2 9 29 20 61 61 177 242 360 465 470 160 79 317 115 501 115 138 0 351 -55 514 -133 70 -34 101 -57 176 -132 79 -79 98 -105 143 -195 49 -101 80 -207 81 -277 0 -31 -1 -32 -32 -25 -18 4 -76 7 -128 6 -76 -1 -103 -5 -136 -22 -145 -74 -139 -241 12 -324 119 -66 256 -15 339 127 15 25 32 45 39 45 22 0 142 -107 175 -156 44 -67 64 -142 56 -207 -11 -77 -34 -130 -139 -320 -53 -95 -110 -210 -127 -257 -29 -77 -32 -96 -33 -200 -1 -135 22 -225 78 -304 97 -136 315 -197 459 -127 66 32 144 105 173 162 40 81 32 246 -16 297 -25 26 -33 27 -56 5 -14 -15 -16 -30 -10 -111 6 -84 4 -99 -15 -139 -25 -52 -95 -108 -153 -124 -89 -24 -211 14 -273 85 -68 76 -98 231 -69 345 20 79 75 197 165 354 84 148 109 210 120 296 23 186 -66 356 -248 471 l-70 45 -1 65 c-1 192 -114 437 -268 581 -81 76 -149 118 -275 170 -169 69 -272 91 -450 97 -189 5 -285 -7 -424 -53 -210 -70 -401 -194 -527 -343 l-45 -52 -24 49 c-14 26 -54 87 -90 133 -35 47 -74 111 -86 142 -40 107 -21 231 49 318 17 21 30 46 28 56 -9 50 -164 77 -255 43z m-1580 -858 c79 -55 111 -160 66 -217 -42 -54 -118 -19 -157 71 -23 54 -37 150 -27 182 6 20 8 20 43 5 20 -8 54 -27 75 -41z m3803 -405 c18 -19 -46 -107 -97 -134 -38 -19 -66 -18 -103 6 -67 41 -68 96 -3 126 32 14 189 15 203 2z m-1570 -655 c101 -34 283 -251 390 -466 72 -142 107 -258 107 -352 0 -122 -39 -194 -140 -261 -89 -59 -151 -76 -301 -83 -91 -4 -128 -3 -116 4 88 52 110 73 144 139 31 61 35 80 39 158 3 84 1 94 -28 153 -62 126 -172 190 -316 183 -97 -4 -151 -28 -232 -101 l-56 -52 7 99 c12 168 53 286 144 424 60 91 186 170 273 172 19 0 58 -8 85 -17z m-893 -327 c42 -17 113 -96 137 -151 16 -37 40 -164 40 -211 0 -11 -9 -10 -42 8 -65 33 -159 31 -221 -5 -164 -96 -145 -332 33 -423 l35 -17 -35 -10 c-53 -14 -287 -2 -340 17 -93 35 -139 118 -120 219 12 59 74 194 122 264 80 117 225 259 310 306 39 21 40 21 81 3z m-2144 -216 c68 -34 155 -150 175 -233 5 -23 3 -29 -19 -37 -90 -34 -267 24 -315 103 -38 62 -15 137 51 170 44 22 62 21 108 -3z m3851 -816 c49 -44 101 -149 125 -251 27 -112 17 -262 -24 -373 -77 -208 -230 -349 -471 -432 -87 -30 -105 -33 -220 -33 -103 0 -138 4 -200 23 -100 32 -163 67 -210 118 -62 67 -84 119 -85 196 0 80 18 111 91 148 47 24 56 25 234 25 124 0 192 4 206 12 29 17 67 75 109 168 112 243 133 282 191 344 67 73 99 90 166 91 41 0 54 -5 88 -36z"/>
    </g>
</svg>
