<svg xmlns="http://www.w3.org/2000/svg" version="1.0" preserveAspectRatio="xMidYMid meet" viewBox="105.17 1343 468.78 568.82">

    <g transform="translate(0.000000,2000.000000) scale(0.100000,-0.100000)" fill="#000000" stroke="none">
        <path d="M2786 6545 c-67 -27 -153 -83 -161 -104 -7 -18 5 -35 109 -156 55 -64 102 -131 131 -189 25 -49 44 -91 41 -93 -2 -2 -28 3 -57 11 -169 48 -432 59 -624 26 -388 -66 -654 -255 -814 -577 -92 -186 -126 -334 -118 -518 6 -140 29 -232 87 -350 37 -75 40 -87 40 -169 0 -48 14 -185 31 -304 51 -362 37 -481 -71 -587 -48 -47 -52 -49 -162 -72 -111 -23 -160 -45 -166 -76 -8 -40 167 -48 285 -12 101 30 206 155 239 285 22 85 14 262 -20 495 -14 94 -26 185 -26 203 l0 33 29 -21 c17 -11 56 -33 88 -48 51 -24 70 -27 163 -27 116 0 164 15 240 75 53 42 100 138 100 204 0 101 -70 200 -179 254 -50 24 -67 27 -161 27 -99 0 -110 -2 -172 -33 -62 -30 -111 -73 -150 -132 -21 -33 -31 -22 -57 64 -64 208 -38 433 75 658 163 325 415 488 839 544 170 23 449 2 552 -41 l35 -15 -92 -60 c-189 -125 -310 -281 -361 -467 -27 -96 -28 -255 -5 -473 26 -248 28 -300 16 -480 -23 -369 -69 -574 -180 -816 -45 -97 -85 -161 -200 -319 -230 -314 -344 -559 -411 -885 -21 -99 -24 -142 -24 -310 1 -168 4 -206 22 -272 64 -225 223 -430 432 -553 130 -77 427 -169 634 -197 93 -12 323 1 414 24 44 11 47 10 202 -66 172 -83 282 -117 456 -137 117 -14 323 -7 470 16 120 18 324 84 389 125 39 25 57 30 109 30 35 0 90 7 122 15 149 37 400 198 533 339 109 117 190 278 245 486 28 107 30 130 35 337 4 194 1 239 -18 360 -61 385 -148 679 -282 948 -66 132 -122 225 -299 496 -193 295 -222 348 -399 704 -82 165 -178 346 -214 403 -157 248 -348 470 -494 575 -257 185 -501 277 -735 277 -113 0 -112 -1 -33 80 90 91 217 140 366 140 230 0 379 -95 616 -392 206 -258 312 -356 462 -426 52 -24 68 -27 172 -27 98 0 125 4 187 27 39 14 101 46 138 72 l66 46 92 0 c106 0 270 23 322 44 39 17 55 43 34 57 -19 12 -167 11 -268 -1 -107 -14 -115 -11 -96 33 21 51 29 154 16 222 -16 83 -54 157 -115 219 -61 63 -115 93 -194 107 -86 16 -153 -2 -207 -55 -53 -54 -68 -98 -63 -190 7 -146 108 -284 265 -361 45 -22 82 -44 82 -48 1 -4 -29 -22 -66 -40 -59 -27 -81 -32 -168 -35 -100 -4 -100 -4 -180 37 -109 54 -214 154 -379 359 -147 183 -228 266 -324 331 -141 95 -251 125 -427 118 -156 -6 -263 -43 -362 -124 -44 -35 -63 -36 -63 -3 0 66 -102 300 -152 351 -27 27 -35 29 -101 29 -53 0 -88 -7 -131 -25z m2331 -464 c51 -26 119 -100 145 -159 31 -68 31 -191 0 -249 l-22 -42 -41 14 c-72 26 -161 78 -203 120 -120 120 -136 278 -35 333 31 17 106 9 156 -17z m-3197 -1352 c79 -36 120 -88 120 -154 0 -64 -50 -129 -122 -159 -52 -22 -156 -20 -218 3 -53 20 -133 79 -149 110 -12 22 15 85 60 136 72 81 209 110 309 64z m1453 -137 c108 -47 206 -177 261 -347 41 -126 71 -335 49 -335 -5 0 -20 26 -35 58 -53 113 -149 185 -248 186 -70 0 -122 -27 -182 -93 -65 -72 -93 -163 -93 -301 0 -94 3 -111 28 -165 37 -78 69 -111 142 -147 l60 -29 -60 6 c-165 16 -275 132 -354 372 -82 253 -29 594 116 738 96 97 188 113 316 57z m1082 -236 c195 -90 256 -420 115 -615 -50 -69 -146 -118 -201 -104 -17 5 -12 10 28 33 36 21 57 42 78 81 26 47 30 64 30 134 0 70 -4 87 -30 134 -38 69 -84 101 -148 101 -57 0 -112 -32 -153 -91 -39 -57 -48 -50 -40 31 16 174 125 319 241 320 17 0 53 -11 80 -24z m569 -1191 c-7 -63 -22 -177 -33 -252 -11 -76 -30 -214 -41 -308 -27 -225 -28 -235 -45 -235 -8 0 -51 25 -95 55 -44 30 -84 55 -89 55 -23 0 -40 -100 -56 -330 -9 -133 -16 -180 -26 -174 -5 3 -41 43 -79 90 -39 46 -77 84 -84 84 -18 0 -39 -55 -81 -212 -19 -72 -36 -132 -38 -134 -5 -5 -83 103 -146 204 -29 45 -56 82 -60 82 -24 0 -51 -40 -136 -201 l-53 -101 -127 182 c-71 100 -135 185 -144 188 -10 4 -30 -12 -61 -48 -25 -30 -67 -77 -93 -105 l-48 -50 -63 67 c-110 117 -225 299 -301 478 -41 95 -117 321 -111 327 2 2 32 -28 66 -66 78 -88 159 -151 193 -151 22 0 28 8 53 73 55 146 70 181 81 184 6 2 36 -32 67 -76 31 -43 76 -101 100 -128 61 -66 71 -58 121 100 22 70 43 127 46 127 3 0 36 -39 74 -86 71 -87 136 -144 166 -144 17 0 41 49 93 190 13 36 28 65 34 65 5 0 43 -42 83 -94 41 -52 82 -99 92 -105 32 -19 60 28 101 175 21 74 40 138 43 142 3 4 32 -18 66 -49 34 -32 79 -70 101 -86 36 -26 41 -27 57 -12 10 9 30 68 49 145 l32 129 40 -33 c80 -66 111 -87 130 -87 18 0 54 65 112 204 8 20 17 36 19 36 2 0 -2 -52 -9 -115z"/>
    </g>
</svg>
