<svg xmlns="http://www.w3.org/2000/svg" version="1.0" preserveAspectRatio="xMidYMid meet" viewBox="1379.16 730.06 496.24 507.84">

    <g transform="translate(0.000000,2000.000000) scale(0.100000,-0.100000)" fill="#000000" stroke="none">
        <path d="M16620 12680 c-53 -27 -210 -170 -291 -263 -177 -205 -275 -396 -316 -622 l-17 -90 -12 69 c-50 264 -182 467 -383 586 -131 78 -252 97 -404 65 -142 -30 -238 -96 -295 -203 -89 -166 -51 -353 87 -424 94 -49 187 -34 230 35 32 52 25 137 -11 137 -4 0 -16 -17 -27 -37 -29 -59 -54 -77 -96 -70 -80 13 -128 78 -127 173 1 118 94 235 217 273 156 49 260 33 399 -60 172 -115 272 -291 311 -549 19 -120 19 -190 3 -190 -7 1 -42 7 -78 15 -227 51 -623 17 -905 -78 -370 -125 -635 -377 -837 -797 -122 -253 -208 -531 -253 -820 -22 -142 -31 -514 -16 -650 63 -553 296 -1084 576 -1309 216 -173 404 -237 730 -248 158 -5 208 -2 415 23 194 23 268 28 423 25 250 -3 434 -3 657 1 154 2 225 -2 425 -26 526 -62 831 -11 1096 186 165 121 277 267 393 509 102 213 155 381 212 674 26 130 28 159 28 400 1 337 -26 535 -110 811 -172 570 -452 962 -820 1147 -265 133 -689 204 -998 166 -72 -9 -90 -8 -97 3 -23 36 4 185 56 308 139 332 478 563 708 484 26 -9 47 -19 47 -22 0 -4 -9 -22 -20 -40 -69 -112 -93 -318 -49 -409 37 -77 149 -132 241 -120 53 7 102 55 124 120 12 38 15 73 12 142 -6 101 -34 180 -99 270 l-33 45 29 30 c35 37 142 93 219 115 118 34 264 1 355 -81 46 -42 101 -132 101 -167 0 -31 71 -157 89 -157 44 0 53 60 26 165 -47 184 -171 308 -346 350 -172 40 -341 -2 -504 -125 l-65 -49 -48 24 c-233 117 -581 -33 -791 -343 -47 -70 -104 -183 -121 -239 -7 -24 -17 -43 -21 -43 -13 0 -22 129 -16 239 9 173 79 373 183 518 39 55 45 68 36 87 -24 53 -152 74 -222 36z m1044 -483 c60 -79 89 -201 67 -284 -14 -53 -39 -68 -85 -53 -97 32 -114 159 -44 322 11 27 24 48 29 48 4 0 19 -15 33 -33z m-2084 -1472 c36 -19 106 -102 160 -190 52 -84 242 -456 237 -461 -2 -3 -30 8 -63 22 -115 51 -316 124 -412 149 -51 14 -57 13 -225 -30 -94 -24 -201 -53 -237 -64 -35 -11 -66 -18 -68 -16 -23 23 418 503 532 579 46 31 40 30 76 11z m1458 -5 c43 -26 254 -231 360 -350 79 -88 186 -229 179 -236 -2 -2 -31 6 -66 16 -133 42 -379 100 -420 100 -48 0 -178 -42 -384 -125 -73 -29 -134 -51 -136 -49 -5 4 217 432 252 484 50 74 109 142 142 161 37 23 33 23 73 -1z m-2212 -1043 c115 -46 221 -90 236 -98 14 -8 72 -75 128 -149 57 -74 120 -156 142 -182 l40 -48 106 0 c131 0 491 16 705 31 135 9 161 9 180 -4 12 -8 95 -78 184 -156 89 -77 168 -141 176 -141 23 0 221 101 428 218 263 148 239 138 467 208 l203 63 72 65 c82 74 281 235 285 231 1 -1 -43 -140 -98 -309 -78 -237 -106 -309 -123 -321 -28 -18 -413 -186 -495 -215 -61 -22 -65 -27 -170 -159 -60 -75 -133 -168 -163 -207 -30 -39 -77 -96 -106 -127 l-52 -57 -385 0 -385 0 -16 23 c-8 12 -55 83 -104 157 -49 74 -100 145 -113 157 -18 16 -49 25 -138 38 -303 44 -757 146 -786 177 -13 15 -19 37 -69 273 -20 93 -41 177 -46 187 -5 9 -60 82 -122 160 -176 223 -209 268 -200 268 5 0 103 -37 219 -83z"/>
    </g>
</svg>
