<svg xmlns="http://www.w3.org/2000/svg" version="1.0" preserveAspectRatio="xMidYMid meet" viewBox="111.08 125.21 501.96 479.29">

    <g transform="translate(0.000000,2000.000000) scale(0.100000,-0.100000)" fill="#000000" stroke="none">
        <path d="M3749 18735 c-245 -60 -418 -261 -419 -486 0 -119 52 -230 201 -429 56 -74 118 -169 138 -210 33 -68 36 -83 36 -160 -1 -47 -6 -94 -12 -104 -9 -16 -12 -8 -22 50 -24 137 -94 256 -222 380 -93 89 -169 144 -274 196 -76 38 -215 88 -246 88 -11 0 -43 25 -72 56 -65 70 -114 99 -195 115 -136 26 -247 -9 -374 -118 -36 -32 -101 -89 -144 -126 -107 -93 -186 -131 -285 -135 -88 -5 -137 14 -202 77 -75 70 -93 140 -61 234 41 122 -29 147 -89 32 -33 -61 -30 -172 5 -247 69 -147 228 -228 394 -199 128 23 225 81 394 235 116 106 217 166 280 166 50 0 121 -23 161 -51 l33 -23 -63 -13 c-79 -16 -121 -36 -164 -78 -48 -46 -67 -93 -67 -162 0 -49 6 -68 33 -113 27 -46 43 -60 99 -89 134 -68 256 -30 324 101 22 43 34 133 25 184 -10 54 -8 54 86 16 209 -85 403 -244 477 -390 54 -107 73 -243 40 -290 -14 -20 -23 -22 -118 -22 -111 0 -203 14 -386 60 -312 78 -399 92 -647 97 -516 12 -738 -55 -933 -282 -167 -193 -305 -538 -355 -886 -19 -136 -19 -380 0 -512 62 -421 217 -744 476 -990 173 -165 303 -235 584 -312 205 -56 351 -67 552 -44 l96 12 20 -29 c42 -61 166 -171 238 -212 94 -53 248 -116 353 -145 68 -19 107 -22 246 -22 172 0 209 6 355 52 196 63 325 154 448 318 33 44 63 83 66 87 3 4 65 -4 136 -17 215 -40 316 -32 541 46 268 92 431 209 591 425 103 140 213 385 262 584 73 301 48 693 -64 995 -140 378 -360 615 -737 795 -222 105 -401 150 -600 150 -163 0 -251 -19 -513 -113 -38 -14 -96 -29 -127 -32 l-58 -7 44 65 c59 89 82 155 106 305 35 220 69 311 151 398 69 72 150 108 233 102 33 -2 83 -14 110 -26 l48 -22 -64 -68 c-88 -93 -112 -146 -113 -242 0 -91 20 -131 80 -160 69 -34 155 -23 222 26 78 58 114 217 74 329 -39 109 -44 98 40 93 88 -6 146 -32 232 -106 62 -53 100 -68 118 -46 24 29 -45 115 -144 178 -76 47 -195 70 -293 54 -55 -8 -68 -7 -82 6 -10 8 -44 27 -76 42 -107 49 -272 29 -381 -46 -143 -99 -220 -247 -250 -480 -22 -174 -46 -249 -95 -301 -22 -23 -42 -40 -45 -38 -2 3 2 27 10 54 40 132 3 267 -128 472 -129 202 -163 332 -117 455 40 109 119 168 221 168 72 0 165 -25 210 -55 19 -14 43 -25 52 -25 26 0 39 47 34 121 -3 51 -12 81 -42 138 -21 40 -48 79 -59 86 -51 33 -237 44 -337 20z m1024 -792 c8 -21 18 -50 21 -65 10 -45 -13 -126 -46 -164 -25 -29 -37 -34 -72 -34 -23 0 -47 5 -54 12 -17 17 -15 101 3 143 13 34 110 145 125 145 4 0 14 -17 23 -37z m-1915 -12 c25 -83 2 -176 -55 -221 -48 -38 -139 -23 -190 32 -96 103 0 225 178 227 l56 1 11 -39z m-88 -1212 c75 -34 141 -92 317 -282 108 -117 223 -227 319 -307 167 -140 180 -160 149 -218 -24 -45 -77 -75 -170 -99 -58 -15 -111 -18 -315 -18 -255 0 -327 8 -447 47 -74 24 -143 80 -175 142 -84 162 33 634 181 733 42 28 82 29 141 2z m2111 -3 c70 -48 137 -175 181 -344 17 -68 22 -115 23 -217 0 -125 -1 -132 -29 -182 -48 -86 -141 -136 -307 -165 -117 -20 -536 -17 -622 5 -91 23 -144 51 -167 90 -41 67 -25 91 178 256 57 46 158 143 225 215 197 213 293 302 360 336 73 36 111 38 158 6z m-2791 -1086 c43 -42 96 -84 119 -94 39 -18 43 -18 79 -2 20 9 59 34 87 55 l49 38 127 -128 c146 -146 238 -219 279 -219 35 0 137 66 201 130 28 28 51 50 53 50 1 0 33 -38 70 -84 76 -96 148 -164 184 -173 26 -6 56 20 157 141 l40 48 56 -78 c31 -44 79 -103 107 -133 44 -46 52 -52 70 -42 21 11 112 118 172 203 22 32 37 45 44 39 6 -5 40 -46 76 -91 36 -44 75 -83 88 -86 42 -11 116 54 247 220 l31 38 58 -56 c78 -74 157 -126 194 -126 42 0 129 68 280 220 l127 127 50 -38 c27 -21 67 -46 87 -55 36 -16 40 -16 80 2 44 20 129 98 236 218 72 81 74 77 33 -79 -42 -159 -133 -409 -202 -554 l-60 -126 -56 63 c-30 34 -59 62 -63 62 -4 0 -63 -51 -129 -114 -67 -63 -156 -138 -197 -166 -88 -61 -81 -64 -145 68 -23 47 -46 82 -55 82 -8 0 -58 -36 -112 -81 -53 -44 -154 -119 -224 -166 -100 -68 -131 -84 -151 -79 -13 3 -72 51 -130 106 -59 55 -111 100 -115 100 -21 0 -61 -42 -112 -119 -30 -44 -59 -80 -65 -80 -5 -1 -35 36 -65 80 -51 75 -92 119 -111 119 -4 0 -56 -45 -116 -100 -59 -56 -118 -103 -129 -106 -12 -3 -35 1 -51 9 -47 25 -251 174 -340 248 -45 38 -89 69 -97 69 -10 0 -31 -31 -55 -82 -63 -134 -55 -130 -145 -68 -43 29 -126 99 -185 156 -140 132 -143 133 -178 92 -16 -17 -40 -45 -54 -62 l-27 -30 -41 81 c-82 164 -180 430 -227 618 -14 55 -28 109 -31 120 -3 11 21 -9 52 -45 32 -36 93 -99 135 -140z"/>
    </g>
</svg>
