<svg xmlns="http://www.w3.org/2000/svg" version="1.0" preserveAspectRatio="xMidYMid meet" viewBox="742.6 726.88 506.6 524.87">

    <g transform="translate(0.000000,2000.000000) scale(0.100000,-0.100000)" fill="#000000" stroke="none">
        <path d="M9590 12708 c-17 -13 -39 -35 -48 -51 -16 -27 -16 -29 25 -105 58 -108 109 -243 149 -396 18 -72 32 -131 31 -132 -1 -1 -22 23 -47 54 -53 65 -129 120 -220 159 -57 24 -78 27 -175 28 -104 0 -114 -2 -175 -32 -83 -41 -171 -111 -215 -171 -35 -47 -52 -79 -184 -356 -107 -224 -170 -304 -276 -352 -50 -23 -73 -27 -145 -27 -88 0 -160 16 -160 36 0 7 7 34 15 61 23 74 20 190 -6 243 -31 64 -61 83 -128 83 -104 0 -161 -59 -161 -165 0 -74 29 -140 92 -210 l45 -50 -114 -95 c-279 -232 -393 -415 -393 -631 0 -88 11 -127 53 -186 l30 -42 -17 -105 c-20 -131 -21 -269 -3 -285 32 -26 67 62 92 228 9 58 18 107 21 110 2 3 24 4 47 2 59 -3 146 31 191 76 109 109 30 261 -116 223 -59 -16 -112 -52 -148 -101 l-30 -41 -12 28 c-7 16 -12 63 -12 104 1 85 24 161 76 249 39 65 196 226 328 337 l95 79 55 -19 c82 -28 236 -27 311 2 164 65 261 191 397 519 33 78 71 162 85 186 37 63 150 165 221 198 136 65 329 19 491 -116 l30 -25 -55 0 c-208 -1 -362 -72 -540 -250 -153 -153 -270 -349 -464 -775 -136 -298 -222 -447 -501 -865 -447 -670 -599 -946 -673 -1219 -23 -86 -26 -115 -26 -276 0 -155 2 -191 21 -260 79 -289 264 -524 509 -648 82 -41 348 -145 441 -172 46 -14 137 -29 201 -35 64 -6 194 -18 288 -26 144 -14 191 -15 290 -4 323 32 505 98 648 231 126 118 185 231 222 427 14 72 15 127 10 327 -6 272 -10 303 -71 690 -80 504 -89 587 -90 835 0 374 28 517 180 900 117 294 128 338 129 510 1 125 -2 155 -22 220 -48 151 -122 269 -203 321 -27 18 -49 33 -49 35 0 1 31 12 69 23 94 29 207 105 262 178 24 32 44 59 45 61 1 1 30 -11 64 -27 93 -44 156 -55 241 -42 98 16 169 43 240 91 l60 41 98 -66 c55 -36 118 -83 142 -104 l44 -39 -43 -46 c-53 -58 -72 -101 -72 -164 0 -131 165 -180 260 -77 21 23 25 36 25 94 0 44 -6 81 -19 110 -17 35 -17 44 -6 51 30 19 107 21 180 6 127 -27 198 -18 174 21 -30 48 -243 80 -361 54 l-54 -13 -52 49 c-29 27 -98 82 -155 122 -80 57 -102 77 -96 89 37 89 44 168 20 226 -39 92 -155 86 -186 -10 -17 -52 -8 -135 22 -192 l26 -50 -26 -25 c-64 -60 -199 -102 -298 -94 -43 3 -80 14 -123 37 -33 18 -61 36 -61 40 0 4 6 26 14 48 56 157 11 302 -93 302 -78 0 -121 -61 -121 -170 0 -83 14 -123 65 -179 37 -41 37 -41 20 -68 -31 -46 -118 -124 -167 -149 -61 -31 -154 -55 -183 -48 -21 5 -23 11 -28 147 -8 214 -58 442 -107 495 -29 31 -114 31 -160 0z m707 -139 c21 -39 11 -185 -12 -183 -17 1 -55 86 -55 122 0 40 26 95 43 89 7 -2 18 -14 24 -28z m634 4 c10 -28 3 -99 -11 -108 -19 -12 -41 111 -23 128 13 13 24 7 34 -20z m339 -584 c42 -82 4 -158 -67 -133 -46 16 -44 62 7 132 16 23 32 42 35 42 2 0 14 -18 25 -41z m-3197 -369 c20 -39 19 -130 -3 -185 l-12 -30 -30 35 c-68 80 -87 161 -47 201 31 31 70 22 92 -21z m967 -839 c52 -27 82 -103 77 -198 -3 -62 -11 -86 -52 -170 -39 -78 -49 -93 -52 -73 -6 42 -24 68 -59 85 -43 20 -100 7 -149 -36 -70 -61 -114 -205 -82 -268 17 -35 8 -42 -37 -30 -129 37 -140 230 -28 459 50 102 157 212 227 233 68 21 114 21 155 -2z m551 -247 c33 -29 49 -77 49 -143 0 -74 -23 -199 -45 -242 l-17 -32 -18 41 c-40 89 -115 95 -187 17 -81 -88 -96 -222 -29 -253 20 -9 20 -10 -8 -17 -51 -14 -97 19 -124 88 -28 71 -31 194 -6 277 38 131 125 241 217 274 56 20 140 16 168 -10z m-1721 -27 c0 -42 -65 -87 -124 -87 -42 0 -44 7 -14 45 29 37 77 65 111 65 22 0 27 -5 27 -23z m863 -866 c45 -23 113 -50 151 -61 96 -27 256 -43 350 -35 l78 7 -7 -23 c-16 -54 -98 -210 -157 -299 -151 -226 -335 -351 -523 -353 -84 -1 -131 18 -191 79 -66 66 -88 135 -88 274 1 149 29 246 148 513 l26 58 65 -59 c38 -35 100 -77 148 -101z"/>
        <path d="M10693 11692 c-17 -11 -28 -46 -53 -167 -20 -96 -22 -131 -17 -275 2 -91 8 -172 11 -181 5 -12 -3 -18 -32 -27 -22 -7 -73 -34 -114 -61 -85 -55 -146 -136 -199 -263 -49 -119 -58 -176 -69 -458 -6 -146 -21 -359 -35 -475 -96 -822 -99 -852 -99 -1080 -1 -240 8 -303 65 -478 61 -188 149 -324 280 -435 134 -115 419 -237 668 -287 66 -14 121 -16 274 -12 228 5 318 26 483 108 356 178 522 440 541 855 14 305 -77 615 -264 899 -78 119 -147 201 -371 439 -103 109 -215 233 -250 275 -75 89 -140 218 -207 406 -82 232 -107 293 -145 352 -86 131 -162 189 -296 228 l-74 21 31 47 c95 143 292 221 437 173 48 -16 142 -87 142 -107 0 -5 -12 -9 -26 -9 -72 0 -134 -63 -134 -136 0 -75 60 -124 152 -124 68 0 113 27 136 81 17 40 18 40 36 20 35 -38 45 -91 46 -236 2 -264 13 -364 48 -438 63 -135 175 -216 310 -225 l75 -5 153 -119 c84 -66 165 -138 181 -160 25 -37 29 -52 33 -142 5 -93 7 -101 26 -104 32 -5 56 54 56 140 0 59 -5 81 -32 135 -33 67 -40 74 -243 233 l-78 61 36 42 c42 49 69 131 60 180 -25 130 -152 152 -214 37 -19 -34 -26 -64 -29 -127 -5 -93 -9 -97 -80 -68 -91 38 -161 114 -189 203 -9 31 -17 127 -23 277 -12 304 -27 353 -133 426 -31 21 -62 53 -80 84 -42 73 -84 112 -155 147 -52 26 -80 33 -146 36 -150 8 -274 -45 -387 -166 -67 -71 -69 -73 -63 -40 25 149 71 303 120 400 32 63 30 76 -11 94 -36 15 -132 19 -152 6z m755 -604 c17 -17 15 -54 -4 -72 -21 -22 -67 -20 -95 3 -20 16 -22 23 -13 38 22 37 88 55 112 31z m702 -698 c7 -14 8 -32 1 -55 -10 -38 -47 -95 -62 -95 -15 0 -10 86 7 130 18 44 37 51 54 20z m-961 -409 c93 -48 161 -182 147 -294 -14 -112 -94 -197 -171 -183 -54 10 -110 59 -139 120 -33 70 -33 77 2 67 38 -11 91 8 116 42 16 21 21 43 21 87 0 71 -21 105 -85 136 -39 19 -41 22 -24 32 30 17 91 14 133 -7z m-473 -93 c78 -72 124 -190 124 -317 0 -90 -20 -142 -73 -188 -19 -17 -51 -36 -70 -42 -31 -10 -41 -9 -74 7 -21 11 -48 31 -60 44 -36 38 -75 135 -80 199 l-6 60 38 -25 c43 -30 83 -33 125 -11 40 21 60 63 60 128 0 67 -28 114 -85 141 l-39 20 29 12 c47 21 63 17 111 -28z m789 -798 c20 -39 50 -112 67 -163 29 -84 32 -103 32 -212 0 -153 -20 -209 -98 -283 -42 -40 -63 -52 -107 -61 -114 -23 -269 32 -373 134 -43 43 -69 82 -116 177 -33 67 -60 127 -60 134 0 13 54 24 121 24 135 0 330 114 445 260 26 33 48 60 50 60 2 0 20 -32 39 -70z"/>
    </g>
</svg>
