<svg xmlns="http://www.w3.org/2000/svg" version="1.0" preserveAspectRatio="xMidYMid meet"
    viewBox="725.11 122.19 514.89 520.22">
    <g transform="translate(0.000000,2000.000000) scale(0.100000,-0.100000)" fill="#000000"
        stroke="none">
        <path
            d="M10047 18765 c-51 -29 -137 -146 -197 -270 -90 -184 -147 -372 -195 -645 -13 -79 -26 -145 -28 -147 -2 -2 -14 25 -27 59 -34 93 -106 233 -163 316 -68 99 -142 163 -244 214 -84 42 -90 43 -182 43 -88 0 -102 -3 -167 -33 l-71 -33 -76 15 c-145 30 -227 18 -369 -56 -89 -46 -173 -128 -215 -211 -21 -42 -27 -70 -30 -142 -5 -100 7 -138 44 -143 25 -4 27 1 43 123 13 103 40 156 114 231 77 76 164 114 278 122 42 2 88 2 102 -2 l25 -6 -39 -61 c-52 -80 -74 -150 -73 -227 2 -119 80 -226 191 -258 91 -27 178 4 238 83 86 113 57 296 -67 424 -27 28 -49 52 -49 53 0 2 27 11 60 20 56 16 65 16 122 1 235 -60 405 -320 522 -796 19 -79 38 -152 42 -162 4 -12 -8 -7 -45 17 -112 75 -293 123 -433 114 -123 -8 -257 -75 -327 -163 l-34 -43 -48 52 c-57 63 -140 109 -246 138 -158 43 -408 21 -542 -46 -253 -129 -536 -490 -626 -801 -74 -255 -104 -666 -70 -945 35 -283 126 -655 211 -864 187 -458 493 -775 824 -853 121 -28 303 3 452 78 l56 28 46 -57 c65 -79 180 -176 251 -211 228 -112 449 -70 649 122 l71 68 24 -33 c84 -113 243 -233 364 -276 61 -22 90 -26 192 -26 111 -1 125 2 190 29 100 42 229 131 310 215 45 48 73 69 81 64 6 -5 30 -24 54 -42 60 -44 107 -55 225 -50 142 7 257 49 412 150 225 147 376 388 538 859 136 395 185 668 185 1019 0 386 -68 673 -245 1035 -167 343 -341 531 -551 596 -73 22 -94 24 -274 23 -170 0 -203 -3 -258 -21 -82 -28 -196 -96 -247 -149 l-41 -42 -55 46 c-94 79 -202 112 -368 112 -152 0 -271 -42 -386 -135 l-56 -46 6 63 c25 257 99 414 273 579 112 106 172 140 263 147 92 6 127 -12 267 -142 121 -113 179 -147 276 -165 119 -22 229 -6 344 51 78 39 193 143 244 223 22 33 47 63 56 67 9 4 46 7 82 7 75 1 189 30 262 67 151 77 268 276 268 456 0 65 -11 110 -24 98 -2 -3 -14 -45 -25 -93 -42 -179 -133 -317 -250 -381 -58 -31 -187 -66 -245 -66 l-41 0 0 132 c0 113 -4 143 -23 197 -28 78 -70 141 -119 178 -31 24 -46 28 -99 28 -74 0 -103 -21 -130 -91 -22 -58 -15 -188 15 -264 34 -89 115 -182 199 -229 15 -8 12 -16 -22 -66 -106 -154 -295 -242 -462 -215 -88 14 -144 44 -234 125 -154 139 -220 175 -322 175 -97 0 -159 -16 -225 -59 -124 -80 -234 -195 -309 -321 -38 -64 -43 -70 -38 -40 25 138 126 384 224 545 81 133 232 308 317 366 13 9 24 26 25 39 2 19 -7 30 -48 55 -79 48 -148 67 -254 72 -73 3 -101 0 -123 -12z m1442 -190 c64 -54 108 -204 95 -319 -10 -80 -15 -85 -63 -47 -83 66 -141 180 -141 277 0 105 45 142 109 89z m-2620 -469 c47 -43 91 -139 91 -199 0 -123 -109 -196 -201 -134 -42 28 -79 98 -79 152 0 48 44 147 90 198 36 41 33 42 99 -17z m553 -1432 c56 -29 90 -70 124 -154 21 -53 49 -208 39 -218 -2 -2 -24 13 -49 32 -141 107 -280 18 -302 -194 -16 -150 79 -272 198 -254 l43 7 -19 -21 c-27 -31 -97 -62 -139 -62 -81 0 -188 84 -241 189 -56 110 -70 245 -41 397 48 251 210 368 387 278z m1190 -55 c85 -43 148 -189 148 -341 0 -144 -44 -273 -127 -375 -43 -53 -142 -120 -189 -129 -46 -8 -117 12 -145 42 l-22 24 47 0 c65 0 118 31 160 94 94 138 84 302 -22 398 -69 62 -157 63 -236 3 -39 -30 -43 -31 -38 -12 14 59 75 171 118 217 96 102 204 130 306 79z m-1908 -1070 c192 -57 537 -117 771 -135 46 -4 88 -10 94 -13 7 -5 4 -28 -9 -71 -25 -83 -26 -117 -1 -125 31 -10 219 -24 242 -18 20 6 21 10 15 72 -4 36 -9 81 -12 99 l-6 32 71 0 c48 0 71 -4 71 -12 0 -6 -17 -69 -37 -140 -30 -102 -35 -130 -25 -140 9 -9 67 -14 197 -16 l185 -3 0 28 c0 25 -30 198 -45 261 -5 21 -3 22 77 22 120 0 358 18 468 36 100 15 310 68 343 85 10 6 21 8 24 5 7 -6 -110 -238 -167 -331 -112 -184 -234 -311 -408 -427 -248 -164 -523 -258 -762 -260 -233 -2 -494 103 -713 288 -177 149 -372 434 -476 697 -36 90 -39 112 -13 102 9 -3 61 -19 116 -36z"></path>
    </g>
</svg>
