<svg xmlns="http://www.w3.org/2000/svg" version="1.0" preserveAspectRatio="xMidYMid meet" viewBox="1386.21 126 431.79 521.79">

    <g transform="translate(0.000000,2000.000000) scale(0.100000,-0.100000)" fill="#000000" stroke="none">
        <path d="M17610 18722 c-71 -35 -88 -138 -39 -240 25 -52 103 -138 158 -177 23 -15 41 -33 41 -40 0 -23 -106 -111 -147 -123 -22 -7 -63 -12 -90 -12 -115 0 -204 62 -299 208 -68 104 -115 156 -169 185 -33 18 -57 22 -135 22 -86 0 -102 -3 -160 -31 -36 -17 -81 -45 -100 -61 -26 -23 -40 -28 -55 -22 -11 4 -55 8 -97 8 -178 2 -314 -98 -382 -281 -14 -37 -28 -90 -32 -118 -4 -28 -10 -48 -14 -43 -4 4 -21 50 -39 102 -60 175 -209 443 -306 550 -46 51 -67 52 -177 8 -46 -19 -112 -44 -148 -56 -85 -28 -179 -81 -204 -114 -25 -34 -17 -44 82 -98 118 -64 189 -118 282 -215 139 -145 218 -281 253 -436 14 -64 14 -68 -3 -68 -9 0 -33 14 -51 30 -135 121 -285 168 -494 157 -120 -6 -203 -31 -339 -99 -128 -63 -205 -118 -287 -205 -155 -165 -254 -372 -247 -520 l3 -62 -42 -30 c-41 -30 -88 -90 -112 -145 -7 -17 -19 -96 -26 -178 -16 -164 -37 -238 -86 -299 -41 -52 -61 -59 -168 -59 -97 0 -136 -15 -112 -43 21 -26 107 -49 181 -49 80 -1 120 19 174 85 72 89 92 153 111 347 13 142 26 182 73 233 34 36 45 34 65 -9 25 -51 102 -130 151 -154 23 -11 62 -20 87 -20 144 0 189 169 75 282 -43 44 -99 65 -188 73 l-78 7 0 49 c0 130 141 365 296 493 77 63 231 146 334 178 62 19 96 23 195 22 133 0 203 -17 285 -69 l44 -28 -94 -31 c-232 -77 -361 -188 -474 -406 -48 -93 -79 -186 -155 -475 -84 -321 -141 -451 -314 -721 -159 -249 -236 -416 -288 -624 -26 -106 -37 -402 -20 -558 31 -284 118 -525 276 -762 125 -189 237 -284 447 -385 295 -140 522 -183 913 -171 724 21 1244 106 1530 249 297 148 504 390 624 731 46 130 61 229 61 400 0 250 -39 426 -140 631 -117 238 -207 350 -457 566 -245 212 -323 288 -381 372 -91 132 -121 203 -206 483 -31 100 -69 217 -86 260 -65 164 -175 311 -293 395 -114 81 -144 91 -283 97 l-122 4 -6 30 c-3 17 -6 72 -6 122 0 295 104 466 291 482 87 7 92 2 67 -71 -45 -135 -32 -268 36 -357 140 -183 352 -24 292 219 -18 76 -43 119 -106 187 l-45 48 30 24 c42 34 149 66 194 58 75 -14 113 -47 182 -160 146 -242 323 -322 534 -243 58 21 141 92 177 149 l15 25 69 -22 c91 -28 149 -37 170 -25 16 9 15 12 -10 35 -15 14 -63 43 -107 65 l-80 40 -2 98 c-2 79 -8 110 -26 152 -39 88 -147 172 -221 172 -8 0 -31 -8 -50 -18z m112 -107 c54 -37 90 -116 86 -191 l-3 -59 -53 50 c-83 76 -130 176 -102 210 17 21 30 19 72 -10z m-948 -462 c23 -67 21 -144 -5 -177 -11 -14 -28 -26 -38 -26 -22 0 -66 46 -81 85 -17 44 -14 137 6 201 l18 57 42 -46 c23 -26 49 -68 58 -94z m-1034 -1239 c69 -32 105 -66 137 -128 22 -43 23 -48 6 -41 -10 5 -38 10 -63 13 -62 5 -104 -25 -143 -103 -28 -55 -31 -69 -31 -160 -1 -114 11 -145 77 -198 31 -26 49 -32 101 -35 l64 -4 -20 -33 c-31 -53 -102 -113 -149 -125 -114 -31 -258 84 -316 253 -98 279 34 578 257 586 14 0 50 -11 80 -25z m754 2 c105 -44 156 -249 93 -377 -38 -78 -68 -104 -121 -104 -32 0 -52 8 -80 29 l-38 29 31 13 c47 20 71 67 71 143 0 58 -2 65 -34 97 -30 30 -40 34 -85 34 -28 0 -51 2 -51 4 0 2 8 24 19 48 37 88 111 119 195 84z m-1820 -30 c86 -36 104 -153 21 -132 -32 8 -111 80 -131 118 l-15 28 46 0 c25 0 60 -6 79 -14z m1990 -996 c145 -49 247 -134 350 -288 137 -207 211 -418 235 -670 24 -259 -49 -446 -203 -518 -61 -29 -151 -32 -241 -9 -61 16 -228 78 -255 94 -12 8 -8 31 28 149 23 76 42 154 42 172 l0 33 -134 -5 c-92 -3 -140 -9 -151 -18 -13 -11 -16 -36 -14 -159 0 -80 -3 -145 -7 -145 -5 1 -17 24 -27 50 -40 111 -59 144 -84 144 -51 0 -183 -85 -183 -118 0 -10 20 -50 45 -91 24 -41 42 -78 39 -82 -12 -20 -149 -102 -200 -119 -76 -27 -176 -26 -247 0 -138 52 -201 183 -200 410 2 345 124 731 297 941 57 69 160 153 221 180 60 27 151 23 192 -7 61 -46 68 -66 68 -187 -1 -110 -1 -114 -53 -250 -68 -179 -75 -236 -37 -312 67 -137 216 -163 309 -53 43 50 61 119 53 208 -4 53 -19 96 -67 205 -73 166 -82 223 -55 336 13 51 27 82 46 101 25 26 34 28 102 28 47 0 94 -7 131 -20z"/>
    </g>
</svg>
