<svg xmlns="http://www.w3.org/2000/svg" version="1.0" preserveAspectRatio="xMidYMid meet" viewBox="138.45 702 442.42 573.8">

    <g transform="translate(0.000000,2000.000000) scale(0.100000,-0.100000)" fill="#000000" stroke="none">
        <path d="M3402 12954 c-51 -25 -92 -65 -92 -88 0 -7 25 -51 55 -99 72 -116 141 -241 192 -352 43 -93 116 -295 110 -302 -2 -2 -25 33 -51 77 -127 219 -297 320 -521 307 -111 -6 -174 -25 -253 -76 -84 -55 -137 -130 -206 -295 -68 -159 -114 -218 -207 -265 -68 -34 -161 -56 -184 -44 -12 7 -9 16 19 55 66 93 90 163 94 274 5 110 -9 177 -53 264 -69 136 -162 203 -281 202 -82 -1 -139 -32 -196 -107 -58 -76 -73 -131 -72 -260 1 -89 5 -121 23 -168 45 -115 119 -200 251 -289 l25 -16 -55 -24 c-86 -39 -143 -51 -217 -46 -99 6 -203 58 -294 149 -38 38 -76 69 -83 69 -26 0 -29 -39 -6 -84 56 -116 250 -225 400 -226 101 0 223 40 298 96 32 25 41 26 160 28 123 1 129 2 195 35 131 66 190 137 266 318 24 57 57 124 74 149 40 61 135 130 205 150 77 23 238 15 305 -14 83 -37 183 -147 246 -269 11 -23 21 -44 21 -46 0 -2 -30 -7 -67 -10 -250 -21 -368 -107 -439 -320 -30 -91 -20 -84 -229 -157 -363 -127 -442 -205 -675 -671 -173 -348 -318 -861 -399 -1416 -60 -406 -90 -863 -72 -1098 25 -321 127 -639 258 -799 101 -125 228 -184 418 -193 168 -8 288 28 437 130 l68 47 92 -93 c74 -74 109 -101 172 -131 74 -37 84 -39 165 -38 205 2 371 82 481 230 l25 33 45 -62 c63 -87 162 -173 247 -215 101 -49 233 -65 342 -41 110 25 196 71 268 144 l63 63 43 -33 c96 -73 216 -101 362 -85 134 15 257 87 340 199 110 150 213 433 271 744 37 206 28 718 -22 1220 -63 629 -127 923 -287 1312 -180 438 -366 640 -700 760 -163 58 -216 99 -307 233 -100 148 -139 180 -255 210 -40 10 -128 22 -195 26 -78 4 -123 11 -126 19 -7 17 41 146 93 250 112 225 251 378 414 459 277 137 473 113 670 -83 71 -71 139 -176 139 -214 0 -10 -17 -16 -52 -20 -62 -8 -186 -65 -245 -113 -98 -80 -145 -200 -123 -310 10 -50 19 -66 60 -106 38 -37 59 -48 102 -57 117 -25 244 36 321 152 45 69 66 135 74 230 3 42 9 77 12 77 18 0 73 -43 105 -83 61 -74 76 -130 91 -327 14 -176 26 -232 66 -297 22 -35 65 -63 87 -56 18 7 15 52 -8 125 -11 34 -25 115 -31 178 -26 287 -54 373 -153 472 -46 46 -120 93 -177 111 -8 3 -21 25 -28 48 -51 174 -216 348 -404 427 -52 22 -81 27 -185 30 -112 4 -130 2 -210 -23 -279 -87 -464 -253 -618 -555 l-38 -75 -9 60 c-38 271 -106 533 -147 570 -31 28 -92 44 -171 45 -61 0 -85 -5 -127 -26z m-1307 -443 c81 -37 163 -162 185 -284 20 -106 -24 -251 -104 -342 l-34 -40 -48 25 c-134 70 -233 214 -242 353 -8 127 45 248 128 289 44 22 65 22 115 -1z m3145 -221 c0 -167 -106 -310 -231 -310 -137 0 -155 160 -30 273 59 54 171 105 234 106 27 1 27 1 27 -69z m-778 -1486 c69 -23 122 -75 164 -159 46 -92 54 -170 30 -279 -54 -240 -173 -379 -345 -402 -40 -5 -52 -4 -47 5 4 6 13 11 20 11 27 0 102 69 129 119 20 35 30 71 34 119 11 127 -40 234 -139 292 -49 29 -58 31 -126 26 -44 -3 -83 -11 -99 -21 -33 -22 -36 -16 -19 32 23 65 45 102 89 150 53 58 86 81 150 103 64 24 100 25 159 4z m-1187 -15 c121 -45 233 -188 254 -324 8 -54 5 -88 -6 -58 -10 27 -49 67 -92 94 -62 40 -149 41 -203 4 -81 -55 -128 -164 -128 -294 1 -120 42 -189 142 -237 l53 -26 -65 5 c-79 5 -118 24 -181 87 -102 102 -151 276 -127 450 19 145 80 249 170 294 63 31 109 33 183 5z m686 -1349 c307 -31 583 -101 909 -230 80 -31 162 -63 183 -69 20 -7 37 -16 37 -21 0 -16 -150 -149 -246 -217 -112 -80 -265 -173 -382 -232 -78 -39 -199 -91 -213 -91 -3 0 4 37 18 83 47 160 73 281 63 291 -11 11 -304 30 -327 21 -14 -5 -15 -35 -11 -231 6 -259 15 -235 -98 -248 l-60 -7 -18 142 -19 142 -104 -7 c-141 -9 -163 -14 -163 -38 0 -10 22 -66 49 -123 l50 -105 -30 0 c-97 0 -309 68 -464 149 -170 88 -576 377 -583 413 -5 27 360 204 550 266 154 51 359 98 448 104 54 3 53 21 14 -205 -25 -147 -27 -169 -14 -177 31 -20 308 -3 353 22 14 7 16 16 11 46 -7 43 -70 290 -80 315 -7 20 -9 20 127 7z"/>
    </g>
</svg>
