<?xml version="1.0" standalone="no"?>
<!DOCTYPE svg PUBLIC "-//W3C//DTD SVG 20010904//EN" "http://www.w3.org/TR/2001/REC-SVG-20010904/DTD/svg10.dtd">
<svg version="1.0" xmlns="http://www.w3.org/2000/svg"
    width="248.000000pt" height="248.000000pt" viewBox="0 0 248.000000 248.000000"
    preserveAspectRatio="xMidYMid meet">

    <g transform="translate(0.000000,248.000000) scale(0.100000,-0.100000)"
        fill="#FFFFFF" stroke="none">
        <path
            d="M1080 2400 c-228 -32 -457 -142 -639 -306 -132 -119 -273 -351 -325
-535 -183 -645 220 -1316 875 -1460 262 -57 520 -25 765 96 331 162 550 449
635 830 9 38 13 121 13 225 -1 182 -19 274 -83 434 -170 424 -579 707 -1041
721 -74 2 -164 0 -200 -5z m260 -20 c157 -15 329 -67 442 -135 33 -19 62 -35
64 -35 12 0 101 -67 153 -113 63 -58 153 -161 199 -229 63 -93 145 -293 158
-383 1 -11 7 -42 14 -70 19 -84 15 -286 -9 -403 -30 -146 -51 -197 -154 -382
-80 -144 -279 -325 -455 -414 -73 -37 -223 -86 -312 -102 -100 -18 -295 -17
-400 1 -136 24 -296 82 -344 124 -10 9 -19 14 -20 11 -6 -12 -144 89 -222 163
-82 78 -147 157 -195 242 -12 22 -33 58 -45 80 -13 22 -39 87 -58 145 -142
428 -20 892 317 1206 195 182 423 274 747 303 8 0 62 -4 120 -9z" />
        <path
            d="M1075 2330 c-139 -19 -327 -94 -456 -181 -211 -142 -376 -378 -445
-637 -35 -131 -44 -329 -20 -452 36 -179 79 -289 163 -417 216 -331 580 -518
973 -500 177 8 294 38 445 115 279 140 484 394 576 712 26 89 36 318 20 430
-14 92 -68 265 -108 343 -63 125 -199 284 -321 377 -37 28 -122 78 -189 112
-101 50 -143 64 -240 84 -121 24 -284 30 -398 14z m138 -82 c20 -24 22 -60 5
-88 -10 -16 -9 -23 11 -44 27 -29 21 -46 -17 -46 -21 0 -32 9 -49 40 -27 46
-29 70 -7 70 10 0 14 7 12 23 -2 12 -10 22 -18 22 -15 0 -31 33 -22 48 7 14
66 -4 85 -25z m155 23 c9 -5 12 -20 8 -44 -5 -29 -2 -36 14 -40 26 -7 38 13
17 28 -41 29 -4 67 38 39 22 -14 24 -22 23 -87 0 -84 -14 -107 -65 -107 -29 0
-33 3 -33 25 0 18 5 25 19 25 30 0 35 19 9 29 -28 11 -35 5 -42 -31 -2 -15 -7
-32 -10 -37 -9 -15 -46 0 -46 18 0 17 24 171 29 189 2 5 27 1 39 -7z m-254
-33 c3 -18 7 -64 8 -103 3 -69 3 -70 -23 -73 -25 -3 -26 -1 -32 65 -4 37 -7
85 -7 106 0 33 3 37 25 37 19 0 25 -6 29 -32z m-106 -9 c2 -11 -10 -22 -35
-32 -35 -14 -39 -14 -50 1 -19 23 -16 29 15 41 37 13 66 9 70 -10z m574 -21
c-4 -20 -42 -120 -55 -148 -14 -27 -34 -35 -54 -22 -10 6 -10 15 -1 40 7 18
16 32 20 32 4 0 8 9 8 19 0 11 9 40 20 65 17 41 21 45 42 37 13 -5 22 -15 20
-23z m-671 -21 c10 -29 16 -33 38 -29 14 3 31 9 38 14 15 12 29 4 36 -21 5
-19 1 -21 -55 -36 -5 -2 -12 -3 -17 -4 -5 0 -4 -19 2 -42 8 -32 7 -43 -3 -49
-16 -10 -45 -6 -46 6 0 5 -5 20 -11 34 -5 14 -18 51 -28 83 -16 50 -16 60 -4
68 25 16 37 10 50 -24z m738 -3 c28 -36 27 -78 -3 -102 -21 -16 -24 -25 -19
-60 6 -44 -8 -57 -26 -24 -5 9 -13 15 -17 12 -11 -7 -32 70 -26 93 2 10 14 17
28 17 31 0 40 17 20 39 -18 20 -12 51 9 51 8 0 23 -12 34 -26z m-789 -119 c30
-56 33 -67 20 -75 -27 -17 -39 -11 -60 29 -13 26 -28 41 -42 43 -13 2 -22 9
-22 18 3 31 15 84 21 93 8 14 40 -28 83 -108z m927 56 c-2 -3 -9 -19 -17 -35
-15 -30 -11 -37 46 -73 18 -10 18 -12 2 -28 -15 -17 -18 -17 -51 4 -44 27 -44
27 -62 -9 -17 -33 -36 -38 -55 -15 -10 12 -8 21 8 47 11 18 34 57 51 85 29 50
32 52 56 41 13 -6 23 -14 22 -17z m45 -24 c7 -7 21 -16 31 -20 14 -5 16 -11 7
-27 -14 -26 -28 -25 -65 4 -25 20 -28 26 -16 40 16 19 25 20 43 3z m-774 -20
c3 -12 -7 -22 -33 -33 -42 -17 -40 -17 -49 14 -6 17 -2 24 16 32 33 13 62 8
66 -13z m-334 -17 c73 -25 75 -26 69 -50 -7 -25 -24 -25 -93 1 -63 24 -80 36
-80 55 0 20 37 17 104 -6z m-24 -177 c0 -7 -8 -17 -19 -22 -14 -8 -24 -4 -46
19 -18 19 -39 30 -56 30 -24 0 -27 4 -31 43 -9 82 5 84 82 10 39 -37 70 -73
70 -80z m745 108 c98 -29 219 -91 289 -149 289 -240 367 -646 186 -976 -98
-179 -241 -298 -431 -360 -96 -31 -109 -34 -204 -41 -283 -22 -564 129 -716
385 -231 389 -71 899 345 1096 156 74 368 92 531 45z m495 14 c11 -13 10 -21
-8 -44 l-21 -29 29 -28 c33 -32 36 -46 17 -62 -10 -8 -22 -4 -47 18 -35 30
-46 29 -68 -2 -17 -23 -31 -23 -48 0 -17 22 -18 35 -1 26 6 -4 9 -4 6 0 -6 7
109 136 122 136 3 0 12 -7 19 -15z m-1241 -6 c40 -14 69 -63 48 -83 -14 -15
-47 -4 -47 15 0 6 -9 22 -20 36 -18 23 -26 43 -16 43 1 0 17 -5 35 -11z m1079
-56 c20 -16 21 -21 9 -37 -11 -15 -17 -16 -35 -7 -40 21 -53 41 -42 62 12 21
22 18 68 -18z m252 -28 c0 -7 -7 -18 -16 -25 -13 -11 -20 -9 -47 18 -30 30
-30 32 -13 51 18 19 18 19 47 -6 16 -15 29 -32 29 -38z m-1432 -29 c7 -4 12
-16 12 -28 0 -20 -4 -20 -82 -15 -61 5 -86 10 -95 23 -7 9 -10 21 -7 26 6 10
154 5 172 -6z m1315 -108 c-16 -18 -18 -17 -47 9 -17 16 -32 28 -33 29 -1 0 5
10 13 23 l16 23 34 -33 c32 -31 33 -34 17 -51z m188 50 c24 -29 24 -35 -2 -43
-33 -11 -78 46 -46 58 22 9 29 7 48 -15z m-1646 -34 c82 -48 100 -75 76 -113
-10 -16 -51 2 -51 23 0 7 -27 30 -60 50 -63 39 -67 45 -48 64 16 16 15 17 83
-24z m117 9 c24 -25 25 -30 13 -47 -13 -17 -16 -17 -52 18 -21 20 -41 36 -45
36 -5 0 -8 5 -8 10 0 6 15 10 33 10 23 0 41 -8 59 -27z m1575 -53 c18 -27 7
-31 -116 -37 -104 -6 -109 -5 -120 16 -14 25 -8 29 59 34 128 10 165 8 177
-13z m-1771 -40 c5 0 20 -9 34 -20 14 -11 37 -20 52 -20 31 0 58 -9 58 -19 0
-5 -15 -16 -33 -25 -32 -18 -33 -18 -87 13 -30 18 -65 37 -77 43 -27 13 -28
21 -7 43 15 14 18 14 33 0 10 -8 22 -15 27 -15z m1638 -42 c11 -16 13 -25 4
-35 -17 -20 -35 -15 -57 16 -27 38 -27 41 8 41 19 0 35 -8 45 -22z m187 -29
c13 -22 11 -26 -21 -39 -24 -10 -30 -19 -30 -41 0 -16 5 -29 10 -29 16 0 11
-37 -6 -44 -27 -10 -30 -7 -43 35 -11 37 -15 41 -39 36 -15 -3 -34 -8 -43 -12
-12 -4 -18 1 -21 19 -6 31 2 38 72 60 30 10 61 21 69 26 20 11 41 6 52 -11z
m-1861 -29 c0 -14 -38 -50 -52 -50 -7 0 -20 5 -28 10 -13 9 -12 13 9 30 24 21
71 27 71 10z m85 -22 c14 -6 25 -16 26 -22 0 -6 2 -21 5 -33 3 -16 -1 -23 -12
-23 -9 0 -12 5 -8 12 5 7 3 8 -5 4 -7 -5 -18 0 -26 10 -12 17 -14 16 -34 -17
-26 -44 -66 -65 -90 -47 -27 20 -41 41 -41 60 0 22 38 25 46 3 10 -24 32 -17
49 15 14 26 39 49 57 50 4 0 19 -5 33 -12z m1808 -25 c17 -43 13 -63 -13 -63
-11 0 -23 14 -33 37 -13 34 -13 39 2 50 24 18 27 16 44 -24z m-147 -70 c12
-39 11 -41 -12 -46 -21 -4 -39 15 -31 34 1 3 -4 13 -11 22 -11 13 -10 17 5 26
27 16 36 9 49 -36z m-1650 -19 c-3 -20 -25 -34 -53 -34 -29 0 -30 23 -2 49 25
23 59 13 55 -15z m1868 -111 c10 -65 7 -174 -9 -263 -17 -99 -67 -260 -96
-308 -10 -18 -14 -30 -7 -26 13 8 -21 -52 -59 -103 -12 -17 -23 -36 -23 -41 0
-5 -25 -37 -56 -71 l-56 -62 -88 93 -87 93 54 70 c91 120 136 226 169 400 8
42 7 152 -2 196 l-5 27 108 15 c158 22 149 23 157 -20z m-1974 13 c100 -11
110 -15 110 -44 -1 -15 -4 -45 -9 -67 -4 -22 -4 -52 0 -68 4 -15 10 -56 13
-91 10 -99 58 -228 121 -322 31 -45 63 -85 71 -88 12 -5 -6 -29 -72 -101 -48
-52 -90 -95 -94 -95 -13 0 -139 178 -173 245 -86 167 -117 304 -117 508 l0
139 48 -5 c26 -2 72 -7 102 -11z m405 -796 c11 -17 -18 -50 -40 -44 -32 8 -73
-48 -55 -76 11 -17 -9 -60 -25 -54 -17 7 -35 49 -35 84 0 19 11 42 31 65 27
30 37 35 74 35 24 0 46 -4 50 -10z m1105 -25 c7 -9 13 -29 13 -46 0 -16 6 -29
13 -29 6 0 22 -9 35 -20 19 -15 21 -19 7 -20 -9 0 -18 -5 -20 -12 -6 -16 -52
-2 -85 26 -24 21 -26 26 -13 41 13 15 12 19 -5 31 -15 11 -21 11 -27 1 -6 -9
-10 -9 -18 3 -16 25 -7 44 25 51 33 6 55 -1 75 -26z m-1047 -75 c0 -48 -30
-86 -77 -99 -30 -7 -76 4 -76 19 0 12 23 27 51 34 34 7 67 55 48 67 -10 6 -10
13 0 35 l12 27 21 -20 c14 -15 21 -34 21 -63z m976 -16 c28 -42 51 -80 51 -84
0 -5 -9 -14 -19 -20 -17 -9 -26 0 -75 70 -31 44 -56 82 -56 86 0 10 34 33 42
28 4 -3 30 -39 57 -80z m-888 26 c10 0 -2 -33 -48 -132 -27 -60 -30 -62 -57
-52 -23 9 -20 21 25 113 30 61 44 81 55 77 9 -3 20 -6 25 -6z m770 -2 c1 -7 1
-17 0 -22 -1 -4 5 -19 14 -32 8 -13 15 -30 15 -38 0 -8 3 -16 8 -18 4 -2 18
-15 31 -30 l23 -27 -41 -19 -41 -20 -6 26 c-10 46 -27 84 -49 111 -36 43 -37
58 -7 70 38 13 52 13 53 -1z m-709 -36 c10 -8 15 -19 12 -23 -3 -5 0 -9 6 -9
20 0 2 -53 -26 -77 -26 -24 -59 -29 -83 -14 -18 11 4 53 26 49 20 -4 44 32 26
39 -7 3 -13 15 -13 27 0 40 13 42 52 8z m106 -65 c-3 -34 0 -40 17 -42 45 -4
63 -15 58 -36 -6 -20 -31 -23 -82 -8 -10 3 -17 -8 -24 -33 -7 -31 -14 -38 -32
-38 -13 0 -26 3 -28 8 -10 15 38 191 53 195 31 7 40 -5 38 -46z m521 -29 c64
-75 69 -84 54 -95 -9 -7 -22 -13 -27 -13 -14 0 -126 145 -126 163 0 15 9 27
21 27 4 0 39 -37 78 -82z m-450 56 c24 -5 31 -12 31 -30 0 -25 -8 -28 -59 -18
-24 5 -31 12 -31 30 0 25 8 28 59 18z m155 -91 c57 -53 76 -78 76 -97 0 -32
-16 -33 -49 -2 -14 14 -49 45 -76 70 -38 34 -51 54 -53 77 -3 43 12 36 102
-48z m76 17 c0 -33 -3 -60 -8 -60 -19 0 -47 48 -49 83 -1 35 1 37 28 37 29 0
29 0 29 -60z m177 -37 c27 -33 28 -43 8 -43 -8 0 -22 -8 -32 -19 -10 -10 -29
-22 -41 -26 -23 -7 -24 -5 -18 32 3 21 8 60 12 87 l7 49 21 -25 c12 -15 31
-39 43 -55z m-299 -70 c-1 -40 -3 -43 -30 -43 -28 0 -28 0 -28 66 l0 66 29
-24 c25 -19 30 -30 29 -65z m-115 17 c5 -4 6 -17 3 -28 -6 -17 -12 -19 -40
-12 -47 10 -55 17 -49 41 5 18 11 20 42 14 20 -4 40 -10 44 -15z" />
        <path
            d="M1175 1969 c-176 -13 -317 -80 -450 -214 -130 -129 -199 -273 -213
-440 -29 -347 164 -650 491 -768 108 -39 282 -49 397 -23 66 15 206 70 220 86
3 4 25 20 51 37 114 78 217 222 270 377 26 76 28 90 25 226 -2 130 -5 154 -31
230 -78 226 -300 427 -525 473 -106 22 -133 24 -235 16z m278 -52 c310 -99
512 -392 494 -717 -23 -423 -421 -736 -833 -657 -99 20 -148 38 -239 91 -74
43 -200 162 -225 211 -8 17 -22 42 -32 56 -55 82 -96 277 -84 398 27 269 201
505 443 600 145 57 330 64 476 18z" />
        <path
            d="M1124 1919 c-71 -12 -173 -50 -241 -90 -72 -43 -187 -158 -232 -233
-130 -217 -130 -493 0 -713 77 -130 231 -250 386 -300 100 -32 272 -37 372
-10 67 18 175 63 201 84 138 108 162 134 225 238 62 104 88 201 89 340 1 132
-17 213 -75 326 -128 255 -435 407 -725 358z m143 -118 c12 -28 12 -42 1 -83
-12 -49 -12 -52 21 -110 27 -50 32 -67 27 -99 -4 -22 -2 -39 3 -39 12 0 51 63
51 83 0 37 22 65 57 70 43 7 62 31 63 77 0 48 20 18 20 -31 0 -28 -8 -45 -34
-72 -33 -35 -34 -39 -29 -95 4 -45 2 -60 -11 -71 -25 -21 -19 -34 12 -27 15 4
41 23 59 42 34 37 35 37 104 34 40 -1 50 3 68 26 14 18 21 22 21 11 0 -46 -36
-80 -95 -89 -13 -2 -31 -24 -50 -61 -19 -37 -38 -60 -52 -63 -13 -4 -23 -10
-23 -14 0 -20 90 -26 123 -9 32 18 73 13 109 -12 33 -24 83 -30 128 -16 24 8
24 7 -5 -17 -38 -33 -73 -40 -125 -26 -46 12 -71 7 -115 -23 -21 -16 -44 -21
-82 -21 -53 1 -53 1 -36 -18 23 -26 71 -50 83 -43 18 11 48 -14 64 -55 11 -29
26 -45 49 -55 17 -7 36 -11 41 -8 5 4 6 1 2 -5 -4 -7 -25 -12 -46 -12 -29 0
-48 8 -73 30 -31 27 -42 30 -98 30 -45 0 -68 5 -82 18 -20 17 -20 16 -14 -16
4 -19 22 -47 43 -67 34 -32 36 -37 30 -79 -6 -38 -3 -48 19 -75 25 -29 25 -31
7 -31 -30 0 -60 30 -74 75 -11 32 -23 45 -66 69 -33 19 -55 39 -59 54 -3 12
-10 21 -17 19 -16 -5 -20 -95 -5 -139 11 -33 9 -41 -15 -82 -27 -47 -34 -102
-15 -139 8 -18 5 -16 -15 6 -34 37 -41 70 -27 129 11 48 10 53 -19 103 -20 36
-30 66 -30 96 -1 39 -2 42 -14 27 -7 -10 -16 -15 -19 -11 -4 3 -7 2 -8 -3 -7
-78 -21 -101 -75 -124 -32 -14 -49 -29 -59 -52 -11 -27 -15 -30 -20 -15 -11
27 3 64 36 98 30 30 31 36 26 88 -5 48 -3 59 15 78 l21 23 -27 0 c-18 0 -40
-13 -67 -41 -40 -40 -42 -41 -91 -35 -37 5 -48 4 -42 -5 5 -8 3 -9 -6 -4 -9 5
-21 -2 -38 -21 l-24 -29 7 30 c9 42 40 72 82 80 25 4 39 15 51 38 9 18 34 49
55 69 l39 37 -38 7 c-21 4 -58 2 -84 -5 -51 -13 -92 -7 -111 15 -6 8 -29 19
-50 24 -31 9 -45 7 -69 -5 -42 -22 -37 -1 6 26 34 21 42 22 107 13 68 -10 71
-9 111 18 31 21 53 28 90 28 l49 0 -23 25 c-15 16 -35 25 -54 25 -40 1 -62 18
-89 72 -16 32 -31 46 -57 55 l-35 12 30 2 c54 4 69 -1 101 -32 30 -29 35 -30
85 -24 47 6 58 4 83 -16 l29 -23 -7 30 c-4 16 -23 45 -42 64 -31 32 -34 41
-34 93 0 44 -5 62 -20 77 -18 18 -19 20 -2 20 30 0 58 -27 70 -69 13 -40 46
-72 90 -86 13 -4 28 -18 34 -31 6 -13 15 -24 19 -24 13 0 21 78 10 99 -18 33
-12 82 15 129 26 44 28 75 8 127 -14 36 27 -5 43 -44z" />
        <path
            d="M2120 1307 c0 -8 26 -26 61 -41 72 -31 68 -30 63 -8 -4 15 -35 31
-106 58 -12 4 -18 1 -18 -9z" />
        <path
            d="M2120 1255 c0 -16 6 -25 15 -25 8 0 15 9 15 19 0 10 -7 21 -15 25
-11 4 -15 -1 -15 -19z" />
        <path
            d="M2126 1204 c-9 -24 -8 -27 17 -20 14 3 35 -2 55 -14 39 -24 42 -24
42 -6 0 20 -53 56 -83 56 -14 0 -28 -7 -31 -16z" />
        <path
            d="M2122 1152 c4 -22 51 -28 68 -8 7 9 11 16 9 17 -2 1 -21 3 -42 4 -32
3 -38 1 -35 -13z" />
        <path
            d="M2122 1108 c-19 -19 -14 -31 10 -25 15 4 33 -3 60 -24 34 -28 38 -29
38 -11 0 21 -59 72 -82 72 -8 0 -19 -5 -26 -12z" />
        <path d="M2112 1052 c2 -12 13 -17 33 -17 42 0 39 27 -3 31 -28 3 -33 1 -30
-14z" />
        <path
            d="M2090 1001 c0 -11 5 -23 10 -26 6 -3 10 -2 10 4 0 6 16 4 41 -4 52
-19 59 -19 59 0 0 9 -20 20 -52 30 -66 19 -68 19 -68 -4z" />
        <path
            d="M2043 875 c-12 -26 -14 -38 -6 -46 8 -8 17 0 32 29 25 49 25 52 6 52
-9 0 -23 -16 -32 -35z" />
        <path d="M2150 875 c0 -8 7 -15 15 -15 8 0 15 7 15 15 0 8 -7 15 -15 15 -8 0
-15 -7 -15 -15z" />
        <path d="M2077 857 c-6 -16 56 -52 72 -43 19 12 12 22 -24 39 -43 20 -42 20
-48 4z" />
        <path d="M2011 796 c-9 -10 -9 -16 -1 -21 12 -7 40 11 40 26 0 14 -26 10 -39
-5z" />
        <path
            d="M2049 769 c-15 -15 -24 -18 -32 -10 -18 18 -29 13 -25 -11 4 -33 46
-37 70 -6 9 12 18 17 18 11 0 -17 30 -17 30 0 0 14 -20 37 -32 37 -4 0 -17 -9
-29 -21z" />
        <path d="M1946 711 c-12 -13 -14 -21 -6 -26 13 -8 40 12 40 31 0 20 -14 17
-34 -5z" />
        <path d="M2063 723 c-17 -6 -16 -33 1 -33 17 0 38 24 29 33 -7 8 -12 8 -30 0z" />
        <path
            d="M1976 678 c-13 -18 -18 -19 -31 -8 -12 10 -19 10 -28 1 -8 -8 -9 -14
-1 -19 5 -4 27 -20 48 -36 25 -20 40 -26 47 -19 7 7 5 16 -6 27 -15 15 -16 19
-1 40 24 38 -2 52 -28 14z" />
        <path d="M2020 655 c-10 -12 -10 -19 -1 -28 9 -9 14 -9 21 3 22 34 4 54 -20
25z" />
        <path
            d="M240 1305 c0 -9 9 -15 25 -15 16 0 25 -6 25 -15 0 -8 -4 -15 -10 -15
-5 0 -10 5 -10 10 0 6 -7 10 -15 10 -8 0 -15 -8 -15 -18 0 -21 36 -45 53 -35
7 4 22 6 34 5 26 -4 51 32 31 44 -6 4 -14 2 -16 -4 -2 -7 -10 -12 -18 -12 -8
0 -11 6 -8 15 4 8 17 15 31 15 15 0 23 5 21 13 -3 7 -28 13 -66 15 -51 2 -62
0 -62 -13z" />
        <path
            d="M244 1208 c5 -24 20 -53 30 -60 6 -4 4 -9 -7 -14 -17 -6 -24 -34 -8
-34 13 0 100 50 107 61 11 19 -4 20 -42 5 -33 -14 -36 -14 -20 -1 11 8 25 15
30 15 8 1 -82 40 -91 40 -1 0 0 -6 1 -12z" />
        <path
            d="M360 1122 c0 -4 -15 -16 -32 -27 -45 -26 -71 -52 -61 -58 15 -10 103
54 103 74 0 11 -2 19 -5 19 -3 0 -5 -4 -5 -8z" />
        <path d="M305 1041 c-7 -12 2 -17 48 -25 29 -5 37 -4 37 7 0 24 -71 39 -85 18z" />
        <path
            d="M276 975 c4 -8 10 -15 15 -15 5 0 9 -7 9 -15 0 -20 5 -19 41 7 26 20
28 23 12 30 -10 3 -32 7 -50 7 -25 1 -31 -3 -27 -14z" />
        <path d="M342 942 c-40 -35 -54 -62 -31 -62 12 0 99 80 99 92 0 17 -27 6 -68
-30z" />
        <path d="M368 884 c-46 -23 -57 -37 -40 -48 15 -9 110 46 105 61 -7 17 -9 17
-65 -13z" />
        <path
            d="M420 848 c0 -17 -3 -19 -12 -10 -17 17 -26 15 -44 -12 -10 -17 -13
-30 -7 -41 9 -15 11 -15 22 -1 8 9 21 16 30 16 9 0 22 5 29 12 17 17 15 58 -3
58 -9 0 -15 -9 -15 -22z" />
        <path
            d="M440 785 c-13 -14 -31 -25 -41 -25 -25 0 -30 -12 -13 -35 9 -12 17
-16 22 -9 8 12 64 51 75 53 4 1 9 1 12 1 3 0 1 9 -5 20 -14 26 -22 25 -50 -5z" />
        <path
            d="M510 712 c0 -5 -7 -17 -16 -28 -14 -18 -15 -18 -3 5 11 24 11 24 -32
17 -24 -4 -46 -9 -48 -12 -9 -9 43 -44 57 -39 10 3 10 0 2 -15 -11 -20 -6 -40
9 -40 7 0 61 101 61 114 0 3 -7 6 -15 6 -8 0 -15 -4 -15 -8z" />
    </g>
</svg>
