<svg xmlns="http://www.w3.org/2000/svg" version="1.0" preserveAspectRatio="xMidYMid meet" viewBox="1408.7 1441.34 438.6 486.66">

    <g transform="translate(0.000000,2000.000000) scale(0.100000,-0.100000)" fill="#000000" stroke="none">
        <path d="M15970 5575 c-557 -127 -945 -610 -1035 -1287 l-6 -48 -300 0 -300 0 6 -32 c5 -31 154 -1016 380 -2501 52 -346 95 -635 95 -643 0 -9 -11 -14 -35 -14 l-35 0 0 99 c0 238 -94 525 -215 659 -67 73 -73 51 -29 -104 35 -122 37 -137 38 -281 1 -191 -8 -205 -60 -102 -46 93 -118 184 -186 237 -69 52 -105 69 -120 54 -7 -7 3 -35 38 -99 78 -141 114 -240 114 -317 l0 -40 -27 26 c-42 39 -95 68 -125 68 -33 0 -36 -20 -9 -58 30 -43 71 -129 64 -136 -4 -3 -36 -6 -71 -6 l-65 0 7 -127 c8 -147 12 -169 34 -178 21 -9 2148 -24 3401 -24 l944 -1 -6 157 c-4 86 -8 158 -11 160 -2 2 -26 6 -55 10 -28 3 -51 9 -51 13 0 21 43 168 65 225 15 37 24 69 21 72 -8 8 -61 -30 -137 -97 l-62 -54 6 199 c6 213 20 300 71 441 30 82 31 94 12 94 -21 0 -197 -188 -250 -269 -83 -124 -138 -275 -152 -414 l-7 -69 -39 45 c-38 45 -95 87 -117 87 -18 0 -13 -31 23 -122 19 -48 37 -100 41 -117 l7 -31 -101 0 -100 0 5 28 c6 34 414 3129 414 3142 0 6 -115 11 -287 12 l-287 3 -27 132 c-52 249 -132 447 -259 637 -138 206 -321 370 -525 471 -167 83 -264 106 -465 111 -121 2 -183 -1 -230 -11z m281 -703 c4 -4 2 -41 -3 -82 -8 -63 -6 -238 4 -315 3 -18 -3 -20 -51 -20 l-54 0 -3 212 -3 212 27 4 c30 5 74 -1 83 -11z m-359 -9 c31 -38 68 -113 68 -140 0 -23 -10 -37 -45 -63 l-44 -33 31 -43 c17 -24 40 -51 50 -61 10 -9 18 -20 18 -24 0 -11 -68 -51 -80 -47 -6 2 -25 32 -43 68 -28 54 -38 66 -61 68 l-28 3 7 -66 7 -66 -53 3 c-48 3 -54 5 -50 23 2 11 5 101 6 200 1 99 3 183 4 188 0 4 45 7 99 7 82 0 101 -3 114 -17z m773 -5 c99 -51 115 -190 29 -257 -14 -11 -53 -26 -86 -32 l-60 -12 5 -49 6 -48 -54 0 -55 0 0 158 c0 86 -3 181 -7 210 l-6 53 104 -7 c57 -3 113 -11 124 -16z m-581 -350 c14 -23 -3 -52 -33 -56 -42 -6 -67 38 -39 66 17 17 58 11 72 -10z m303 -4 c12 -19 12 -24 -2 -38 -30 -30 -85 -15 -85 24 0 43 61 52 87 14z m477 4 c15 -24 -3 -52 -36 -56 -32 -4 -52 20 -44 53 6 22 12 26 38 23 17 -2 36 -11 42 -20z m769 -803 c-1 -49 -18 -211 -37 -360 -145 -1089 -297 -2206 -302 -2218 -15 -41 -5 -41 -1096 -29 -573 7 -1045 15 -1050 20 -14 14 -368 2535 -368 2618 0 14 9 25 28 33 31 13 1339 28 2272 27 l555 -1 -2 -90z"/>
        <path d="M15775 4773 c-11 -96 -11 -106 3 -110 19 -7 82 61 82 90 0 31 -36 77 -60 77 -15 0 -20 -10 -25 -57z"/>
        <path d="M16549 4764 c-3 -149 -3 -147 24 -138 32 10 87 69 87 95 0 31 -44 85 -80 97 l-30 11 -1 -65z"/>
        <path d="M15771 3728 c-514 -4 -936 -10 -938 -11 -1 -2 13 -107 32 -233 18 -126 95 -663 170 -1194 74 -531 141 -999 147 -1041 l11 -77 201 -6 c111 -3 571 -8 1023 -11 l822 -6 6 23 c2 13 63 454 135 982 129 950 205 1491 216 1554 l6 32 -448 -2 c-247 -1 -869 -5 -1383 -10z m546 -613 l-6 -195 67 0 c37 0 131 -3 210 -7 l142 -6 0 -37 c0 -21 -3 -52 -6 -69 l-6 -31 -204 0 -204 0 -1 -227 c-2 -421 -14 -1011 -21 -1018 -3 -4 -37 -4 -74 0 l-67 8 7 311 c3 171 7 451 8 621 l3 310 -205 5 -205 5 -3 68 -3 67 211 0 210 0 0 195 0 195 77 0 76 0 -6 -195z"/>
    </g>
</svg>
