<svg xmlns="http://www.w3.org/2000/svg" version="1.0" preserveAspectRatio="xMidYMid meet" viewBox="154.36 115 406.51 517.54">

    <g transform="translate(0.000000,2000.000000) scale(0.100000,-0.100000)" fill="#000000" stroke="none">
        <path d="M3590 18824 c-6 -14 -10 -114 -10 -222 0 -108 -3 -309 -7 -445 l-6 -249 -36 7 c-41 8 -298 85 -581 174 -107 34 -216 65 -242 68 l-47 6 -25 -84 c-37 -126 -68 -281 -69 -357 l-2 -67 170 -17 c276 -28 759 -89 768 -98 5 -4 -28 -232 -72 -506 -44 -275 -141 -881 -216 -1348 -74 -468 -137 -851 -139 -853 -2 -2 -55 -12 -117 -23 -176 -30 -250 -56 -345 -121 l-41 -28 -41 142 c-87 298 -93 338 -63 399 11 24 53 76 93 115 65 64 79 74 126 83 77 14 87 22 100 82 19 88 35 198 30 204 -10 9 -128 28 -135 21 -3 -4 -10 -32 -14 -63 -4 -32 -14 -63 -21 -71 -8 -7 -41 -18 -73 -23 -49 -8 -66 -16 -100 -50 l-42 -41 -36 53 c-19 29 -45 74 -57 99 l-22 45 33 60 c18 32 51 80 73 107 l39 47 66 -2 c63 -3 66 -2 79 26 8 15 16 45 19 66 l5 38 -84 42 c-46 23 -102 44 -125 47 -36 5 -45 1 -83 -33 -44 -40 -81 -105 -120 -213 -21 -58 -24 -62 -33 -40 -5 13 -9 76 -10 139 -2 114 -2 115 31 167 44 69 42 118 -6 146 -65 38 -164 -14 -175 -91 -3 -20 -16 -78 -28 -129 l-23 -91 28 -104 28 -103 -23 -18 c-21 -17 -24 -17 -35 -3 -13 19 -71 223 -78 278 -4 35 -1 41 45 80 54 46 62 75 30 117 -18 24 -20 24 -81 11 -79 -17 -114 -41 -167 -115 -60 -85 -59 -113 18 -344 49 -147 59 -185 48 -192 -20 -12 -23 -6 -69 113 -34 89 -47 110 -74 128 -48 29 -60 25 -85 -29 -28 -58 -27 -63 39 -236 61 -158 87 -198 235 -360 110 -120 121 -136 185 -269 38 -78 109 -244 160 -370 l91 -229 -28 -29 c-26 -27 -65 -48 -318 -169 -145 -68 -244 -185 -281 -328 -8 -35 -14 -65 -11 -67 3 -3 571 -9 1263 -14 693 -5 1477 -11 1744 -14 267 -2 491 -2 498 1 33 13 -6 175 -70 291 -100 180 -211 314 -313 378 -38 24 -45 33 -40 52 13 52 302 759 346 846 49 97 169 303 182 314 7 5 37 15 68 21 31 7 76 22 100 34 38 19 50 33 87 107 24 47 59 113 78 148 37 68 40 87 22 127 -9 19 -19 25 -43 25 -53 0 -119 -58 -217 -191 -23 -31 -35 -37 -79 -43 -28 -4 -53 -5 -56 -2 -3 2 23 54 57 114 33 60 74 143 89 183 15 41 48 105 74 142 26 38 47 72 47 77 0 12 -56 57 -81 65 -29 10 -90 -36 -164 -122 -59 -69 -85 -122 -85 -174 0 -28 -69 -179 -83 -179 -5 0 -7 10 -3 23 3 12 9 51 12 87 7 77 -23 263 -54 333 -25 56 -79 98 -135 104 -41 5 -43 4 -65 -35 -12 -22 -22 -44 -22 -50 0 -5 20 -32 45 -60 36 -40 47 -62 56 -107 5 -30 16 -73 23 -93 9 -25 11 -54 6 -85 -9 -62 -16 -67 -23 -16 -7 55 -71 147 -121 175 -93 52 -229 57 -291 10 -41 -32 -45 -64 -15 -113 23 -38 20 -37 66 -18 34 14 36 13 97 -24 114 -71 108 -58 105 -233 l-3 -152 -58 -25 c-51 -22 -61 -23 -97 -12 -54 16 -110 96 -110 157 0 32 -9 53 -41 97 -22 32 -48 57 -58 57 -23 0 -61 -68 -61 -109 0 -17 13 -57 29 -89 19 -37 32 -82 36 -127 8 -69 9 -71 69 -128 76 -74 106 -115 106 -143 0 -13 -22 -90 -49 -171 -27 -81 -70 -227 -96 -323 -26 -96 -51 -178 -54 -182 -3 -4 -34 15 -69 42 -35 27 -89 59 -120 70 -89 34 -309 88 -388 95 -40 4 -76 10 -81 14 -6 4 21 398 73 1061 46 580 92 1176 102 1323 11 148 22 271 25 274 9 8 523 -164 722 -241 93 -36 181 -66 196 -66 22 0 30 8 49 51 29 69 48 163 60 306 7 79 7 129 1 146 -11 27 -17 29 -156 42 -95 9 -810 97 -814 101 -2 1 25 99 59 216 134 456 180 622 180 644 0 18 -11 27 -57 44 -143 54 -333 90 -470 90 -59 0 -64 -2 -73 -26z"/>
    </g>
</svg>
