<svg xmlns="http://www.w3.org/2000/svg" version="1.0" preserveAspectRatio="xMidYMid meet" viewBox="1508.1 778.04 270.9 508.78">

    <g transform="translate(0.000000,2000.000000) scale(0.100000,-0.100000)" fill="#000000" stroke="none">
        <path d="M16065 12201 c-61 -38 -95 -100 -95 -176 0 -86 45 -154 144 -218 l49 -31 -6 -165 c-7 -170 -23 -275 -52 -331 -32 -61 -85 -109 -138 -125 -75 -22 -263 -39 -350 -30 -73 6 -77 8 -97 40 -28 46 -94 103 -144 126 -50 23 -155 25 -195 4 -38 -19 -77 -66 -91 -111 -25 -76 13 -191 80 -245 l38 -31 -40 -36 c-56 -51 -80 -104 -86 -188 -9 -135 42 -219 147 -244 98 -23 197 22 297 136 l56 64 57 0 c79 -1 197 -24 258 -50 58 -25 130 -95 162 -158 48 -95 72 -209 81 -397 8 -149 42 -2340 39 -2500 l-1 -50 -28 60 c-38 82 -52 155 -44 231 5 43 3 64 -4 64 -16 0 -81 -79 -107 -130 l-23 -45 -7 50 c-13 103 -28 162 -54 225 -30 73 -100 186 -152 245 -37 42 -149 138 -155 133 -2 -2 17 -44 41 -92 63 -127 79 -206 73 -380 -5 -133 -30 -286 -47 -286 -14 0 -44 76 -55 143 -6 37 -16 69 -21 70 -13 3 -43 -61 -61 -126 -18 -67 -18 -129 0 -197 8 -30 13 -56 11 -58 -2 -2 -20 17 -41 42 -21 25 -42 42 -47 37 -4 -4 -11 -33 -14 -63 -9 -84 18 -160 77 -222 l49 -51 218 -3 c120 -1 542 1 938 5 l720 8 40 77 c48 93 121 178 204 238 33 24 61 48 61 52 0 11 -86 21 -134 16 -24 -3 -58 -13 -76 -22 -18 -9 -34 -16 -34 -16 -1 0 -1 60 -1 132 0 124 -2 137 -27 191 -16 35 -33 57 -40 55 -7 -3 -22 -31 -33 -64 -12 -32 -29 -75 -39 -94 -22 -41 -75 -100 -92 -100 -14 0 -24 69 -24 174 0 100 26 198 80 306 22 44 40 82 40 85 0 30 -174 -79 -239 -151 -64 -69 -113 -171 -148 -303 l-26 -101 -20 32 c-38 64 -103 128 -129 128 -4 0 -7 -47 -7 -104 1 -77 -4 -119 -17 -158 l-19 -53 -6 170 c-4 94 -17 706 -30 1361 l-23 1191 22 84 c35 128 81 216 150 281 78 74 123 88 307 91 l138 2 21 -29 c48 -67 91 -107 142 -132 107 -52 228 -16 281 85 18 34 23 60 23 114 0 81 -25 135 -87 186 l-37 30 25 20 c33 26 85 125 94 177 20 123 -80 230 -194 209 -90 -17 -152 -59 -226 -157 l-20 -27 -199 14 c-231 16 -243 18 -316 55 -68 35 -92 60 -124 130 -22 51 -25 72 -31 261 l-7 206 55 55 c71 71 98 125 98 193 0 115 -70 180 -196 180 -78 -1 -112 -14 -175 -72 l-40 -35 -46 41 c-28 24 -68 47 -97 56 -71 21 -165 19 -202 -4z"/>
    </g>
</svg>
