<svg xmlns="http://www.w3.org/2000/svg" version="1.0" preserveAspectRatio="xMidYMid meet" viewBox="46.60 363.60 69.50 94.70">

<g transform="translate(0.000000,1320.000000) scale(0.100000,-0.100000)" fill="#000000" stroke="none">
<path d="M777 9473 c-4 -3 -7 -26 -7 -50 0 -30 4 -43 14 -43 16 0 26 21 26 55 0 24 -22 49 -33 38z"/>
<path d="M650 9425 c0 -31 36 -79 52 -69 9 6 0 53 -15 72 -13 17 -37 15 -37 -3z"/>
<path d="M880 9410 c-7 -16 -9 -37 -6 -47 6 -15 8 -15 26 3 10 10 22 31 25 47 6 23 4 27 -13 27 -12 0 -24 -11 -32 -30z"/>
<path d="M560 9329 c0 -18 32 -38 63 -39 34 0 35 13 2 34 -28 19 -65 21 -65 5z"/>
<path d="M711 9314 c-38 -31 -38 -36 -5 -79 27 -35 25 -55 -4 -55 -32 -1 -107 -66 -132 -115 -20 -38 -24 -62 -24 -119 1 -100 41 -166 131 -217 47 -27 165 -32 209 -9 147 75 195 235 110 365 -31 47 -91 95 -119 95 -36 0 -32 19 18 86 7 10 1 22 -20 44 -25 26 -36 30 -81 30 -42 0 -59 -5 -83 -26z m97 -11 c-10 -2 -28 -2 -40 0 -13 2 -5 4 17 4 22 1 32 -1 23 -4z m-8 -68 c10 -12 10 -15 -4 -15 -9 0 -16 7 -16 15 0 8 2 15 4 15 2 0 9 -7 16 -15z m56 -80 c48 -20 83 -48 113 -93 22 -32 26 -48 26 -112 0 -64 -4 -81 -25 -110 -54 -78 -106 -103 -197 -98 -115 7 -192 91 -193 210 0 147 148 257 276 203z"/>
<path d="M715 9121 c-98 -45 -139 -151 -96 -247 52 -114 195 -148 289 -69 35 30 72 103 72 144 0 66 -52 144 -114 172 -52 24 -100 24 -151 0z m145 -32 c65 -40 96 -112 76 -176 -24 -80 -68 -113 -150 -113 -54 0 -59 2 -101 45 -42 42 -45 48 -45 100 0 74 18 106 81 144 44 27 95 27 139 0z"/>
<path d="M948 9326 c-41 -30 -6 -48 47 -24 14 6 25 17 25 25 0 17 -49 17 -72 -1z"/>
</g>
</svg>
